<?xml version="1.0" encoding="UTF-8" standalone="no"?>
<!-- Created with Inkscape (http://www.inkscape.org/) -->

<svg
   xmlns:dc="http://purl.org/dc/elements/1.1/"
   xmlns:cc="http://creativecommons.org/ns#"
   xmlns:rdf="http://www.w3.org/1999/02/22-rdf-syntax-ns#"
   xmlns:svg="http://www.w3.org/2000/svg"
   xmlns="http://www.w3.org/2000/svg"
   xmlns:xlink="http://www.w3.org/1999/xlink"
   xmlns:sodipodi="http://sodipodi.sourceforge.net/DTD/sodipodi-0.dtd"
   xmlns:inkscape="http://www.inkscape.org/namespaces/inkscape"
   width="96"
   height="96"
   viewBox="0 0 25.400001 25.400001"
   version="1.1"
   id="svg983"
   inkscape:version="0.92.2 (5c3e80d, 2017-08-06)"
   sodipodi:docname="qj.svg">
  <defs
     id="defs977">
    <clipPath
       clipPathUnits="userSpaceOnUse"
       id="clipPath5560">
      <path
         d="m 113.79956,163.29203 c -0.32852,0 -0.59376,0.26523 -0.59376,0.59376 v 1.20111 h -1.20111 c -0.32851,0 -0.59375,0.26523 -0.59375,0.59375 v 0.80679 c 0,0.32851 0.26523,0.59375 0.59375,0.59375 h 1.20111 v 1.2011 c 0,0.32851 0.26523,0.59375 0.59376,0.59375 h 0.80677 c 0.32852,0 0.59376,-0.26523 0.59376,-0.59375 v -1.2011 h 1.20111 c 0.32852,0 0.59375,-0.26523 0.59375,-0.59375 v -0.80679 c 0,-0.32852 -0.26523,-0.59375 -0.59375,-0.59375 h -1.20111 v -1.20111 c 0,-0.32851 -0.26523,-0.59376 -0.59376,-0.59376 z M 102.77657,148.7881 c -0.32851,0 -0.59375,0.26523 -0.59375,0.59376 v 1.20111 h -1.20111 c -0.32852,0 -0.59376,0.26523 -0.59376,0.59375 v 0.80679 c 1e-5,0.32851 0.26523,0.59375 0.59376,0.59375 h 1.20111 v 1.2011 c 0,0.32851 0.26523,0.59376 0.59375,0.59376 h 0.80678 c 0.32851,0 0.59375,-0.26523 0.59375,-0.59376 v -1.2011 h 1.20111 c 0.32852,0 0.59375,-0.26523 0.59375,-0.59375 v -0.80679 c 0,-0.32852 -0.26523,-0.59375 -0.59375,-0.59375 h -1.20111 v -1.20111 c 0,-0.32851 -0.26523,-0.59376 -0.59375,-0.59376 z m 12.12913,-0.0679 c -0.46707,-0.41956 -1.09395,-0.66113 -1.77084,-0.62487 -1.35395,0.0724 -2.39337,1.22904 -2.32091,2.58276 0.0311,0.57993 -0.0991,1.10952 -0.21572,1.72756 0,0 -0.10981,0.86922 -0.48752,1.28421 -1.04993,1.15334 -1.85985,2.07337 -3.34665,3.73346 -1.53448,1.61611 -2.38593,2.49784 -3.45073,3.63747 -0.38307,0.41004 -1.24061,0.58975 -1.24061,0.58975 -0.60658,0.16621 -1.12393,0.33856 -1.70446,0.35461 -1.355205,0.0368 -2.424003,1.16671 -2.386712,2.52207 0.03684,1.35522 1.164973,2.42241 2.520332,2.38512 0.49664,-0.0739 0.83244,-0.48395 1.00498,-0.34465 0.15275,0.16072 -0.22879,0.52856 -0.26234,1.02954 0.0724,1.35394 1.22731,2.39176 2.58104,2.3193 1.35394,-0.0724 2.39336,-1.22905 2.3209,-2.58276 -0.0311,-0.57993 0.0991,-1.10952 0.21572,-1.72754 0,0 0.10981,-0.86925 0.48756,-1.28422 1.04993,-1.15335 1.85985,-2.07337 3.34665,-3.73346 1.53447,-1.61612 2.38594,-2.49785 3.45074,-3.63748 0.38307,-0.41003 1.2406,-0.58974 1.2406,-0.58974 0.60658,-0.16621 1.12393,-0.33856 1.70446,-0.35461 1.35521,-0.0368 2.42406,-1.16665 2.38671,-2.52207 -0.0368,-1.35522 -1.16491,-2.42247 -2.52034,-2.38512 -0.49663,0.0739 -0.83244,0.48395 -1.00496,0.34466 -0.15275,-0.16073 0.22878,-0.52857 0.26233,-1.02955 -0.036,-0.67696 -0.34325,-1.27473 -0.81023,-1.69437 z m -1.31626,4.74538 c 0.21309,0.19646 0.6701,1.13955 0.31878,1.5205 -0.15897,0.17239 -2.32951,2.45223 -4.57085,4.81033 -2.16921,2.42459 -4.26615,4.77231 -4.42512,4.9447 -0.35132,0.38092 -1.32825,0.002 -1.5413,-0.19484 -0.21308,-0.19647 -0.6701,-1.13956 -0.31877,-1.52052 0.15897,-0.17239 2.32951,-2.45223 4.57084,-4.81032 2.16921,-2.42461 4.26615,-4.77232 4.42512,-4.94471 0.35128,-0.38092 1.32825,-0.002 1.5413,0.19485 z"
         style="opacity:1;vector-effect:none;fill:url(#linearGradient5564);fill-opacity:1;stroke:none;stroke-width:0.41837776;stroke-linecap:butt;stroke-linejoin:miter;stroke-miterlimit:4;stroke-dasharray:none;stroke-dashoffset:87.46364594;stroke-opacity:1;paint-order:normal"
         id="path5562"
         inkscape:connector-curvature="0" />
    </clipPath>
    <radialGradient
       inkscape:collect="always"
       xlink:href="#linearGradient5103"
       id="radialGradient5440"
       gradientUnits="userSpaceOnUse"
       gradientTransform="matrix(2.0256904,5.6374377,-4.8201238,1.7320063,62.317553,-820.67056)"
       cx="149.74358"
       cy="73.055466"
       fx="149.74358"
       fy="73.055466"
       r="4.047379" />
    <linearGradient
       inkscape:collect="always"
       id="linearGradient5103">
      <stop
         style="stop-color:#f9f7f7;stop-opacity:1"
         offset="0"
         id="stop5099" />
      <stop
         id="stop5203"
         offset="0.2258819"
         style="stop-color:#f9ebe7;stop-opacity:1" />
      <stop
         style="stop-color:#646466;stop-opacity:1"
         offset="1"
         id="stop5101" />
    </linearGradient>
    <linearGradient
       inkscape:collect="always"
       xlink:href="#linearGradient5221"
       id="linearGradient5442"
       gradientUnits="userSpaceOnUse"
       x1="21.048168"
       y1="143.71417"
       x2="21.048168"
       y2="170.04021"
       gradientTransform="translate(-0.00324329)" />
    <linearGradient
       id="linearGradient5221"
       inkscape:collect="always">
      <stop
         id="stop5215"
         offset="0"
         style="stop-color:#f4f1f1;stop-opacity:1" />
      <stop
         style="stop-color:#f9ebe7;stop-opacity:1"
         offset="0.2258819"
         id="stop5217" />
      <stop
         id="stop5219"
         offset="1"
         style="stop-color:#646466;stop-opacity:1" />
    </linearGradient>
    <filter
       inkscape:collect="always"
       style="color-interpolation-filters:sRGB"
       id="filter5649"
       x="-0.059999999"
       width="1.12"
       y="-0.059999999"
       height="1.12">
      <feGaussianBlur
         inkscape:collect="always"
         stdDeviation="0.84666662"
         id="feGaussianBlur5651" />
    </filter>
    <filter
       inkscape:collect="always"
       style="color-interpolation-filters:sRGB"
       id="filter5430"
       x="-0.0099237831"
       width="1.0198476"
       y="-0.015174819"
       height="1.0303496">
      <feGaussianBlur
         inkscape:collect="always"
         stdDeviation="0.43107697"
         id="feGaussianBlur5432" />
    </filter>
    <clipPath
       clipPathUnits="userSpaceOnUse"
       id="clipPath5373">
      <path
         inkscape:connector-curvature="0"
         d="m 59.90677,149.47095 c -0.02985,1.48672 -0.205927,3.17622 -1.429305,4.19455 -0.520195,0.53716 -1.761583,0.60845 -2.122236,0.82543 1.370676,0.7008 2.854306,1.28424 3.985977,2.35684 0.604983,0.66373 0.468699,1.63721 0.649494,2.4589 0.306641,2.28058 0.523951,4.57559 0.907973,6.84462 0.175956,0.52013 0.703831,0.85885 1.016598,1.27722 0.312735,-0.41825 0.781973,-0.75709 0.957924,-1.27722 0.384029,-2.26903 0.59917,-4.56404 0.905817,-6.84462 0.180792,-0.82169 0.0467,-1.79517 0.65165,-2.4589 1.131684,-1.0726 2.615311,-1.65604 3.98599,-2.35684 -0.360659,-0.2169 -1.602041,-0.28835 -2.122236,-0.82543 -1.223404,-1.01833 -1.399471,-2.70783 -1.429311,-4.19455 -0.200337,0.0841 -0.631973,0.8755 -0.949253,1.20122 -0.422466,0.63111 -1.098265,0.96361 -1.902836,0.97752 -0.770673,-0.0126 -1.601875,-0.11602 -2.026666,-0.81673 -0.368477,-0.37159 -0.838907,-1.21846 -1.07958,-1.36201 z m 10.225638,2.31148 1.376233,3.61262 c 0,0 0.623004,1.84579 0.638969,2.72792 0.008,0.43708 -0.294915,1.27794 -0.294915,1.27794 0,0 -1.108655,-1.34586 -1.86775,-1.72031 -0.343003,-0.1694 -1.130482,-0.19672 -1.130482,-0.19672 0,0 0.946761,1.71026 1.130482,2.65415 0.172173,0.88466 0.158806,1.8264 -0.04918,2.70333 -0.209667,0.88415 -0.422013,1.69891 -0.786419,2.53128 -0.445336,1.01728 -1.621993,3.02283 -1.621993,3.02283 0,0 2.392534,-1.43788 3.243984,-2.50673 0.584634,-0.73393 1.179632,-2.55587 1.179632,-2.55587 l 2.457558,2.9491 c 0,0 1.355376,-1.37861 1.67114,-2.261 0.652228,-1.82257 0.65762,-3.77226 0.196596,-5.65235 -0.384783,-1.56923 -1.159435,-2.81308 -2.162659,-4.07958 -0.633182,-0.79933 -1.677275,-1.56726 -2.605,-1.99059 -0.479057,-0.21858 -1.376214,-0.51614 -1.376214,-0.51614 z m -15.300425,-0.066 c 0,0 -2.68904,2.3388 -3.809214,3.76008 -0.785114,0.99613 -1.42547,2.3053 -1.7203,3.53889 -0.392435,1.642 -0.443193,3.48101 0.147457,5.06256 0.407316,1.09072 1.892314,2.23641 1.892314,2.23641 l 2.408412,-3.58803 c 0,0 0.739846,2.02262 1.277935,2.94906 0.617161,1.06255 1.271897,2.15755 2.2118,2.94907 0.633333,0.53333 2.211803,1.13047 2.211803,1.13047 0,0 -1.25363,-2.30593 -1.818587,-3.48975 -0.530926,-1.11249 -1.235856,-2.18206 -1.474544,-3.39143 -0.310973,-1.57555 0.09832,-4.81683 0.09832,-4.81683 0,0 -1.207818,1.59786 -2.015196,2.16268 -0.378984,0.26524 -1.277938,0.54065 -1.277938,0.54065 0,0 0.139978,-1.80631 0.294915,-2.77702 0.157631,-0.98748 0.34498,-2.06709 0.638969,-3.02283 0.330853,-1.0755 0.933865,-3.24398 0.933865,-3.24398 z"
         style="display:inline;opacity:1;vector-effect:none;fill:url(#linearGradient5377);fill-opacity:1;stroke:none;stroke-width:0.41837776;stroke-linecap:butt;stroke-linejoin:miter;stroke-miterlimit:4;stroke-dasharray:none;stroke-dashoffset:87.46364594;stroke-opacity:1;paint-order:normal"
         id="path5375" />
    </clipPath>
    <filter
       inkscape:collect="always"
       style="color-interpolation-filters:sRGB"
       id="filter5387"
       x="-0.023489891"
       width="1.0469798"
       y="-0.024532758"
       height="1.0490655">
      <feGaussianBlur
         inkscape:collect="always"
         stdDeviation="0.36622571"
         id="feGaussianBlur5389" />
    </filter>
    <linearGradient
       inkscape:collect="always"
       xlink:href="#linearGradient5112"
       id="linearGradient5360"
       gradientUnits="userSpaceOnUse"
       gradientTransform="matrix(4.1837776,0,0,4.1837776,-639.04208,-240.62186)"
       x1="161.5979"
       y1="76.873878"
       x2="161.6151"
       y2="72.087814" />
    <linearGradient
       inkscape:collect="always"
       id="linearGradient5112">
      <stop
         style="stop-color:#525c90;stop-opacity:1"
         offset="0"
         id="stop5108" />
      <stop
         style="stop-color:#262b43;stop-opacity:1"
         offset="1"
         id="stop5110" />
    </linearGradient>
  </defs>
  <sodipodi:namedview
     id="base"
     pagecolor="#ffffff"
     bordercolor="#666666"
     borderopacity="1.0"
     inkscape:pageopacity="0.0"
     inkscape:pageshadow="2"
     inkscape:zoom="5.6"
     inkscape:cx="5.5455293"
     inkscape:cy="40.036889"
     inkscape:document-units="mm"
     inkscape:current-layer="layer1"
     showgrid="false"
     fit-margin-top="0"
     fit-margin-left="0"
     fit-margin-right="0"
     fit-margin-bottom="0"
     units="px"
     inkscape:window-width="1819"
     inkscape:window-height="1057"
     inkscape:window-x="-8"
     inkscape:window-y="-8"
     inkscape:window-maximized="1" />
  <metadata
     id="metadata980">
    <rdf:RDF>
      <cc:Work
         rdf:about="">
        <dc:format>image/svg+xml</dc:format>
        <dc:type
           rdf:resource="http://purl.org/dc/dcmitype/StillImage" />
        <dc:title />
      </cc:Work>
    </rdf:RDF>
  </metadata>
  <g
     inkscape:label="Layer 1"
     inkscape:groupmode="layer"
     id="layer1"
     transform="translate(-20.344192,-47.904613)">
    <g
       id="g1639"
       transform="matrix(0.69789138,0,0,0.69789138,5.873514,23.220408)">
      <g
         transform="translate(18.52594,-106.17593)"
         style="display:inline;fill:#000000;fill-opacity:1;filter:url(#filter5649)"
         id="g5904">
        <circle
           r="16.933332"
           cy="160.51521"
           cx="20.783585"
           id="circle5900"
           style="display:inline;opacity:1;vector-effect:none;fill:#000000;fill-opacity:1;stroke:none;stroke-width:1.27242613;stroke-linecap:butt;stroke-linejoin:miter;stroke-miterlimit:4;stroke-dasharray:none;stroke-dashoffset:87.46364594;stroke-opacity:1;paint-order:normal" />
        <circle
           style="display:inline;opacity:0.5;vector-effect:none;fill:#000000;fill-opacity:1;stroke:none;stroke-width:1.27242613;stroke-linecap:butt;stroke-linejoin:miter;stroke-miterlimit:4;stroke-dasharray:none;stroke-dashoffset:87.46364594;stroke-opacity:1;paint-order:normal"
           id="circle5902"
           cx="20.783585"
           cy="160.51521"
           r="16.933332" />
      </g>
      <g
         style="display:inline;opacity:1"
         transform="translate(18.15219,-106.98851)"
         id="g5438">
        <circle
           r="16.933332"
           cy="160.51521"
           cx="20.783585"
           id="circle5434"
           style="display:inline;opacity:1;vector-effect:none;fill:url(#radialGradient5440);fill-opacity:1;stroke:none;stroke-width:1.27242613;stroke-linecap:butt;stroke-linejoin:miter;stroke-miterlimit:4;stroke-dasharray:none;stroke-dashoffset:87.46364594;stroke-opacity:1;paint-order:normal" />
        <circle
           style="display:inline;opacity:0.5;vector-effect:none;fill:url(#linearGradient5442);fill-opacity:1;stroke:none;stroke-width:1.27242613;stroke-linecap:butt;stroke-linejoin:miter;stroke-miterlimit:4;stroke-dasharray:none;stroke-dashoffset:87.46364594;stroke-opacity:1;paint-order:normal"
           id="circle5436"
           cx="20.780342"
           cy="160.51521"
           r="16.933332" />
      </g>
    </g>
    <g
       id="g866"
       transform="matrix(0.63787613,0,0,0.63787613,9.8453996,15.641388)">
      <path
         inkscape:connector-curvature="0"
         d="m 33.885482,60.723875 c -0.02985,1.48672 -0.205926,3.17622 -1.429306,4.19455 -0.520195,0.53716 -1.761582,0.60845 -2.122234,0.82543 1.370676,0.7008 2.854305,1.28424 3.985976,2.35684 0.604983,0.66373 0.468698,1.63721 0.649493,2.4589 0.306644,2.28058 0.523954,4.57559 0.907973,6.84462 0.175956,0.52013 0.703832,0.85885 1.016598,1.27722 0.312737,-0.41825 0.781974,-0.75709 0.957926,-1.27722 0.384028,-2.26903 0.59917,-4.56404 0.905816,-6.84462 0.180791,-0.82169 0.0467,-1.79517 0.651651,-2.4589 1.131684,-1.0726 2.615311,-1.65604 3.985989,-2.35684 -0.360657,-0.2169 -1.60204,-0.28835 -2.122235,-0.82543 -1.223405,-1.01833 -1.39947,-2.70783 -1.42931,-4.19455 -0.200338,0.0841 -0.631974,0.8755 -0.949256,1.20122 -0.422463,0.63111 -1.098263,0.96361 -1.902833,0.97752 -0.770676,-0.0126 -1.601876,-0.11602 -2.026669,-0.81673 -0.368476,-0.37159 -0.838905,-1.21846 -1.079579,-1.36201 z m 10.225638,2.31148 1.376234,3.61262 c 0,0 0.623003,1.84579 0.638968,2.72792 0.008,0.43708 -0.294915,1.27794 -0.294915,1.27794 0,0 -1.108655,-1.34586 -1.867748,-1.72031 -0.343004,-0.1694 -1.130483,-0.19672 -1.130483,-0.19672 0,0 0.946762,1.71026 1.130483,2.65415 0.172172,0.88466 0.158805,1.8264 -0.04918,2.70333 -0.209668,0.88415 -0.422014,1.69891 -0.786421,2.53128 -0.445335,1.01728 -1.621994,3.02283 -1.621994,3.02283 0,0 2.392535,-1.43788 3.243987,-2.50673 0.584633,-0.73393 1.17963,-2.55587 1.17963,-2.55587 l 2.45756,2.9491 c 0,0 1.355375,-1.37861 1.671139,-2.261 0.652227,-1.82257 0.657619,-3.77226 0.196596,-5.65235 -0.384783,-1.56923 -1.159436,-2.81308 -2.162659,-4.07958 -0.633183,-0.79933 -1.677276,-1.56726 -2.605,-1.99059 -0.479056,-0.21858 -1.376214,-0.51614 -1.376214,-0.51614 z m -15.300424,-0.066 c 0,0 -2.689041,2.3388 -3.809216,3.76008 -0.785114,0.99613 -1.425469,2.3053 -1.7203,3.53889 -0.392435,1.642 -0.443191,3.48101 0.147458,5.06256 0.407315,1.09072 1.892313,2.23641 1.892313,2.23641 l 2.408414,-3.58803 c 0,0 0.739846,2.02262 1.277935,2.94906 0.617161,1.06255 1.271896,2.15755 2.211798,2.94907 0.633336,0.53333 2.211805,1.13047 2.211805,1.13047 0,0 -1.253631,-2.30593 -1.818589,-3.48975 -0.530926,-1.11249 -1.235854,-2.18206 -1.474544,-3.39143 -0.310972,-1.57555 0.09832,-4.81683 0.09832,-4.81683 0,0 -1.207817,1.59786 -2.015197,2.16268 -0.378984,0.26524 -1.277936,0.54065 -1.277936,0.54065 0,0 0.139976,-1.80631 0.294915,-2.77702 0.15763,-0.98748 0.344978,-2.06709 0.638968,-3.02283 0.330854,-1.0755 0.933866,-3.24398 0.933866,-3.24398 z"
         style="display:inline;opacity:1;vector-effect:none;fill:url(#linearGradient5360);fill-opacity:1;stroke:none;stroke-width:0.41837779;stroke-linecap:butt;stroke-linejoin:miter;stroke-miterlimit:4;stroke-dasharray:none;stroke-dashoffset:87.46364594;stroke-opacity:1;paint-order:normal"
         id="path5283" />
      <path
         clip-path="url(#clipPath5373)"
         inkscape:connector-curvature="0"
         id="rect5362"
         d="m 44.152859,142.37791 v 35.82727 h 37.417872 v -35.82727 z m 15.754077,7.75456 c 0.240673,0.14355 0.711044,0.9906 1.079522,1.36219 0.424793,0.70072 1.256075,0.80389 2.02675,0.81649 0.804569,-0.0139 1.480262,-0.34661 1.902725,-0.97772 0.317283,-0.32572 0.748958,-1.11686 0.949296,-1.20096 0.02984,1.48672 0.205965,3.17625 1.429371,4.19458 0.520195,0.53708 1.761178,0.60837 2.121834,0.82527 -1.370676,0.7008 -2.854118,1.28437 -3.985802,2.35697 -0.604951,0.66372 -0.47085,1.63707 -0.651642,2.45876 -0.306644,2.28058 -0.521859,4.57551 -0.905886,6.84454 -0.175953,0.52013 -0.645345,0.85919 -0.958083,1.27744 -0.312766,-0.41837 -0.840517,-0.75731 -1.016473,-1.27744 -0.384022,-2.26903 -0.601314,-4.56396 -0.907958,-6.84454 -0.180792,-0.82169 -0.04459,-1.79504 -0.64957,-2.45876 -1.131673,-1.0726 -2.615129,-1.65617 -3.985805,-2.35697 0.360653,-0.21698 1.602158,-0.28811 2.122352,-0.82527 1.223378,-1.01833 1.399519,-2.70786 1.429369,-4.19458 z m -5.075142,2.24535 c 0,0 -0.602938,2.16874 -0.933794,3.24424 -0.293989,0.95574 -0.481089,2.03507 -0.63872,3.02255 -0.154937,0.97072 -0.295071,2.7771 -0.295071,2.7771 0,0 0.898975,-0.2753 1.277959,-0.54054 0.807378,-0.56482 2.015378,-2.16266 2.015378,-2.16266 0,0 -0.409672,3.24121 -0.0987,4.81676 0.238689,1.20937 0.94392,2.27904 1.474843,3.39153 0.56496,1.18382 1.818495,3.48971 1.818495,3.48971 0,0 -1.578417,-0.59735 -2.21175,-1.13068 -0.939903,-0.79152 -1.594591,-1.88663 -2.211753,-2.94918 -0.538088,-0.92644 -1.277958,-2.94865 -1.277958,-2.94865 l -2.408637,3.58789 c 0,0 -1.485078,-1.14583 -1.892393,-2.23656 -0.590648,-1.58155 -0.539713,-3.42022 -0.147278,-5.06222 0.294834,-1.23359 0.935197,-2.54319 1.720311,-3.53932 1.120174,-1.42128 3.809068,-3.75997 3.809068,-3.75997 z m 15.300359,0.0661 c 0,0 0.897605,0.29715 1.376659,0.51573 0.927725,0.42333 1.971826,1.19177 2.605008,1.99109 1.003224,1.26651 1.777876,2.51011 2.162659,4.07934 0.461024,1.88009 0.45534,3.8298 -0.196887,5.65237 -0.315764,0.88239 -1.671214,2.26084 -1.671214,2.26084 l -2.457214,-2.94917 c 0,0 -0.595141,1.82199 -1.179775,2.55592 -0.85145,1.06885 -3.244246,2.50682 -3.244246,2.50682 0,0 1.17679,-2.00527 1.622123,-3.02255 0.364408,-0.83238 0.576847,-1.64748 0.786516,-2.53163 0.207987,-0.87693 0.221266,-1.81854 0.04909,-2.7032 -0.183722,-0.94389 -1.130165,-2.6541 -1.130165,-2.6541 0,0 0.787162,0.0275 1.130165,0.19689 0.759092,0.37445 1.867585,1.72031 1.867585,1.72031 0,0 0.303072,-0.84088 0.295071,-1.27796 -0.01596,-0.88213 -0.63872,-2.728 -0.63872,-2.728 z"
         style="display:inline;opacity:1;vector-effect:none;fill:#000000;fill-opacity:0.7842105;stroke:none;stroke-width:0.4183777;stroke-linecap:butt;stroke-linejoin:miter;stroke-miterlimit:4;stroke-dasharray:none;stroke-dashoffset:330.57125854;stroke-opacity:1;paint-order:normal;filter:url(#filter5387)"
         transform="translate(-26.021287,-88.747078)" />
      <path
         transform="matrix(0.26458333,0,0,0.26458333,22.715722,60.723875)"
         sodipodi:nodetypes="cccccccccccccccccccccccccccccccccccccccccccccccccccccccccccccccccccaccc"
         inkscape:connector-curvature="0"
         id="path5399"
         d="m 23.035407,10.986439 c 0,0 -0.57482,0.50961 -0.93555,0.82812 -0.77608,2.75485 -1.79509,6.33742 -2.59375,8.93359 -1.11114,3.61225 -1.81829,7.69162 -2.41406,11.42383 -0.58559,3.66883 -1.11523,10.4961 -1.11523,10.4961 0,0 0.20142,-0.0709 0.22461,-0.0781 0.20006,-2.29416 0.50002,-5.47083 0.89062,-7.91797 0.59577,-3.73221 1.30292,-7.81158 2.41406,-11.42383 1.25048,-4.06488 3.5293,-12.26171 3.5293,-12.26171 z m 57.82813,0.25 5.20312,13.65429 c 0,0 1.82242,5.40806 2.29883,8.97657 0.0717,-0.42335 0.12139,-0.82955 0.11523,-1.16602 -0.0603,-3.33404 -2.41406,-10.31055 -2.41406,-10.31055 l -4.10547,-10.77343 c -0.43737,-0.15033 -1.09765,-0.38086 -1.09765,-0.38086 z m -52.07026,7.73671 c -1.33251,0.33179 0.5849,2.14769 -6e-5,2.49961 5.18051,2.6487 10.78727,4.85429 15.06446,8.90821 2.28655,2.50858 1.77176,6.18737 2.45507,9.29297 1.15897,8.61951 1.98023,17.29327 3.43165,25.86914 0.66503,1.96584 2.65968,3.24688 3.84179,4.82812 1.182,-1.58079 2.95608,-2.86228 3.6211,-4.82812 1.45144,-8.57587 2.26485,-17.24963 3.42382,-25.86914 0.68331,-3.1056 0.17647,-6.78439 2.4629,-9.29297 4.27723,-4.05392 9.88394,-6.25951 15.06445,-8.90821 -0.58525,-0.35196 1.3341,-2.16753 8.2e-4,-2.49961 -4.22402,2.04999 -11.64413,5.66528 -15.06527,8.90782 -2.28643,2.50858 -1.77959,6.18737 -2.4629,9.29297 -1.15897,8.61951 -1.97238,17.29327 -3.42382,25.86914 -0.66502,1.96584 -2.4391,3.24733 -3.6211,4.82812 -1.18211,-1.58124 -3.17676,-2.86228 -3.84179,-4.82812 -1.45142,-8.57587 -2.27268,-17.24963 -3.43165,-25.86914 -0.68331,-3.1056 -0.16852,-6.78439 -2.45507,-9.29297 -3.42111,-3.24254 -10.84039,-6.85783 -15.0644,-8.90782 z m 47.24213,13.81211 c 0,0 3.57711,6.4638 4.27149,10.03125 0.21896,1.12509 0.35129,2.27525 0.41015,3.43164 0.0997,-1.99005 -0.0336,-3.99679 -0.41015,-5.93164 -0.41859,-2.15056 -1.83463,-5.22256 -2.9336,-7.42773 -0.73885,-0.0741 -1.33789,-0.10352 -1.33789,-0.10352 z m -47.61133,2.16602 c 0,0 -0.21999,0.28185 -0.30664,0.39453 -0.26414,2.76188 -0.5823,7.01408 -0.48242,10.79883 0.0856,-5.50925 0.78906,-11.19336 0.78906,-11.19336 z m 76.847663,9.87305 c -0.13222,3.44527 -0.74655,6.86183 -1.92969,10.16797 -1.19344,3.33501 -6.316403,8.54492 -6.316403,8.54492 l -9.28711,-11.14649 c 0,0 -2.24935,6.88625 -4.45899,9.66016 -2.21698,2.78303 -9.37623,7.60081 -12.26093,9.47486 -1.1726,2.09236 -7.9e-4,2.49975 -7.9e-4,2.49975 0,0 9.04364,-5.43486 12.26172,-9.47461 2.20964,-2.77391 4.45899,-9.66016 4.45899,-9.66016 l 9.28711,11.14649 c 0,0 5.122963,-5.20991 6.316403,-8.54492 1.46885,-4.10452 2.05255,-8.37959 1.92969,-12.66797 z M 1.0588467,46.447369 c -0.14001002,3.85713 0.31569,7.72776 1.63476,11.25977 1.53946,4.12241 7.15235,8.45312 7.15235,8.45312 l 9.1035103,-13.56054 c 0,0 2.79636,7.64498 4.83008,11.14648 2.33258,4.01594 4.80699,8.15296 8.35938,11.14453 2.3937,2.01574 8.35937,4.27344 8.35937,4.27344 0,0 0.75378,-1.09481 2e-5,-2.50027 -1.94331,-0.81665 -6.75873,-2.92525 -8.35939,-4.27317 -3.55239,-2.99157 -6.0268,-7.13054 -8.35938,-11.14648 -2.03372,-3.50151 -4.83008,-11.14453 -4.83008,-11.14453 l -9.1035103,13.56054 c 0,0 -5.61289,-4.33071 -7.15235,-8.45312 -1.03361,-2.76765 -1.5281,-5.7454 -1.63476,-8.75977 z"
         style="display:inline;opacity:0.25;vector-effect:none;fill:#ffffff;fill-opacity:1;stroke:none;stroke-width:1.58127022;stroke-linecap:butt;stroke-linejoin:miter;stroke-miterlimit:4;stroke-dasharray:none;stroke-dashoffset:87.46364594;stroke-opacity:1;paint-order:normal;filter:url(#filter5430)" />
    </g>
  </g>
</svg>
