<?xml version="1.0" encoding="UTF-8" standalone="no"?>
<!-- Created with Inkscape (http://www.inkscape.org/) -->

<svg
   xmlns:dc="http://purl.org/dc/elements/1.1/"
   xmlns:cc="http://creativecommons.org/ns#"
   xmlns:rdf="http://www.w3.org/1999/02/22-rdf-syntax-ns#"
   xmlns:svg="http://www.w3.org/2000/svg"
   xmlns="http://www.w3.org/2000/svg"
   xmlns:xlink="http://www.w3.org/1999/xlink"
   xmlns:sodipodi="http://sodipodi.sourceforge.net/DTD/sodipodi-0.dtd"
   xmlns:inkscape="http://www.inkscape.org/namespaces/inkscape"
   width="96"
   height="96"
   viewBox="0 0 25.400001 25.400001"
   version="1.1"
   id="svg983"
   inkscape:version="0.92.2 (5c3e80d, 2017-08-06)"
   sodipodi:docname="dc2.svg">
  <defs
     id="defs977">
    <clipPath
       clipPathUnits="userSpaceOnUse"
       id="clipPath5560">
      <path
         d="m 113.79956,163.29203 c -0.32852,0 -0.59376,0.26523 -0.59376,0.59376 v 1.20111 h -1.20111 c -0.32851,0 -0.59375,0.26523 -0.59375,0.59375 v 0.80679 c 0,0.32851 0.26523,0.59375 0.59375,0.59375 h 1.20111 v 1.2011 c 0,0.32851 0.26523,0.59375 0.59376,0.59375 h 0.80677 c 0.32852,0 0.59376,-0.26523 0.59376,-0.59375 v -1.2011 h 1.20111 c 0.32852,0 0.59375,-0.26523 0.59375,-0.59375 v -0.80679 c 0,-0.32852 -0.26523,-0.59375 -0.59375,-0.59375 h -1.20111 v -1.20111 c 0,-0.32851 -0.26523,-0.59376 -0.59376,-0.59376 z M 102.77657,148.7881 c -0.32851,0 -0.59375,0.26523 -0.59375,0.59376 v 1.20111 h -1.20111 c -0.32852,0 -0.59376,0.26523 -0.59376,0.59375 v 0.80679 c 1e-5,0.32851 0.26523,0.59375 0.59376,0.59375 h 1.20111 v 1.2011 c 0,0.32851 0.26523,0.59376 0.59375,0.59376 h 0.80678 c 0.32851,0 0.59375,-0.26523 0.59375,-0.59376 v -1.2011 h 1.20111 c 0.32852,0 0.59375,-0.26523 0.59375,-0.59375 v -0.80679 c 0,-0.32852 -0.26523,-0.59375 -0.59375,-0.59375 h -1.20111 v -1.20111 c 0,-0.32851 -0.26523,-0.59376 -0.59375,-0.59376 z m 12.12913,-0.0679 c -0.46707,-0.41956 -1.09395,-0.66113 -1.77084,-0.62487 -1.35395,0.0724 -2.39337,1.22904 -2.32091,2.58276 0.0311,0.57993 -0.0991,1.10952 -0.21572,1.72756 0,0 -0.10981,0.86922 -0.48752,1.28421 -1.04993,1.15334 -1.85985,2.07337 -3.34665,3.73346 -1.53448,1.61611 -2.38593,2.49784 -3.45073,3.63747 -0.38307,0.41004 -1.24061,0.58975 -1.24061,0.58975 -0.60658,0.16621 -1.12393,0.33856 -1.70446,0.35461 -1.355205,0.0368 -2.424003,1.16671 -2.386712,2.52207 0.03684,1.35522 1.164973,2.42241 2.520332,2.38512 0.49664,-0.0739 0.83244,-0.48395 1.00498,-0.34465 0.15275,0.16072 -0.22879,0.52856 -0.26234,1.02954 0.0724,1.35394 1.22731,2.39176 2.58104,2.3193 1.35394,-0.0724 2.39336,-1.22905 2.3209,-2.58276 -0.0311,-0.57993 0.0991,-1.10952 0.21572,-1.72754 0,0 0.10981,-0.86925 0.48756,-1.28422 1.04993,-1.15335 1.85985,-2.07337 3.34665,-3.73346 1.53447,-1.61612 2.38594,-2.49785 3.45074,-3.63748 0.38307,-0.41003 1.2406,-0.58974 1.2406,-0.58974 0.60658,-0.16621 1.12393,-0.33856 1.70446,-0.35461 1.35521,-0.0368 2.42406,-1.16665 2.38671,-2.52207 -0.0368,-1.35522 -1.16491,-2.42247 -2.52034,-2.38512 -0.49663,0.0739 -0.83244,0.48395 -1.00496,0.34466 -0.15275,-0.16073 0.22878,-0.52857 0.26233,-1.02955 -0.036,-0.67696 -0.34325,-1.27473 -0.81023,-1.69437 z m -1.31626,4.74538 c 0.21309,0.19646 0.6701,1.13955 0.31878,1.5205 -0.15897,0.17239 -2.32951,2.45223 -4.57085,4.81033 -2.16921,2.42459 -4.26615,4.77231 -4.42512,4.9447 -0.35132,0.38092 -1.32825,0.002 -1.5413,-0.19484 -0.21308,-0.19647 -0.6701,-1.13956 -0.31877,-1.52052 0.15897,-0.17239 2.32951,-2.45223 4.57084,-4.81032 2.16921,-2.42461 4.26615,-4.77232 4.42512,-4.94471 0.35128,-0.38092 1.32825,-0.002 1.5413,0.19485 z"
         style="opacity:1;vector-effect:none;fill:url(#linearGradient5564);fill-opacity:1;stroke:none;stroke-width:0.41837776;stroke-linecap:butt;stroke-linejoin:miter;stroke-miterlimit:4;stroke-dasharray:none;stroke-dashoffset:87.46364594;stroke-opacity:1;paint-order:normal"
         id="path5562"
         inkscape:connector-curvature="0" />
    </clipPath>
    <radialGradient
       inkscape:collect="always"
       xlink:href="#linearGradient5103"
       id="radialGradient5440"
       gradientUnits="userSpaceOnUse"
       gradientTransform="matrix(2.0256904,5.6374377,-4.8201238,1.7320063,62.317553,-820.67056)"
       cx="149.74358"
       cy="73.055466"
       fx="149.74358"
       fy="73.055466"
       r="4.047379" />
    <linearGradient
       inkscape:collect="always"
       id="linearGradient5103">
      <stop
         style="stop-color:#f9f7f7;stop-opacity:1"
         offset="0"
         id="stop5099" />
      <stop
         id="stop5203"
         offset="0.2258819"
         style="stop-color:#f9ebe7;stop-opacity:1" />
      <stop
         style="stop-color:#646466;stop-opacity:1"
         offset="1"
         id="stop5101" />
    </linearGradient>
    <linearGradient
       inkscape:collect="always"
       xlink:href="#linearGradient5221"
       id="linearGradient5442"
       gradientUnits="userSpaceOnUse"
       x1="21.048168"
       y1="143.71417"
       x2="21.048168"
       y2="170.04021"
       gradientTransform="translate(-0.00324329)" />
    <linearGradient
       id="linearGradient5221"
       inkscape:collect="always">
      <stop
         id="stop5215"
         offset="0"
         style="stop-color:#f4f1f1;stop-opacity:1" />
      <stop
         style="stop-color:#f9ebe7;stop-opacity:1"
         offset="0.2258819"
         id="stop5217" />
      <stop
         id="stop5219"
         offset="1"
         style="stop-color:#646466;stop-opacity:1" />
    </linearGradient>
    <filter
       inkscape:collect="always"
       style="color-interpolation-filters:sRGB"
       id="filter5649"
       x="-0.059999999"
       width="1.12"
       y="-0.059999999"
       height="1.12">
      <feGaussianBlur
         inkscape:collect="always"
         stdDeviation="0.84666662"
         id="feGaussianBlur5651" />
    </filter>
    <clipPath
       clipPathUnits="userSpaceOnUse"
       id="clipPath1138">
      <path
         d="m 74.339564,203.68999 -4.116078,9.42612 c 0,0 -0.35533,0.73809 -0.187037,0.90178 0.179626,0.17491 1.104969,-0.15225 1.104969,-0.15225 l 6.731087,-2.82176 -4.542123,-0.0721 z m -18.567556,0 4.116075,9.42612 c 0,0 0.35533,0.73809 0.187039,0.90178 -0.179625,0.17491 -1.104969,-0.15225 -1.104969,-0.15225 l -6.731087,-2.82176 4.542123,-0.0721 z m 9.306295,7.8967 c -1.745827,-1.2e-4 -3.31887,1.41517 -3.318698,3.161 -1.29e-4,1.369 0.875554,2.52333 2.09305,2.96273 v 0.86066 c -0.05145,0.002 -1.409419,0.0568 -2.000705,-0.17797 -0.526674,-0.2091 -4.587163,-2.9312 -4.587163,-2.9312 0,0 -1.152753,-0.5546 -1.505032,-0.205 -0.485646,0.48171 0.271184,1.54292 0.727752,1.97591 1.781098,1.68889 4.625441,3.61194 4.625441,4.77643 v 4.30103 c 0,0.16097 0.160443,0.29063 0.349226,0.29063 2.392005,-1e-4 4.783968,-0.001 7.175931,-0.002 0.213196,0 0.360561,-0.15391 0.360561,-0.3447 v -4.24471 c 0,-1.16449 2.844342,-3.08752 4.625486,-4.77642 0.456784,-0.43298 1.213355,-1.4942 0.727707,-1.97591 -0.35228,-0.34962 -1.505032,0.205 -1.505032,0.205 0,0 -4.060486,2.7221 -4.587161,2.9312 -0.591288,0.23473 -1.949259,0.18006 -2.000705,0.17797 v -0.86066 c 1.217496,-0.4394 2.093177,-1.59373 2.09309,-2.96274 1.32e-4,-1.74582 -1.415172,-3.16112 -3.217331,-3.161 z"
         style="opacity:1;vector-effect:none;fill:url(#linearGradient1142);fill-opacity:1;stroke:none;stroke-width:0.41837776;stroke-linecap:butt;stroke-linejoin:miter;stroke-miterlimit:4;stroke-dasharray:none;stroke-dashoffset:87.46364594;stroke-opacity:1;paint-order:normal"
         id="path1140"
         inkscape:connector-curvature="0" />
    </clipPath>
    <linearGradient
       inkscape:collect="always"
       xlink:href="#linearGradient5112"
       id="linearGradient5867"
       gradientUnits="userSpaceOnUse"
       gradientTransform="matrix(3.0268516,0,0,3.0268516,-505.723,-161.83944)"
       x1="183.30234"
       y1="77.048912"
       x2="183.30234"
       y2="72.059563" />
    <linearGradient
       inkscape:collect="always"
       id="linearGradient5112">
      <stop
         style="stop-color:#525c90;stop-opacity:1"
         offset="0"
         id="stop5108" />
      <stop
         style="stop-color:#262b43;stop-opacity:1"
         offset="1"
         id="stop5110" />
    </linearGradient>
    <clipPath
       clipPathUnits="userSpaceOnUse"
       id="clipPath5880">
      <path
         inkscape:connector-curvature="0"
         d="m 155.79141,159.7054 a 2.2901838,2.2901838 0 0 1 -2.29018,2.29019 2.2901838,2.2901838 0 0 1 -2.29019,-2.29019 2.2901838,2.2901838 0 0 1 2.29019,-2.29018 2.2901838,2.2901838 0 0 1 2.29018,2.29018 z m -8.18914,5.30573 2.14752,2.34531 c 0.21539,0.23523 0.19941,0.59802 -0.0358,0.81341 l -2.34531,2.14751 c -0.23524,0.2154 -0.59803,0.19942 -0.81342,-0.0358 l -2.14751,-2.34531 c -0.2154,-0.23523 -0.19941,-0.59802 0.0358,-0.81341 l 2.34531,-2.14751 c 0.23523,-0.2154 0.59803,-0.19942 0.81341,0.0358 z m 11.59876,-3e-5 -2.14752,2.34529 c -0.21535,0.23529 -0.19941,0.59803 0.0358,0.81342 l 2.34529,2.14752 c 0.23529,0.21534 0.59803,0.19941 0.81342,-0.0358 l 2.14752,-2.3453 c 0.21535,-0.23529 0.19941,-0.59803 -0.0358,-0.81341 l -2.34529,-2.14752 c -0.23529,-0.21535 -0.59803,-0.19942 -0.81342,0.0358 z m 0,-15.48363 -2.14752,2.34529 c -0.21535,0.23529 -0.19942,0.59803 0.0358,0.81341 l 2.34529,2.14753 c 0.23529,0.21534 0.59803,0.19941 0.81342,-0.0358 l 2.14752,-2.3453 c 0.21535,-0.23529 0.19941,-0.59803 -0.0358,-0.81341 l -2.3453,-2.14753 c -0.23528,-0.21534 -0.59802,-0.19941 -0.81341,0.0358 z m -9.32961,7.4144 c 0.73436,-0.75267 2.18188,-1.59317 3.54875,-1.59318 1.36686,0 2.83639,0.8405 3.57073,1.59318 0.71292,0.71295 1.16407,1.79491 1.16408,2.75215 -1e-5,0.95724 -0.45115,2.06123 -1.16408,2.77415 -0.73432,0.75269 -2.20388,1.59316 -3.57514,1.59318 -1.37127,0 -2.84079,-0.8405 -3.57514,-1.59318 -0.71293,-0.71291 -1.16407,-1.81691 -1.16408,-2.74995 0,-0.93303 0.48196,-2.06342 1.19488,-2.77635 z m -1.80713,6.97295 c 0.61414,0.39411 2.51602,1.58421 5.41486,1.58421 2.87593,-0.007 4.70612,-1.19008 5.32026,-1.58419 0.61412,-0.39411 2.74594,-1.86222 2.74596,-4.19155 3e-5,-2.33555 -2.13179,-3.83484 -2.74592,-4.22893 -0.61414,-0.39411 -2.53694,-1.50148 -5.44025,-1.50148 -2.90331,0 -4.68078,1.05896 -5.29491,1.45307 -0.61413,0.3941 -2.74814,1.91539 -2.74814,4.22012 0,2.30474 2.13401,3.85465 2.74814,4.24875 z m -0.46199,-14.38733 2.14751,2.34531 c 0.2154,0.23523 0.19941,0.59802 -0.0358,0.81341 l -2.34531,2.14751 c -0.23523,0.2154 -0.59803,0.19942 -0.81341,-0.0358 l -2.14752,-2.34531 c -0.21539,-0.23523 -0.19941,-0.59802 0.0358,-0.81341 l 2.34531,-2.14751 c 0.23523,-0.2154 0.59802,-0.19942 0.81341,0.0358 z"
         style="opacity:1;vector-effect:none;fill:url(#linearGradient5884);fill-opacity:1;fill-rule:evenodd;stroke:none;stroke-width:0.41837776;stroke-linecap:butt;stroke-linejoin:miter;stroke-miterlimit:4;stroke-dasharray:none;stroke-dashoffset:87.46364594;stroke-opacity:1;paint-order:normal"
         id="path5882" />
    </clipPath>
    <filter
       inkscape:collect="always"
       style="color-interpolation-filters:sRGB"
       id="filter861"
       x="-0.023752604"
       width="1.0475053"
       y="-0.024252605"
       height="1.0485052">
      <feGaussianBlur
         inkscape:collect="always"
         stdDeviation="0.3592132"
         id="feGaussianBlur863" />
    </filter>
    <filter
       inkscape:collect="always"
       style="color-interpolation-filters:sRGB"
       id="filter853"
       x="-0.012146679"
       width="1.0242934"
       y="-0.011856821"
       height="1.0237136">
      <feGaussianBlur
         inkscape:collect="always"
         stdDeviation="0.066972234"
         id="feGaussianBlur855" />
    </filter>
  </defs>
  <sodipodi:namedview
     id="base"
     pagecolor="#ffffff"
     bordercolor="#666666"
     borderopacity="1.0"
     inkscape:pageopacity="0.0"
     inkscape:pageshadow="2"
     inkscape:zoom="11.2"
     inkscape:cx="110.07615"
     inkscape:cy="28.087766"
     inkscape:document-units="mm"
     inkscape:current-layer="layer1"
     showgrid="false"
     fit-margin-top="0"
     fit-margin-left="0"
     fit-margin-right="0"
     fit-margin-bottom="0"
     units="px"
     inkscape:window-width="3638"
     inkscape:window-height="2115"
     inkscape:window-x="-13"
     inkscape:window-y="-13"
     inkscape:window-maximized="1" />
  <metadata
     id="metadata980">
    <rdf:RDF>
      <cc:Work
         rdf:about="">
        <dc:format>image/svg+xml</dc:format>
        <dc:type
           rdf:resource="http://purl.org/dc/dcmitype/StillImage" />
        <dc:title />
      </cc:Work>
    </rdf:RDF>
  </metadata>
  <g
     inkscape:label="Layer 1"
     inkscape:groupmode="layer"
     id="layer1"
     transform="translate(-20.344192,-47.904613)">
    <g
       id="g1639"
       transform="matrix(0.69789138,0,0,0.69789138,5.873514,23.220408)">
      <g
         transform="translate(18.52594,-106.17593)"
         style="display:inline;fill:#000000;fill-opacity:1;filter:url(#filter5649)"
         id="g5904">
        <circle
           r="16.933332"
           cy="160.51521"
           cx="20.783585"
           id="circle5900"
           style="display:inline;opacity:1;vector-effect:none;fill:#000000;fill-opacity:1;stroke:none;stroke-width:1.27242613;stroke-linecap:butt;stroke-linejoin:miter;stroke-miterlimit:4;stroke-dasharray:none;stroke-dashoffset:87.46364594;stroke-opacity:1;paint-order:normal" />
        <circle
           style="display:inline;opacity:0.5;vector-effect:none;fill:#000000;fill-opacity:1;stroke:none;stroke-width:1.27242613;stroke-linecap:butt;stroke-linejoin:miter;stroke-miterlimit:4;stroke-dasharray:none;stroke-dashoffset:87.46364594;stroke-opacity:1;paint-order:normal"
           id="circle5902"
           cx="20.783585"
           cy="160.51521"
           r="16.933332" />
      </g>
      <g
         style="display:inline;opacity:1"
         transform="translate(18.15219,-106.98851)"
         id="g5438">
        <circle
           r="16.933332"
           cy="160.51521"
           cx="20.783585"
           id="circle5434"
           style="display:inline;opacity:1;vector-effect:none;fill:url(#radialGradient5440);fill-opacity:1;stroke:none;stroke-width:1.27242613;stroke-linecap:butt;stroke-linejoin:miter;stroke-miterlimit:4;stroke-dasharray:none;stroke-dashoffset:87.46364594;stroke-opacity:1;paint-order:normal" />
        <circle
           style="display:inline;opacity:0.5;vector-effect:none;fill:url(#linearGradient5442);fill-opacity:1;stroke:none;stroke-width:1.27242613;stroke-linecap:butt;stroke-linejoin:miter;stroke-miterlimit:4;stroke-dasharray:none;stroke-dashoffset:87.46364594;stroke-opacity:1;paint-order:normal"
           id="circle5436"
           cx="20.780342"
           cy="160.51521"
           r="16.933332" />
      </g>
    </g>
    <g
       id="g930"
       transform="translate(-15.455985,-2.9008715)">
      <path
         inkscape:connector-curvature="0"
         d="m 50.492139,63.580512 a 1.656887,1.656887 0 0 1 -1.656884,1.656892 1.656887,1.656887 0 0 1 -1.656891,-1.656892 1.656887,1.656887 0 0 1 1.656891,-1.656884 1.656887,1.656887 0 0 1 1.656884,1.656884 z m -5.924624,3.838555 1.553673,1.696769 c 0.155829,0.170183 0.144268,0.432652 -0.0259,0.588481 l -1.696769,1.553666 c -0.17019,0.155836 -0.432659,0.144274 -0.588488,-0.0259 l -1.553666,-1.696768 c -0.155836,-0.170183 -0.144268,-0.432652 0.0259,-0.588481 l 1.696769,-1.553666 c 0.170183,-0.155837 0.432659,-0.144276 0.588481,0.0259 z m 8.391394,-2.3e-5 -1.553674,1.696756 c -0.1558,0.170226 -0.144268,0.432659 0.0259,0.588488 l 1.696754,1.553674 c 0.170226,0.155792 0.432659,0.144266 0.588488,-0.0259 l 1.553674,-1.696763 c 0.1558,-0.170226 0.144268,-0.432658 -0.0259,-0.588481 l -1.696755,-1.553673 c -0.170226,-0.155801 -0.432658,-0.144275 -0.588487,0.0259 z m 0,-11.201993 -1.553674,1.696754 c -0.1558,0.170226 -0.144275,0.43266 0.0259,0.588481 l 1.696754,1.553681 c 0.170226,0.155793 0.432659,0.144268 0.588488,-0.0259 l 1.553674,-1.696762 c 0.1558,-0.170226 0.144268,-0.432659 -0.0259,-0.58848 l -1.696761,-1.55368 c -0.170219,-0.155794 -0.432652,-0.144269 -0.588481,0.0259 z m -6.749725,5.364121 c 0.53129,-0.544537 1.578532,-1.152617 2.567427,-1.152624 0.988886,0 2.052052,0.608079 2.583328,1.152624 0.515778,0.5158 0.842173,1.29857 0.84218,1.991107 -7e-6,0.692538 -0.326395,1.491245 -0.84218,2.007023 -0.531261,0.544552 -1.594449,1.152609 -2.586519,1.152624 -0.992077,0 -2.055236,-0.608079 -2.586519,-1.152624 -0.515785,-0.515771 -0.842173,-1.314485 -0.84218,-1.989515 0,-0.675022 0.348685,-1.492829 0.864463,-2.008615 z m -1.30741,5.044744 c 0.444314,0.285127 1.820273,1.146133 3.917507,1.146133 2.080659,-0.0051 3.404752,-0.860991 3.849066,-1.14612 0.4443,-0.285127 1.986614,-1.347265 1.986629,-3.032474 2.1e-5,-1.689708 -1.542293,-2.774405 -1.9866,-3.059519 -0.444314,-0.285128 -1.835408,-1.08628 -3.935876,-1.08628 -2.100467,0 -3.386419,0.766129 -3.830726,1.051257 -0.444307,0.285122 -1.988206,1.385734 -1.988206,3.053145 0,1.667418 1.543899,2.788737 1.988206,3.073858 z m -0.334237,-10.408851 1.553666,1.696769 c 0.155836,0.170183 0.144268,0.432652 -0.0259,0.588481 l -1.696769,1.553667 c -0.170182,0.155835 -0.432659,0.144274 -0.58848,-0.0259 l -1.553674,-1.69677 c -0.155829,-0.170182 -0.144268,-0.43265 0.0259,-0.58848 l 1.696769,-1.553666 c 0.170182,-0.155836 0.432651,-0.144275 0.58848,0.0259 z"
         style="display:inline;opacity:1;vector-effect:none;fill:url(#linearGradient5867);fill-opacity:1;fill-rule:evenodd;stroke:none;stroke-width:0.30268517;stroke-linecap:butt;stroke-linejoin:miter;stroke-miterlimit:4;stroke-dasharray:none;stroke-dashoffset:87.46364594;stroke-opacity:1;paint-order:normal"
         id="path5789" />
      <path
         clip-path="url(#clipPath5880)"
         inkscape:connector-curvature="0"
         id="rect5871"
         d="m 136.33586,143.31325 c -0.0749,0 -0.13539,0.0605 -0.13539,0.13539 v 35.2764 c 0,0.0749 0.0605,0.13539 0.13539,0.13539 h 36.02468 c 0.0749,0 0.13539,-0.0605 0.13539,-0.13539 v -35.2764 c 0,-0.0749 -0.0605,-0.13539 -0.13539,-0.13539 z m 10.86704,6.689 c 0.14703,0.006 0.29176,0.0689 0.39946,0.18655 l 2.14767,2.34559 c 0.2154,0.23523 0.19904,0.598 -0.0362,0.81339 l -2.34508,2.14767 c -0.23523,0.2154 -0.59801,0.19905 -0.81339,-0.0362 l -2.14767,-2.34508 c -0.21539,-0.23523 -0.19955,-0.59799 0.0357,-0.81338 l 2.34559,-2.14768 c 0.11762,-0.10769 0.26691,-0.15736 0.41393,-0.15089 z m 12.39718,0 c 0.14701,-0.006 0.2968,0.0432 0.41444,0.15089 l 2.34508,2.14768 c 0.23521,0.21538 0.25152,0.57809 0.0362,0.81338 l -2.14767,2.34508 c -0.21539,0.23521 -0.5781,0.251 -0.81339,0.0357 l -2.34559,-2.14716 c -0.23522,-0.21538 -0.25101,-0.5781 -0.0357,-0.81339 l 2.14767,-2.34559 c 0.1077,-0.1176 0.25193,-0.18008 0.39895,-0.18655 z m -6.24097,4.65191 c 2.90331,0 4.82636,1.10761 5.4405,1.50172 0.61413,0.39409 2.7456,1.89313 2.74557,4.22868 -2e-5,2.32933 -2.13145,3.79788 -2.74557,4.19199 -0.61414,0.39411 -2.44468,1.57689 -5.32061,1.58389 -2.89884,0 -4.80051,-1.18978 -5.41465,-1.58389 -0.61413,-0.3941 -2.74816,-1.94409 -2.74816,-4.24883 0,-2.30473 2.13403,-3.82632 2.74816,-4.22042 0.61412,-0.39411 2.39145,-1.45314 5.29476,-1.45314 z m 0.061,1.35599 c -1.36687,1e-5 -2.81426,0.84052 -3.54862,1.59319 -0.71292,0.71292 -1.19476,1.84354 -1.19476,2.77657 1e-5,0.93304 0.45082,2.03679 1.16375,2.7497 0.73435,0.75268 2.20423,1.59319 3.5755,1.59319 1.37126,-2e-5 2.84065,-0.8405 3.57497,-1.59319 0.71293,-0.71292 1.16426,-1.81675 1.16427,-2.77399 -1e-5,-0.95724 -0.45135,-2.03933 -1.16427,-2.75228 -0.73434,-0.75268 -2.20398,-1.59319 -3.57084,-1.59319 z m 0.0811,2.06654 a 2.2901838,2.2901838 0 0 1 2.2903,2.2903 2.2901838,2.2901838 0 0 1 -2.2903,2.2903 2.2901838,2.2901838 0 0 1 -2.2903,-2.2903 2.2901838,2.2901838 0 0 1 2.2903,-2.2903 z m -6.29832,7.40885 c 0.14703,0.006 0.29177,0.0695 0.39946,0.18707 l 2.14767,2.34508 c 0.21539,0.23523 0.19904,0.59851 -0.0362,0.8139 l -2.34508,2.14716 c -0.23524,0.2154 -0.598,0.19956 -0.81339,-0.0357 l -2.14767,-2.34559 c -0.2154,-0.23523 -0.19955,-0.598 0.0357,-0.81339 l 2.34559,-2.14716 c 0.11762,-0.1077 0.2669,-0.15788 0.41393,-0.15141 z m 12.39718,0 c 0.14702,-0.006 0.29679,0.0437 0.41444,0.15141 l 2.34508,2.14716 c 0.23521,0.21538 0.25152,0.5781 0.0362,0.81339 l -2.14767,2.34559 c -0.21539,0.23521 -0.5781,0.251 -0.81339,0.0357 l -2.34559,-2.14768 c -0.23521,-0.21539 -0.25101,-0.57809 -0.0357,-0.81338 l 2.14767,-2.34508 c 0.1077,-0.11761 0.25192,-0.1806 0.39895,-0.18707 z"
         style="display:inline;opacity:1;vector-effect:none;fill:#000000;fill-opacity:0.78431373;fill-rule:evenodd;stroke:none;stroke-width:0.4183777;stroke-linecap:butt;stroke-linejoin:miter;stroke-miterlimit:4;stroke-dasharray:none;stroke-dashoffset:330.57125854;stroke-opacity:1;paint-order:normal;filter:url(#filter861)"
         transform="matrix(0.72347336,0,0,0.72347336,-62.218797,-51.962087)" />
      <path
         sodipodi:nodetypes="ccccccccccccccccccccccccccccccccccscccccccccccccccccccccccccccccccccccccc"
         inkscape:connector-curvature="0"
         id="path5892"
         d="m 42.223819,58.290014 c -0.111381,0.156704 -0.102793,0.374133 0.03253,0.521916 l 1.553784,1.6966 c 0.155821,0.170175 0.418281,0.182006 0.588464,0.02617 l 1.6966,-1.553785 c 0.156564,-0.143373 0.177128,-0.376111 0.05832,-0.545094 -0.01683,0.0236 -0.03605,0.04615 -0.05832,0.06654 l -1.6966,1.553785 c -0.170183,0.155836 -0.432643,0.144004 -0.588464,-0.02617 l -1.553784,-1.696595 c -0.0125,-0.01367 -0.02217,-0.02862 -0.03253,-0.04337 z m 13.078927,0 c -0.01035,0.01474 -0.02002,0.02971 -0.03253,0.04337 l -1.553786,1.6966 c -0.155828,0.170168 -0.418237,0.18159 -0.588464,0.0258 l -1.69697,-1.553417 c -0.02227,-0.02039 -0.04113,-0.04295 -0.05795,-0.06654 -0.118784,0.169012 -0.09862,0.401729 0.05795,0.545094 l 1.696973,1.553785 c 0.170227,0.155792 0.432636,0.143996 0.588464,-0.02617 l 1.553786,-1.6966 c 0.135293,-0.14782 0.143901,-0.365224 0.03253,-0.521916 z m -6.526192,2.138509 c -0.988894,7e-6 -2.036044,0.60809 -2.567333,1.152627 -0.515778,0.515784 -0.864377,1.333754 -0.864377,2.008777 2e-6,0.07998 0.0053,0.161734 0.0142,0.244508 0.0678,-0.622376 0.392632,-1.317193 0.850171,-1.774738 0.531289,-0.544537 1.578439,-1.152619 2.567332,-1.152627 0.988886,0 2.052132,0.608083 2.583409,1.152627 0.457259,0.457279 0.764383,1.124266 0.828486,1.752306 0.0082,-0.08076 0.01384,-0.161053 0.01384,-0.239648 -6e-6,-0.692538 -0.32654,-1.475405 -0.842318,-1.991205 -0.531276,-0.544545 -1.594523,-1.152627 -2.583408,-1.152627 z m -5.849121,3.362917 c -0.0071,0.07871 -0.01384,0.157835 -0.01384,0.239274 0,1.667418 1.543909,2.788799 1.988215,3.073919 0.444315,0.285129 1.820127,1.145898 3.917359,1.145898 2.08066,-0.0051 3.405004,-0.860769 3.849318,-1.145898 0.444299,-0.285128 1.986333,-1.347213 1.986346,-3.032419 2e-6,-0.08179 -0.0065,-0.161093 -0.01346,-0.240023 -0.136074,1.546042 -1.550072,2.522554 -1.972888,2.793894 -0.444314,0.285129 -1.768657,1.140835 -3.849316,1.145898 -2.097233,0 -3.473046,-0.860769 -3.91736,-1.145898 -0.422605,-0.271194 -1.836933,-1.300062 -1.974381,-2.834645 z m 7.545348,0.02692 c -0.117981,0.813908 -0.815118,1.418091 -1.637531,1.419192 -0.821432,-9.41e-4 -1.518206,-0.603483 -1.63753,-1.416202 -0.01219,0.07869 -0.01868,0.158154 -0.01944,0.237779 -4.7e-5,0.915138 0.741833,1.657016 1.65697,1.65697 0.915138,4.6e-5 1.657017,-0.741832 1.656971,-1.65697 -5.74e-4,-0.08062 -0.0071,-0.161093 -0.01944,-0.240769 z m -8.248589,5.673402 c -0.111688,0.156734 -0.10329,0.37438 0.03215,0.52229 l 1.553784,1.6966 c 0.155828,0.170176 0.418273,0.181634 0.588464,0.0258 l 1.6966,-1.553409 c 0.156564,-0.143373 0.143285,-0.583373 0.134459,-0.790425 -0.0062,0.194907 -0.112189,0.291483 -0.134459,0.311877 l -1.6966,1.55341 c -0.170191,0.155836 -0.432636,0.144378 -0.588464,-0.0258 L 42.256342,69.53513 c -0.01246,-0.01361 -0.02183,-0.02868 -0.03215,-0.04336 z m 13.078181,0 c -0.01032,0.01468 -0.0197,0.02976 -0.03215,0.04336 l -1.553786,1.696975 c -0.155828,0.17017 -0.418237,0.18159 -0.588464,0.0258 l -1.696974,-1.55378 c -0.02232,-0.02044 -0.04148,-0.04252 -0.05833,-0.06618 -0.11857,0.168993 -0.09816,0.401801 0.05833,0.545097 l 1.696973,1.55341 c 0.170227,0.155792 0.432636,0.144372 0.588464,-0.0258 l 1.553786,-1.6966 c 0.135409,-0.147949 0.143833,-0.365568 0.03215,-0.52229 z"
         style="display:inline;opacity:0.25;vector-effect:none;fill:#ffffff;fill-opacity:1;fill-rule:evenodd;stroke:none;stroke-width:0.30268517;stroke-linecap:butt;stroke-linejoin:miter;stroke-miterlimit:4;stroke-dasharray:none;stroke-dashoffset:87.46364594;stroke-opacity:1;paint-order:normal;filter:url(#filter853)" />
    </g>
  </g>
</svg>
