<?xml version="1.0" encoding="UTF-8" standalone="no"?>
<!-- Created with Inkscape (http://www.inkscape.org/) -->

<svg
   xmlns:dc="http://purl.org/dc/elements/1.1/"
   xmlns:cc="http://creativecommons.org/ns#"
   xmlns:rdf="http://www.w3.org/1999/02/22-rdf-syntax-ns#"
   xmlns:svg="http://www.w3.org/2000/svg"
   xmlns="http://www.w3.org/2000/svg"
   xmlns:xlink="http://www.w3.org/1999/xlink"
   xmlns:sodipodi="http://sodipodi.sourceforge.net/DTD/sodipodi-0.dtd"
   xmlns:inkscape="http://www.inkscape.org/namespaces/inkscape"
   width="96"
   height="96"
   viewBox="0 0 25.400001 25.400001"
   version="1.1"
   id="svg983"
   inkscape:version="0.92.2 (5c3e80d, 2017-08-06)"
   sodipodi:docname="qx.svg">
  <defs
     id="defs977">
    <clipPath
       clipPathUnits="userSpaceOnUse"
       id="clipPath5560">
      <path
         d="m 113.79956,163.29203 c -0.32852,0 -0.59376,0.26523 -0.59376,0.59376 v 1.20111 h -1.20111 c -0.32851,0 -0.59375,0.26523 -0.59375,0.59375 v 0.80679 c 0,0.32851 0.26523,0.59375 0.59375,0.59375 h 1.20111 v 1.2011 c 0,0.32851 0.26523,0.59375 0.59376,0.59375 h 0.80677 c 0.32852,0 0.59376,-0.26523 0.59376,-0.59375 v -1.2011 h 1.20111 c 0.32852,0 0.59375,-0.26523 0.59375,-0.59375 v -0.80679 c 0,-0.32852 -0.26523,-0.59375 -0.59375,-0.59375 h -1.20111 v -1.20111 c 0,-0.32851 -0.26523,-0.59376 -0.59376,-0.59376 z M 102.77657,148.7881 c -0.32851,0 -0.59375,0.26523 -0.59375,0.59376 v 1.20111 h -1.20111 c -0.32852,0 -0.59376,0.26523 -0.59376,0.59375 v 0.80679 c 1e-5,0.32851 0.26523,0.59375 0.59376,0.59375 h 1.20111 v 1.2011 c 0,0.32851 0.26523,0.59376 0.59375,0.59376 h 0.80678 c 0.32851,0 0.59375,-0.26523 0.59375,-0.59376 v -1.2011 h 1.20111 c 0.32852,0 0.59375,-0.26523 0.59375,-0.59375 v -0.80679 c 0,-0.32852 -0.26523,-0.59375 -0.59375,-0.59375 h -1.20111 v -1.20111 c 0,-0.32851 -0.26523,-0.59376 -0.59375,-0.59376 z m 12.12913,-0.0679 c -0.46707,-0.41956 -1.09395,-0.66113 -1.77084,-0.62487 -1.35395,0.0724 -2.39337,1.22904 -2.32091,2.58276 0.0311,0.57993 -0.0991,1.10952 -0.21572,1.72756 0,0 -0.10981,0.86922 -0.48752,1.28421 -1.04993,1.15334 -1.85985,2.07337 -3.34665,3.73346 -1.53448,1.61611 -2.38593,2.49784 -3.45073,3.63747 -0.38307,0.41004 -1.24061,0.58975 -1.24061,0.58975 -0.60658,0.16621 -1.12393,0.33856 -1.70446,0.35461 -1.355205,0.0368 -2.424003,1.16671 -2.386712,2.52207 0.03684,1.35522 1.164973,2.42241 2.520332,2.38512 0.49664,-0.0739 0.83244,-0.48395 1.00498,-0.34465 0.15275,0.16072 -0.22879,0.52856 -0.26234,1.02954 0.0724,1.35394 1.22731,2.39176 2.58104,2.3193 1.35394,-0.0724 2.39336,-1.22905 2.3209,-2.58276 -0.0311,-0.57993 0.0991,-1.10952 0.21572,-1.72754 0,0 0.10981,-0.86925 0.48756,-1.28422 1.04993,-1.15335 1.85985,-2.07337 3.34665,-3.73346 1.53447,-1.61612 2.38594,-2.49785 3.45074,-3.63748 0.38307,-0.41003 1.2406,-0.58974 1.2406,-0.58974 0.60658,-0.16621 1.12393,-0.33856 1.70446,-0.35461 1.35521,-0.0368 2.42406,-1.16665 2.38671,-2.52207 -0.0368,-1.35522 -1.16491,-2.42247 -2.52034,-2.38512 -0.49663,0.0739 -0.83244,0.48395 -1.00496,0.34466 -0.15275,-0.16073 0.22878,-0.52857 0.26233,-1.02955 -0.036,-0.67696 -0.34325,-1.27473 -0.81023,-1.69437 z m -1.31626,4.74538 c 0.21309,0.19646 0.6701,1.13955 0.31878,1.5205 -0.15897,0.17239 -2.32951,2.45223 -4.57085,4.81033 -2.16921,2.42459 -4.26615,4.77231 -4.42512,4.9447 -0.35132,0.38092 -1.32825,0.002 -1.5413,-0.19484 -0.21308,-0.19647 -0.6701,-1.13956 -0.31877,-1.52052 0.15897,-0.17239 2.32951,-2.45223 4.57084,-4.81032 2.16921,-2.42461 4.26615,-4.77232 4.42512,-4.94471 0.35128,-0.38092 1.32825,-0.002 1.5413,0.19485 z"
         style="opacity:1;vector-effect:none;fill:url(#linearGradient5564);fill-opacity:1;stroke:none;stroke-width:0.41837776;stroke-linecap:butt;stroke-linejoin:miter;stroke-miterlimit:4;stroke-dasharray:none;stroke-dashoffset:87.46364594;stroke-opacity:1;paint-order:normal"
         id="path5562"
         inkscape:connector-curvature="0" />
    </clipPath>
    <radialGradient
       inkscape:collect="always"
       xlink:href="#linearGradient5103"
       id="radialGradient5440"
       gradientUnits="userSpaceOnUse"
       gradientTransform="matrix(2.0256904,5.6374377,-4.8201238,1.7320063,62.317553,-820.67056)"
       cx="149.74358"
       cy="73.055466"
       fx="149.74358"
       fy="73.055466"
       r="4.047379" />
    <linearGradient
       inkscape:collect="always"
       id="linearGradient5103">
      <stop
         style="stop-color:#f9f7f7;stop-opacity:1"
         offset="0"
         id="stop5099" />
      <stop
         id="stop5203"
         offset="0.2258819"
         style="stop-color:#f9ebe7;stop-opacity:1" />
      <stop
         style="stop-color:#646466;stop-opacity:1"
         offset="1"
         id="stop5101" />
    </linearGradient>
    <linearGradient
       inkscape:collect="always"
       xlink:href="#linearGradient5221"
       id="linearGradient5442"
       gradientUnits="userSpaceOnUse"
       x1="21.048168"
       y1="143.71417"
       x2="21.048168"
       y2="170.04021"
       gradientTransform="translate(-0.00324329)" />
    <linearGradient
       id="linearGradient5221"
       inkscape:collect="always">
      <stop
         id="stop5215"
         offset="0"
         style="stop-color:#f4f1f1;stop-opacity:1" />
      <stop
         style="stop-color:#f9ebe7;stop-opacity:1"
         offset="0.2258819"
         id="stop5217" />
      <stop
         id="stop5219"
         offset="1"
         style="stop-color:#646466;stop-opacity:1" />
    </linearGradient>
    <filter
       inkscape:collect="always"
       style="color-interpolation-filters:sRGB"
       id="filter5649"
       x="-0.059999999"
       width="1.12"
       y="-0.059999999"
       height="1.12">
      <feGaussianBlur
         inkscape:collect="always"
         stdDeviation="0.84666662"
         id="feGaussianBlur5651" />
    </filter>
    <linearGradient
       inkscape:collect="always"
       xlink:href="#linearGradient5112"
       id="linearGradient5114"
       x1="150.68288"
       y1="76.019455"
       x2="150.68288"
       y2="75.091949"
       gradientUnits="userSpaceOnUse"
       gradientTransform="matrix(15.812703,0,0,15.812703,-2349.3106,-1133.6274)" />
    <linearGradient
       inkscape:collect="always"
       id="linearGradient5112">
      <stop
         style="stop-color:#525c90;stop-opacity:1"
         offset="0"
         id="stop5108" />
      <stop
         style="stop-color:#262b43;stop-opacity:1"
         offset="1"
         id="stop5110" />
    </linearGradient>
    <clipPath
       clipPathUnits="userSpaceOnUse"
       id="clipPath877">
      <path
         inkscape:connector-curvature="0"
         d="m 33.305304,57.317797 c -1.07957,0 -1.830803,0.751759 -1.830803,1.835378 6.1e-5,0.688715 0.225994,2.325322 0.214923,2.294756 0.172344,0.476147 0.456813,0.726499 0.700481,1.130313 0.251475,-0.382558 0.47105,-0.823649 0.751653,-1.112136 0.79439,-0.816499 1.547792,-1.330077 1.740968,-1.475992 -0.01717,-0.0066 0.101792,-0.163277 0.159207,-0.359343 0.04007,-0.136871 0.07288,-0.282369 0.08983,-0.383218 0.0064,-0.03851 0.0062,-0.0757 0.0068,-0.105845 -0.0055,-1.072219 -0.758468,-1.82398 -1.833078,-1.82398 z m 1.833077,1.823979 c 2e-5,0.0066 0.0011,0.0066 0.0011,0.011 h 0.0022 c 3.3e-5,-0.0066 -0.0031,-0.03191 -0.0035,-0.011 z m 0.0035,0.011 c -4.6e-5,0.011 -10e-4,0.0066 0.0022,0.111346 a 1.952224,1.952224 0 0 1 0.0047,-0.111346 z m -0.259271,0.836942 c 0.0068,0 0.03026,-0.0154 0.09438,-0.07174 -0.0072,0.0066 -0.07871,0.05986 -0.09438,0.07174 z m -1.576036,-6.287316 c -3.009282,0 -5.449195,2.439902 -5.449195,5.449208 8e-5,0.862798 0.03069,2.415565 0.43439,3.530871 0.532441,1.470974 1.367343,2.919107 2.541517,3.945865 1.181856,1.033424 3.929281,1.952753 5.499229,1.9559 0.321598,-0.0066 0.642162,-0.03147 0.959751,-0.08186 -1.087497,-0.511882 -2.118366,-1.773677 -2.3573,-2.550654 -0.106021,-1.68702 1.430905,-2.441861 2.436901,-3.331791 1.216113,-1.075828 1.404499,-2.815617 1.383902,-3.468332 0,-3.009261 -2.439913,-5.449208 -5.449195,-5.449207 z m -0.0011,1.663695 c 2.111191,0 3.785553,1.675489 3.785553,3.786679 a 1.6613305,1.6613305 0 0 0 0.0047,0.05238 c 0.0077,0.240449 -0.211425,1.630906 -0.825567,2.174234 -0.362901,0.321033 -1.04727,0.749736 -1.727323,1.448728 -0.680051,0.699014 -1.353411,1.86678 -1.267916,3.227178 a 1.6613305,1.6613305 0 0 0 0,0.0066 c -0.531292,-0.248899 -1.156575,-0.514567 -1.349767,-0.683456 -0.884895,-0.773787 -1.608392,-1.985145 -2.07074,-3.262474 -0.24504,-0.676943 -0.330834,-2.13709 -0.33091,-2.961093 0,-2.112819 1.670947,-3.786702 3.782144,-3.786702 z"
         style="display:inline;opacity:1;vector-effect:none;fill:url(#linearGradient881);fill-opacity:1;fill-rule:evenodd;stroke:none;stroke-width:0.41837776;stroke-linecap:butt;stroke-linejoin:miter;stroke-miterlimit:4;stroke-dasharray:none;stroke-dashoffset:87.46364594;stroke-opacity:1;paint-order:normal"
         id="path879" />
    </clipPath>
    <linearGradient
       inkscape:collect="always"
       xlink:href="#linearGradient5112"
       id="linearGradient881"
       gradientUnits="userSpaceOnUse"
       gradientTransform="matrix(15.812703,0,0,15.812703,-2349.3106,-1133.6274)"
       x1="150.68288"
       y1="76.019455"
       x2="150.68288"
       y2="75.091949" />
    <filter
       inkscape:collect="always"
       style="color-interpolation-filters:sRGB"
       id="filter895"
       x="-0.024044811"
       width="1.0480896"
       y="-0.023955356"
       height="1.0479107">
      <feGaussianBlur
         inkscape:collect="always"
         stdDeviation="0.25371836"
         id="feGaussianBlur897" />
    </filter>
    <filter
       inkscape:collect="always"
       style="color-interpolation-filters:sRGB"
       id="filter910"
       x="-0.013432022"
       width="1.026864"
       y="-0.010843904"
       height="1.0216878">
      <feGaussianBlur
         inkscape:collect="always"
         stdDeviation="0.23056533"
         id="feGaussianBlur912" />
    </filter>
  </defs>
  <sodipodi:namedview
     id="base"
     pagecolor="#ffffff"
     bordercolor="#666666"
     borderopacity="1.0"
     inkscape:pageopacity="0.0"
     inkscape:pageshadow="2"
     inkscape:zoom="11.2"
     inkscape:cx="48.815617"
     inkscape:cy="23.596201"
     inkscape:document-units="mm"
     inkscape:current-layer="layer1"
     showgrid="false"
     fit-margin-top="0"
     fit-margin-left="0"
     fit-margin-right="0"
     fit-margin-bottom="0"
     units="px"
     inkscape:window-width="1819"
     inkscape:window-height="1057"
     inkscape:window-x="-8"
     inkscape:window-y="-8"
     inkscape:window-maximized="1" />
  <metadata
     id="metadata980">
    <rdf:RDF>
      <cc:Work
         rdf:about="">
        <dc:format>image/svg+xml</dc:format>
        <dc:type
           rdf:resource="http://purl.org/dc/dcmitype/StillImage" />
        <dc:title />
      </cc:Work>
    </rdf:RDF>
  </metadata>
  <g
     inkscape:label="Layer 1"
     inkscape:groupmode="layer"
     id="layer1"
     transform="translate(-20.344192,-47.904613)">
    <g
       id="g1639"
       transform="matrix(0.69789138,0,0,0.69789138,5.873514,23.220408)">
      <g
         transform="translate(18.52594,-106.17593)"
         style="display:inline;fill:#000000;fill-opacity:1;filter:url(#filter5649)"
         id="g5904">
        <circle
           r="16.933332"
           cy="160.51521"
           cx="20.783585"
           id="circle5900"
           style="display:inline;opacity:1;vector-effect:none;fill:#000000;fill-opacity:1;stroke:none;stroke-width:1.27242613;stroke-linecap:butt;stroke-linejoin:miter;stroke-miterlimit:4;stroke-dasharray:none;stroke-dashoffset:87.46364594;stroke-opacity:1;paint-order:normal" />
        <circle
           style="display:inline;opacity:0.5;vector-effect:none;fill:#000000;fill-opacity:1;stroke:none;stroke-width:1.27242613;stroke-linecap:butt;stroke-linejoin:miter;stroke-miterlimit:4;stroke-dasharray:none;stroke-dashoffset:87.46364594;stroke-opacity:1;paint-order:normal"
           id="circle5902"
           cx="20.783585"
           cy="160.51521"
           r="16.933332" />
      </g>
      <g
         style="display:inline;opacity:1"
         transform="translate(18.15219,-106.98851)"
         id="g5438">
        <circle
           r="16.933332"
           cy="160.51521"
           cx="20.783585"
           id="circle5434"
           style="display:inline;opacity:1;vector-effect:none;fill:url(#radialGradient5440);fill-opacity:1;stroke:none;stroke-width:1.27242613;stroke-linecap:butt;stroke-linejoin:miter;stroke-miterlimit:4;stroke-dasharray:none;stroke-dashoffset:87.46364594;stroke-opacity:1;paint-order:normal" />
        <circle
           style="display:inline;opacity:0.5;vector-effect:none;fill:url(#linearGradient5442);fill-opacity:1;stroke:none;stroke-width:1.27242613;stroke-linecap:butt;stroke-linejoin:miter;stroke-miterlimit:4;stroke-dasharray:none;stroke-dashoffset:87.46364594;stroke-opacity:1;paint-order:normal"
           id="circle5436"
           cx="20.780342"
           cy="160.51521"
           r="16.933332" />
      </g>
    </g>
    <path
       id="path3188"
       style="display:inline;opacity:1;vector-effect:none;fill:url(#linearGradient5114);fill-opacity:1;fill-rule:evenodd;stroke:none;stroke-width:0.41837776;stroke-linecap:butt;stroke-linejoin:miter;stroke-miterlimit:4;stroke-dasharray:none;stroke-dashoffset:87.46364594;stroke-opacity:1;paint-order:normal;font-variant-east_asian:normal"
       d="m 33.305304,57.317797 c -1.07957,0 -1.830803,0.751759 -1.830803,1.835378 6.1e-5,0.688715 0.225994,2.325322 0.214923,2.294756 0.172344,0.476147 0.456813,0.726499 0.700481,1.130313 0.251475,-0.382558 0.47105,-0.823649 0.751653,-1.112136 0.79439,-0.816499 1.547792,-1.330077 1.740968,-1.475992 -0.01717,-0.0066 0.101792,-0.163277 0.159207,-0.359343 0.04007,-0.136871 0.07288,-0.282369 0.08983,-0.383218 0.0064,-0.03851 0.0062,-0.0757 0.0068,-0.105845 -0.0055,-1.072219 -0.758468,-1.82398 -1.833078,-1.82398 z m 1.833077,1.823979 c 2e-5,0.0066 0.0011,0.0066 0.0011,0.011 h 0.0022 c 3.3e-5,-0.0066 -0.0031,-0.03191 -0.0035,-0.011 z m 0.0035,0.011 c -4.7e-5,0.011 -10e-4,0.0066 0.0022,0.111346 a 1.952224,1.952224 0 0 1 0.0047,-0.111346 z m -0.259271,0.836942 c 0.0068,0 0.03026,-0.0154 0.09438,-0.07174 -0.0072,0.0066 -0.07871,0.05986 -0.09438,0.07174 z m -1.576036,-6.287315 c -3.009282,0 -5.449195,2.439902 -5.449195,5.449208 8e-5,0.862798 0.03069,2.415565 0.43439,3.530871 0.532441,1.470974 1.367343,2.919107 2.541517,3.945865 1.181856,1.033424 3.929281,1.952753 5.499229,1.9559 0.321598,-0.0066 0.642162,-0.03147 0.959751,-0.08186 -1.087497,-0.511882 -2.118366,-1.773677 -2.3573,-2.550654 -0.106021,-1.68702 1.430905,-2.441861 2.436901,-3.331791 1.216113,-1.075828 1.404499,-2.815617 1.383902,-3.468332 0,-3.009261 -2.439913,-5.449208 -5.449195,-5.449207 z m -0.0011,1.663695 c 2.111191,0 3.785553,1.675489 3.785553,3.786679 a 1.6613305,1.6613305 0 0 0 0.0047,0.05238 c 0.0077,0.240449 -0.211424,1.630906 -0.825567,2.174234 -0.362901,0.321033 -1.04727,0.749736 -1.727323,1.448728 -0.680051,0.699014 -1.353411,1.86678 -1.267915,3.227178 a 1.6613305,1.6613305 0 0 0 0,0.0066 c -0.531293,-0.248899 -1.156576,-0.514567 -1.349768,-0.683456 -0.884895,-0.773787 -1.608392,-1.985145 -2.07074,-3.262474 -0.24504,-0.676943 -0.330834,-2.13709 -0.330909,-2.961093 0,-2.112819 1.670946,-3.786702 3.782143,-3.786702 z"
       inkscape:connector-curvature="0" />
    <path
       style="opacity:1;vector-effect:none;fill:#000000;fill-opacity:0.78431373;fill-rule:evenodd;stroke:none;stroke-width:0.4183777;stroke-linecap:butt;stroke-linejoin:miter;stroke-miterlimit:4;stroke-dasharray:none;stroke-dashoffset:330.57125854;stroke-opacity:1;paint-order:normal;filter:url(#filter895)"
       d="m 20.43876,48.168975 v 25.41912 h 25.324552 v -25.41912 z m 12.867948,5.816699 c 3.009282,-1e-6 5.44928,2.440019 5.44928,5.449279 0.0206,0.652716 -0.167782,2.392695 -1.383895,3.468523 -1.005996,0.88993 -2.543082,1.644559 -2.437061,3.331579 0.238934,0.776977 1.269982,2.038867 2.357479,2.550749 -0.317589,0.05039 -0.63855,0.07556 -0.960148,0.08216 -1.569948,-0.0031 -4.317033,-0.922528 -5.498889,-1.955953 -1.174174,-1.026757 -2.009006,-2.475038 -2.541447,-3.946012 -0.4037,-1.115306 -0.434519,-2.668252 -0.434599,-3.531051 0,-3.009305 2.439998,-5.449279 5.44928,-5.449279 z m -10e-4,1.663981 v 0.0021 c -2.111197,0 -3.782199,1.67403 -3.782199,3.786849 7.6e-5,0.824003 0.08569,2.284117 0.33073,2.96106 0.462348,1.277329 1.186296,2.488546 2.071191,3.262333 0.193192,0.168889 0.817979,0.434263 1.349272,0.683162 a 1.6613305,1.6613305 0 0 1 0,-0.0062 c -0.0855,-1.360398 0.588088,-2.528179 1.268139,-3.227193 0.680053,-0.698992 1.364642,-1.127975 1.727543,-1.449008 0.614144,-0.543327 0.832973,-1.933578 0.825273,-2.174027 a 1.6613305,1.6613305 0 0 1 -0.0047,-0.05219 c 0,-2.11119 -1.674107,-3.786849 -3.785298,-3.786849 z m -5.17e-4,1.951302 c 1.07461,0 1.827463,0.751959 1.832963,1.824178 h 5.17e-4 c 3e-6,0.0012 -6e-5,0.0012 0,0.0021 9.75e-4,-0.0053 0.0031,0.0039 0.0031,0.0093 h 0.0072 a 1.952224,1.952224 0 0 0 -0.0047,0.111104 c -0.0032,-0.104746 -0.0026,-0.100104 -0.0026,-0.111104 h -0.0021 c 0,-0.0036 -7.61e-4,-0.0055 -10e-4,-0.0093 -2.12e-4,0.0012 -4.46e-4,-0.0058 -5.17e-4,-0.0021 -6e-4,0.03015 -3.18e-4,0.06743 -0.0067,0.105937 -0.01695,0.100849 -0.04985,0.246568 -0.08992,0.383439 -0.05741,0.196066 -0.176334,0.352551 -0.159163,0.359151 -0.193176,0.145915 -0.94659,0.65938 -1.740979,1.475879 -0.280603,0.288487 -0.499901,0.729519 -0.751376,1.112077 -0.243668,-0.403814 -0.528388,-0.654017 -0.700732,-1.130164 0.01107,0.03057 -0.214913,-1.606235 -0.214974,-2.29495 0,-1.083619 0.751326,-1.83503 1.830896,-1.83503 z"
       id="rect868"
       inkscape:connector-curvature="0"
       clip-path="url(#clipPath877)" />
    <path
       style="display:inline;opacity:0.25;vector-effect:none;fill:#feffff;fill-opacity:1;fill-rule:evenodd;stroke:none;stroke-width:1.58127022;stroke-linecap:butt;stroke-linejoin:miter;stroke-miterlimit:4;stroke-dasharray:none;stroke-dashoffset:87.46364594;stroke-opacity:1;paint-order:normal;filter:url(#filter910)"
       d="m 48.988281,28.201172 v 0.0078 c -7.979327,0 -14.294922,6.327043 -14.294922,14.3125 1.9e-5,0.207176 0.01461,0.491874 0.01758,0.71875 0.184155,-7.81696 6.416762,-13.960937 14.277343,-13.960937 v -0.0078 c 7.872296,0 14.124387,6.16821 14.291016,13.996094 0.02615,-0.245757 0.03696,-0.439385 0.0332,-0.55664 -0.0069,-0.06566 -0.01276,-0.131422 -0.01758,-0.197266 0,-7.979301 -6.327336,-14.3125 -14.306641,-14.3125 z m 6.894531,14.691406 c -0.06486,0.380389 -0.184802,0.918161 -0.333984,1.427734 -0.217001,0.741037 -0.666457,1.332477 -0.601562,1.357422 -0.730114,0.55149 -3.57766,2.492145 -6.580078,5.578125 -1.060547,1.090345 -1.889388,2.757237 -2.839844,4.203125 -0.92095,-1.526226 -1.997059,-2.471873 -2.648438,-4.271484 0.03899,0.107653 -0.69191,-5.222697 -0.792968,-8.060547 -0.0081,0.152109 -0.01953,0.303156 -0.01953,0.458985 2.31e-4,2.603017 0.854343,8.7874 0.8125,8.671874 0.651379,1.799611 1.727488,2.747212 2.648438,4.273438 0.950456,-1.445889 1.779297,-3.11278 2.839844,-4.203125 3.002418,-3.08598 5.849964,-5.028588 6.580078,-5.580078 -0.06489,-0.02495 0.384561,-0.616385 0.601562,-1.357422 0.151446,-0.517308 0.275781,-1.066104 0.339844,-1.447266 0.02419,-0.145549 0.02312,-0.286456 0.02539,-0.40039 -0.0011,-0.220801 -0.0136,-0.437045 -0.03125,-0.650391 z m 0.03125,0.650391 c 2.81e-4,-0.01468 0.0011,0.01201 0.002,0.0078 -2.46e-4,-0.0032 1.4e-5,-0.0031 0,-0.0078 z m 0.002,0.0078 c 0.0011,0.0138 0.0039,0.01971 0.0039,0.0332 h 0.0078 c 1.02e-4,-0.02031 -0.008,-0.05161 -0.01172,-0.0332 z m 0.01172,0.0332 c -1.77e-4,0.04158 -0.0023,0.02598 0.0098,0.421875 0.0018,-0.140764 0.0077,-0.281446 0.01758,-0.421875 z M 28.40625,43.197266 c -0.0023,0.127736 -0.0098,0.254518 -0.0098,0.382812 3.03e-4,3.260969 0.116783,9.12842 1.642578,13.34375 2.012376,5.559587 5.167646,11.033402 9.605469,14.914063 4.466858,3.905854 14.849542,7.380684 20.783203,7.392578 1.215489,-0.02495 2.42857,-0.118144 3.628907,-0.308594 -0.0092,-0.486243 -0.03639,-0.564654 -9.27e-4,-1.072023 -0.635307,0.157776 -2.941508,0.296216 -3.62798,0.310304 -5.933661,-0.01189 -16.316345,-3.486723 -20.783203,-7.392578 -4.437823,-3.88066 -7.593093,-9.354476 -9.605469,-14.914062 -1.434133,-3.962095 -1.615105,-9.31114 -1.632812,-12.65625 z m 41.171875,0.0039 c -0.05993,2.829784 -0.984728,8.668682 -5.220703,12.416016 -3.778869,3.342884 -9.53379,6.184289 -9.210938,12.478515 0.339459,-5.558999 5.652853,-8.260629 9.210938,-11.408203 4.596332,-4.066122 5.308316,-10.640468 5.230469,-13.107422 0,-0.126984 -0.0075,-0.252468 -0.0098,-0.378906 z m -14.273437,3.27539 c -0.02721,0.02494 -0.296244,0.226584 -0.355469,0.271485 0.0257,0 0.113125,-0.05855 0.355469,-0.271485 z m -6.44336,21.777344 c -0.0045,0.11996 -0.0122,0.238478 -0.01367,0.359375 0.0079,0.0037 0.01556,0.008 0.02344,0.01172 -1.5e-5,-0.0078 -1.5e-5,-0.01563 0,-0.02344 -0.0074,-0.116973 -0.0053,-0.231448 -0.0098,-0.347656 z"
       transform="matrix(0.26458333,0,0,0.26458333,20.344192,47.904613)"
       id="path901"
       inkscape:connector-curvature="0"
       sodipodi:nodetypes="ccccccccccccccccccccccccccccccccccccccccccccccccccccccccscccccc" />
  </g>
</svg>
