<?xml version="1.0" encoding="UTF-8" standalone="no"?>
<!-- Created with Inkscape (http://www.inkscape.org/) -->

<svg
   xmlns:dc="http://purl.org/dc/elements/1.1/"
   xmlns:cc="http://creativecommons.org/ns#"
   xmlns:rdf="http://www.w3.org/1999/02/22-rdf-syntax-ns#"
   xmlns:svg="http://www.w3.org/2000/svg"
   xmlns="http://www.w3.org/2000/svg"
   xmlns:xlink="http://www.w3.org/1999/xlink"
   xmlns:sodipodi="http://sodipodi.sourceforge.net/DTD/sodipodi-0.dtd"
   xmlns:inkscape="http://www.inkscape.org/namespaces/inkscape"
   width="96"
   height="96"
   viewBox="0 0 25.400001 25.400001"
   version="1.1"
   id="svg983"
   inkscape:version="0.92.2 (5c3e80d, 2017-08-06)"
   sodipodi:docname="ld.svg">
  <defs
     id="defs977">
    <clipPath
       clipPathUnits="userSpaceOnUse"
       id="clipPath5560">
      <path
         d="m 113.79956,163.29203 c -0.32852,0 -0.59376,0.26523 -0.59376,0.59376 v 1.20111 h -1.20111 c -0.32851,0 -0.59375,0.26523 -0.59375,0.59375 v 0.80679 c 0,0.32851 0.26523,0.59375 0.59375,0.59375 h 1.20111 v 1.2011 c 0,0.32851 0.26523,0.59375 0.59376,0.59375 h 0.80677 c 0.32852,0 0.59376,-0.26523 0.59376,-0.59375 v -1.2011 h 1.20111 c 0.32852,0 0.59375,-0.26523 0.59375,-0.59375 v -0.80679 c 0,-0.32852 -0.26523,-0.59375 -0.59375,-0.59375 h -1.20111 v -1.20111 c 0,-0.32851 -0.26523,-0.59376 -0.59376,-0.59376 z M 102.77657,148.7881 c -0.32851,0 -0.59375,0.26523 -0.59375,0.59376 v 1.20111 h -1.20111 c -0.32852,0 -0.59376,0.26523 -0.59376,0.59375 v 0.80679 c 1e-5,0.32851 0.26523,0.59375 0.59376,0.59375 h 1.20111 v 1.2011 c 0,0.32851 0.26523,0.59376 0.59375,0.59376 h 0.80678 c 0.32851,0 0.59375,-0.26523 0.59375,-0.59376 v -1.2011 h 1.20111 c 0.32852,0 0.59375,-0.26523 0.59375,-0.59375 v -0.80679 c 0,-0.32852 -0.26523,-0.59375 -0.59375,-0.59375 h -1.20111 v -1.20111 c 0,-0.32851 -0.26523,-0.59376 -0.59375,-0.59376 z m 12.12913,-0.0679 c -0.46707,-0.41956 -1.09395,-0.66113 -1.77084,-0.62487 -1.35395,0.0724 -2.39337,1.22904 -2.32091,2.58276 0.0311,0.57993 -0.0991,1.10952 -0.21572,1.72756 0,0 -0.10981,0.86922 -0.48752,1.28421 -1.04993,1.15334 -1.85985,2.07337 -3.34665,3.73346 -1.53448,1.61611 -2.38593,2.49784 -3.45073,3.63747 -0.38307,0.41004 -1.24061,0.58975 -1.24061,0.58975 -0.60658,0.16621 -1.12393,0.33856 -1.70446,0.35461 -1.355205,0.0368 -2.424003,1.16671 -2.386712,2.52207 0.03684,1.35522 1.164973,2.42241 2.520332,2.38512 0.49664,-0.0739 0.83244,-0.48395 1.00498,-0.34465 0.15275,0.16072 -0.22879,0.52856 -0.26234,1.02954 0.0724,1.35394 1.22731,2.39176 2.58104,2.3193 1.35394,-0.0724 2.39336,-1.22905 2.3209,-2.58276 -0.0311,-0.57993 0.0991,-1.10952 0.21572,-1.72754 0,0 0.10981,-0.86925 0.48756,-1.28422 1.04993,-1.15335 1.85985,-2.07337 3.34665,-3.73346 1.53447,-1.61612 2.38594,-2.49785 3.45074,-3.63748 0.38307,-0.41003 1.2406,-0.58974 1.2406,-0.58974 0.60658,-0.16621 1.12393,-0.33856 1.70446,-0.35461 1.35521,-0.0368 2.42406,-1.16665 2.38671,-2.52207 -0.0368,-1.35522 -1.16491,-2.42247 -2.52034,-2.38512 -0.49663,0.0739 -0.83244,0.48395 -1.00496,0.34466 -0.15275,-0.16073 0.22878,-0.52857 0.26233,-1.02955 -0.036,-0.67696 -0.34325,-1.27473 -0.81023,-1.69437 z m -1.31626,4.74538 c 0.21309,0.19646 0.6701,1.13955 0.31878,1.5205 -0.15897,0.17239 -2.32951,2.45223 -4.57085,4.81033 -2.16921,2.42459 -4.26615,4.77231 -4.42512,4.9447 -0.35132,0.38092 -1.32825,0.002 -1.5413,-0.19484 -0.21308,-0.19647 -0.6701,-1.13956 -0.31877,-1.52052 0.15897,-0.17239 2.32951,-2.45223 4.57084,-4.81032 2.16921,-2.42461 4.26615,-4.77232 4.42512,-4.94471 0.35128,-0.38092 1.32825,-0.002 1.5413,0.19485 z"
         style="opacity:1;vector-effect:none;fill:url(#linearGradient5564);fill-opacity:1;stroke:none;stroke-width:0.41837776;stroke-linecap:butt;stroke-linejoin:miter;stroke-miterlimit:4;stroke-dasharray:none;stroke-dashoffset:87.46364594;stroke-opacity:1;paint-order:normal"
         id="path5562"
         inkscape:connector-curvature="0" />
    </clipPath>
    <radialGradient
       inkscape:collect="always"
       xlink:href="#linearGradient5103"
       id="radialGradient5440"
       gradientUnits="userSpaceOnUse"
       gradientTransform="matrix(2.0256904,5.6374377,-4.8201238,1.7320063,62.317553,-820.67056)"
       cx="149.74358"
       cy="73.055466"
       fx="149.74358"
       fy="73.055466"
       r="4.047379" />
    <linearGradient
       inkscape:collect="always"
       id="linearGradient5103">
      <stop
         style="stop-color:#f9f7f7;stop-opacity:1"
         offset="0"
         id="stop5099" />
      <stop
         id="stop5203"
         offset="0.2258819"
         style="stop-color:#f9ebe7;stop-opacity:1" />
      <stop
         style="stop-color:#646466;stop-opacity:1"
         offset="1"
         id="stop5101" />
    </linearGradient>
    <linearGradient
       inkscape:collect="always"
       xlink:href="#linearGradient5221"
       id="linearGradient5442"
       gradientUnits="userSpaceOnUse"
       x1="21.048168"
       y1="143.71417"
       x2="21.048168"
       y2="170.04021"
       gradientTransform="translate(-0.00324329)" />
    <linearGradient
       id="linearGradient5221"
       inkscape:collect="always">
      <stop
         id="stop5215"
         offset="0"
         style="stop-color:#f4f1f1;stop-opacity:1" />
      <stop
         style="stop-color:#f9ebe7;stop-opacity:1"
         offset="0.2258819"
         id="stop5217" />
      <stop
         id="stop5219"
         offset="1"
         style="stop-color:#646466;stop-opacity:1" />
    </linearGradient>
    <filter
       inkscape:collect="always"
       style="color-interpolation-filters:sRGB"
       id="filter5649"
       x="-0.059999999"
       width="1.12"
       y="-0.059999999"
       height="1.12">
      <feGaussianBlur
         inkscape:collect="always"
         stdDeviation="0.84666662"
         id="feGaussianBlur5651" />
    </filter>
    <linearGradient
       inkscape:collect="always"
       xlink:href="#linearGradient5112"
       id="linearGradient4130"
       gradientUnits="userSpaceOnUse"
       gradientTransform="matrix(2.8967756,0,0,2.8967756,-467.49247,-194.66929)"
       x1="173.05965"
       y1="91.033348"
       x2="173.05965"
       y2="85.228233" />
    <linearGradient
       inkscape:collect="always"
       id="linearGradient5112">
      <stop
         style="stop-color:#525c90;stop-opacity:1"
         offset="0"
         id="stop5108" />
      <stop
         style="stop-color:#262b43;stop-opacity:1"
         offset="1"
         id="stop5110" />
    </linearGradient>
    <clipPath
       clipPathUnits="userSpaceOnUse"
       id="clipPath4143">
      <path
         sodipodi:nodetypes="cccccccccccccccccccccccccccccccccccccccccccccccccccccccccccccccccccccccc"
         inkscape:connector-curvature="0"
         id="path4145"
         d="m 115.91161,203.9927 v 0.0355 c 0.0399,0.029 0.0739,0.0638 0.11334,0.0933 -0.0394,-0.0401 -0.0734,-0.0901 -0.11334,-0.1289 z m 0.11334,0.12891 c 2.10855,2.14879 3.3031,6.12862 3.307,9.11427 -2.7e-4,2.79948 -1.02758,5.35511 -2.71805,7.3252 -0.68079,-0.34939 -1.97566,-1.03993 -2.13355,-1.47571 -0.18107,-0.49964 0.59887,-7.5941 0,-9.1276 -0.47811,-1.22432 -2.28534,-2.13466 -3.0581,-2.48915 -0.75538,-0.34651 -1.80868,-0.33488 -2.48914,0.14224 -0.44349,0.31094 -0.51617,1.02242 -0.36448,1.54238 0.17676,0.60598 0.81639,0.74162 1.16233,1.26902 0.30923,0.47116 0.11379,0.82899 0.5534,1.18234 0.46202,0.37196 1.33344,0.28539 1.50237,0.44893 0.20945,0.20261 0.33942,0.50442 0.1089,0.68229 -0.17763,0.13708 -2.03034,0.0159 -2.76696,0.39339 -1.17951,0.60408 -1.78394,1.56617 -2.59582,2.61359 -0.2417,0.31184 -0.43215,0.91658 -0.5334,1.29792 -0.27394,1.03236 -0.52056,2.2944 -0.006,2.84741 0.51424,0.55286 1.64171,-0.49068 1.64171,-0.49068 l 3.98285,4.52176 c -1.11687,0.37105 -2.30781,0.57992 -3.54925,0.58005 -3.936,-0.005 -8.351078,-2.06935 -10.38996,-5.43611 l -0.0091,0.007 c 1.383805,2.95718 3.86013,5.17839 6.81626,6.2762 l 1.92242,3.41147 0.0622,-2.86474 c 0.73453,0.13869 1.48651,0.2168 2.25134,0.2178 2.3855,-2e-4 4.60418,-0.69369 6.48511,-1.87575 l 2.93586,2.81584 -1.60683,-3.76927 c 2.61786,-2.18123 4.30013,-5.43749 4.38934,-9.08983 l 3.19144,0.0578 -3.34035,-2.2269 c -0.49038,-3.13225 -2.17481,-5.97752 -4.7516,-7.90081 z m -9.70544,1.45126 c -1.07183,0.1065 -2.58829,1.29386 -2.00688,2.26023 0.58137,0.96637 2.23869,3.79228 3.35813,4.44268 0.51436,0.29886 1.7266,-0.30988 1.44903,-1.21124 -0.0904,-0.29304 -1.76527,-2.2006 -1.80462,-2.5047 -0.0822,-0.63614 1.0159,-1.10409 0.85342,-1.72462 -0.18923,-0.72196 -1.10644,-1.33614 -1.84908,-1.26235 z m -2.93586,2.7225 c -0.46052,-0.10708 -1.13091,0.7998 -1.3757,1.32014 -0.32857,0.6981 -0.49767,1.79725 0.0756,2.31357 0.99858,0.89937 2.22778,2.03867 3.29367,2.84029 0.47579,0.35782 0.82844,-0.26368 1.06678,-0.58672 0.26793,-0.36303 0.40253,-1.19135 0.29114,-1.34904 -0.8905,-1.26285 -2.10316,-3.25538 -3.16922,-4.42489 -0.0553,-0.0608 -0.11645,-0.0981 -0.18223,-0.11334 z m -1.5335,4.89606 c -0.35479,-0.0618 -0.81391,0.53478 -1.01121,0.90009 -0.23697,0.43917 -0.41402,1.14156 -0.0622,1.49571 1.08489,1.09237 2.34997,2.17317 3.56926,2.58916 0.24685,0.0842 0.54322,-0.43345 0.68007,-0.65563 0.32341,-0.52531 0.25821,-1.49522 -0.22002,-1.88463 -0.89592,-0.72907 -1.68837,-1.42827 -2.81141,-2.3758 -0.0453,-0.0382 -0.0938,-0.0601 -0.14446,-0.069 z m 7.48078,2.41803 c 0.16531,0.005 0.50569,0.0832 0.61785,0.17113 0.27095,0.21229 -0.22269,2.1379 0.08,2.38246 0.369,0.29817 0.77978,0.4816 0.93121,0.93121 0.16601,0.49273 0.0646,1.00536 -0.3267,1.13122 -0.4858,0.15625 -1.47102,-0.59596 -1.8113,-1.30679 -0.5501,-1.1492 -0.25089,-2.44683 -0.10252,-2.8016 0.17343,-0.35616 0.25828,-0.4455 0.6115,-0.50763 z"
         style="opacity:1;vector-effect:none;fill:url(#linearGradient4147);fill-opacity:1;stroke:none;stroke-width:0.41837776;stroke-linecap:butt;stroke-linejoin:miter;stroke-miterlimit:4;stroke-dasharray:none;stroke-dashoffset:87.46364594;stroke-opacity:1;paint-order:normal" />
    </clipPath>
    <filter
       inkscape:collect="always"
       style="color-interpolation-filters:sRGB"
       id="filter4157"
       x="-0.02346524"
       width="1.0469306"
       y="-0.024559701"
       height="1.0491194">
      <feGaussianBlur
         inkscape:collect="always"
         stdDeviation="0.36949937"
         id="feGaussianBlur4159" />
    </filter>
    <filter
       inkscape:collect="always"
       style="color-interpolation-filters:sRGB"
       id="filter4168"
       x="-0.011618281"
       width="1.0232366"
       y="-0.012407654"
       height="1.0248153">
      <feGaussianBlur
         inkscape:collect="always"
         stdDeviation="0.4838965"
         id="feGaussianBlur4170" />
    </filter>
  </defs>
  <sodipodi:namedview
     id="base"
     pagecolor="#ffffff"
     bordercolor="#666666"
     borderopacity="1.0"
     inkscape:pageopacity="0.0"
     inkscape:pageshadow="2"
     inkscape:zoom="5.6"
     inkscape:cx="20.499109"
     inkscape:cy="46.308816"
     inkscape:document-units="mm"
     inkscape:current-layer="layer1"
     showgrid="false"
     fit-margin-top="0"
     fit-margin-left="0"
     fit-margin-right="0"
     fit-margin-bottom="0"
     units="px"
     inkscape:window-width="1819"
     inkscape:window-height="1057"
     inkscape:window-x="-8"
     inkscape:window-y="-8"
     inkscape:window-maximized="1" />
  <metadata
     id="metadata980">
    <rdf:RDF>
      <cc:Work
         rdf:about="">
        <dc:format>image/svg+xml</dc:format>
        <dc:type
           rdf:resource="http://purl.org/dc/dcmitype/StillImage" />
        <dc:title />
      </cc:Work>
    </rdf:RDF>
  </metadata>
  <g
     inkscape:label="Layer 1"
     inkscape:groupmode="layer"
     id="layer1"
     transform="translate(-20.344192,-47.904613)">
    <g
       id="g1639"
       transform="matrix(0.69789138,0,0,0.69789138,5.873514,23.220408)">
      <g
         transform="translate(18.52594,-106.17593)"
         style="display:inline;fill:#000000;fill-opacity:1;filter:url(#filter5649)"
         id="g5904">
        <circle
           r="16.933332"
           cy="160.51521"
           cx="20.783585"
           id="circle5900"
           style="display:inline;opacity:1;vector-effect:none;fill:#000000;fill-opacity:1;stroke:none;stroke-width:1.27242613;stroke-linecap:butt;stroke-linejoin:miter;stroke-miterlimit:4;stroke-dasharray:none;stroke-dashoffset:87.46364594;stroke-opacity:1;paint-order:normal" />
        <circle
           style="display:inline;opacity:0.5;vector-effect:none;fill:#000000;fill-opacity:1;stroke:none;stroke-width:1.27242613;stroke-linecap:butt;stroke-linejoin:miter;stroke-miterlimit:4;stroke-dasharray:none;stroke-dashoffset:87.46364594;stroke-opacity:1;paint-order:normal"
           id="circle5902"
           cx="20.783585"
           cy="160.51521"
           r="16.933332" />
      </g>
      <g
         style="display:inline;opacity:1"
         transform="translate(18.15219,-106.98851)"
         id="g5438">
        <circle
           r="16.933332"
           cy="160.51521"
           cx="20.783585"
           id="circle5434"
           style="display:inline;opacity:1;vector-effect:none;fill:url(#radialGradient5440);fill-opacity:1;stroke:none;stroke-width:1.27242613;stroke-linecap:butt;stroke-linejoin:miter;stroke-miterlimit:4;stroke-dasharray:none;stroke-dashoffset:87.46364594;stroke-opacity:1;paint-order:normal" />
        <circle
           style="display:inline;opacity:0.5;vector-effect:none;fill:url(#linearGradient5442);fill-opacity:1;stroke:none;stroke-width:1.27242613;stroke-linecap:butt;stroke-linejoin:miter;stroke-miterlimit:4;stroke-dasharray:none;stroke-dashoffset:87.46364594;stroke-opacity:1;paint-order:normal"
           id="circle5436"
           cx="20.780342"
           cy="160.51521"
           r="16.933332" />
      </g>
    </g>
    <path
       style="opacity:1;vector-effect:none;fill:url(#linearGradient4130);fill-opacity:1;stroke:none;stroke-width:0.28967756;stroke-linecap:butt;stroke-linejoin:miter;stroke-miterlimit:4;stroke-dasharray:none;stroke-dashoffset:87.46364594;stroke-opacity:1;paint-order:normal"
       d="m 37.207785,51.72723 v 0.02458 c 0.02763,0.02008 0.05117,0.04417 0.07847,0.0646 -0.02728,-0.02777 -0.05082,-0.06238 -0.07847,-0.08925 z m 0.07847,0.08926 c 1.459924,1.487785 2.287009,4.243351 2.28971,6.310564 -2.01e-4,1.938311 -0.711479,3.707786 -1.881931,5.071842 -0.471368,-0.241911 -1.367913,-0.72003 -1.477234,-1.021756 -0.125369,-0.345942 0.414648,-5.258024 0,-6.319793 -0.331035,-0.847698 -1.58233,-1.478002 -2.117376,-1.723445 -0.523012,-0.239918 -1.252298,-0.231865 -1.723437,0.09849 -0.307065,0.215289 -0.357388,0.707906 -0.25236,1.067917 0.122386,0.41957 0.565254,0.513485 0.804777,0.878648 0.214106,0.326223 0.07879,0.573978 0.383165,0.818631 0.319895,0.257539 0.923251,0.1976 1.040215,0.310832 0.14502,0.140284 0.235009,0.349252 0.0754,0.472406 -0.122988,0.09491 -1.405773,0.01101 -1.915796,0.272376 -0.816672,0.418255 -1.235169,1.084389 -1.797301,1.809605 -0.167349,0.215913 -0.299213,0.634624 -0.369317,0.898657 -0.189671,0.714789 -0.360427,1.588604 -0.0042,1.971498 0.356051,0.382791 1.136691,-0.339738 1.136691,-0.339738 l 2.757657,3.130789 c -0.773301,0.256908 -1.597888,0.401526 -2.457439,0.401616 -2.725219,-0.0035 -5.782145,-1.432782 -7.193831,-3.763869 l -0.0063,0.0048 c 0.958123,2.0475 2.672689,3.585428 4.719463,4.345533 l 1.33105,2.362043 0.04307,-1.983497 c 0.508576,0.09603 1.029234,0.150109 1.558789,0.150801 1.65168,-1.38e-4 3.187855,-0.480299 4.490179,-1.298737 l 2.032739,1.949639 -1.112541,-2.609777 c 1.812561,-1.510247 2.977336,-3.764825 3.039103,-6.293642 l 2.209698,0.04002 -2.312801,-1.541867 c -0.33953,-2.168716 -1.505801,-4.138732 -3.289926,-5.470385 z m -6.71988,1.004827 c -0.742117,0.07374 -1.792087,0.895847 -1.389529,1.564945 0.40253,0.669098 1.55003,2.625709 2.325111,3.076035 0.356134,0.206925 1.195468,-0.214556 1.003284,-0.838642 -0.06259,-0.202896 -1.222243,-1.523657 -1.249488,-1.734211 -0.05691,-0.440452 0.703392,-0.764453 0.590893,-1.194097 -0.131019,-0.499873 -0.76608,-0.925121 -1.280271,-0.87403 z m -2.032739,1.885013 c -0.318856,-0.07414 -0.783023,0.553767 -0.952511,0.914042 -0.227496,0.483352 -0.344578,1.244385 0.05234,1.601876 0.6914,0.622708 1.542477,1.41154 2.280481,1.966568 0.329428,0.247748 0.573597,-0.182568 0.73862,-0.406235 0.18551,-0.251356 0.278705,-0.82487 0.20158,-0.934052 -0.616567,-0.874376 -1.456192,-2.253969 -2.194313,-3.063718 -0.03829,-0.0421 -0.08063,-0.06792 -0.126173,-0.07848 z m -1.061769,3.389947 c -0.24565,-0.04279 -0.563537,0.370273 -0.700144,0.623207 -0.164074,0.304074 -0.286661,0.790397 -0.04307,1.035604 0.75116,0.756338 1.627079,1.504665 2.471295,1.79269 0.170914,0.0583 0.376116,-0.300114 0.470868,-0.453947 0.223924,-0.363716 0.178781,-1.035265 -0.152338,-1.304886 -0.620319,-0.504795 -1.168998,-0.988909 -1.946572,-1.644963 -0.03137,-0.02645 -0.06494,-0.04161 -0.100021,-0.04777 z m 5.179563,1.674203 c 0.114458,0.0035 0.350131,0.05761 0.427789,0.118487 0.187601,0.146986 -0.154187,1.480245 0.05539,1.649574 0.255489,0.206448 0.539906,0.333452 0.644754,0.644754 0.114942,0.341158 0.04473,0.696094 -0.226202,0.783237 -0.336359,0.108185 -1.018509,-0.412632 -1.254113,-0.904798 -0.38088,-0.795687 -0.173712,-1.694143 -0.07098,-1.93978 0.12008,-0.246599 0.178829,-0.308457 0.423392,-0.351474 z"
       id="path4039"
       inkscape:connector-curvature="0"
       sodipodi:nodetypes="cccccccccccccccccccccccccccccccccccccccccccccccccccccccccccccccccccccccc" />
    <path
       style="opacity:1;vector-effect:none;fill:#000000;fill-opacity:0.78431373;fill-rule:evenodd;stroke:none;stroke-width:0.4183777;stroke-linecap:butt;stroke-linejoin:miter;stroke-miterlimit:4;stroke-dasharray:none;stroke-dashoffset:330.57125854;stroke-opacity:1;paint-order:normal;filter:url(#filter4157)"
       d="m 91.299336,198.87885 v 36.10787 h 37.792004 v -36.10787 z m 24.612454,5.77536 c 0.0399,0.0388 0.0738,0.0886 0.11317,0.12867 -0.0394,-0.0295 -0.0733,-0.064 -0.11317,-0.093 z m 0.11472,0.13022 c 2.57595,1.92328 4.25981,4.76813 4.7501,7.89978 l 3.34036,2.22674 -3.19153,-0.0574 c -0.0892,3.65234 -1.77154,6.90814 -4.3894,9.08937 l 1.60662,3.76927 -2.93574,-2.81585 c -1.88093,1.18206 -4.09938,1.87566 -6.48488,1.87586 -0.76483,-0.001 -1.51701,-0.0789 -2.25154,-0.21756 l -0.062,2.86443 -1.92236,-3.41117 c -2.95613,-1.09781 -5.432836,-3.31892 -6.816641,-6.2761 l 0.0093,-0.007 c 2.038879,3.36676 6.454061,5.43136 10.390061,5.43636 1.24145,-1.3e-4 2.43227,-0.20928 3.54914,-0.58033 l -3.9827,-4.52169 c 0,0 -1.12752,1.04379 -1.64176,0.49093 -0.51456,-0.55301 -0.26826,-1.81553 0.006,-2.84789 0.10125,-0.38134 0.29212,-0.98575 0.53382,-1.29759 0.81188,-1.04742 1.4162,-2.00972 2.59571,-2.6138 0.73662,-0.37749 2.58912,-0.25618 2.76675,-0.39325 0.23053,-0.17788 0.10093,-0.47952 -0.10852,-0.68213 -0.16893,-0.16354 -1.04073,-0.0771 -1.50275,-0.44907 -0.43961,-0.35335 -0.24422,-0.7112 -0.55345,-1.18236 -0.34594,-0.5274 -0.98544,-0.66319 -1.1622,-1.26917 -0.1517,-0.51996 -0.0792,-1.23109 0.36431,-1.54203 0.68046,-0.47712 1.73388,-0.48913 2.48926,-0.14262 0.77276,0.35449 2.5801,1.26493 3.05821,2.48925 0.59887,1.5335 -0.18107,8.62797 0,9.12761 0.15789,0.43578 1.45293,1.12649 2.13372,1.47588 1.69047,-1.97009 2.71737,-4.52566 2.71766,-7.32514 -0.004,-2.98493 -1.19761,-6.96398 -3.30522,-9.11314 z m -9.56583,1.44384 c 0.71338,0.009 1.53051,0.59182 1.70791,1.26866 0.16248,0.62053 -0.93538,1.0883 -0.85318,1.72444 0.0393,0.3041 1.71414,2.21172 1.80454,2.50476 0.27757,0.90136 -0.93464,1.51015 -1.449,1.21129 -1.11944,-0.65039 -2.77708,-3.47625 -3.35846,-4.44262 -0.5814,-0.96637 0.93529,-2.15382 2.00712,-2.26032 0.0464,-0.005 0.0935,-0.007 0.14107,-0.006 z m -3.16569,2.72025 c 0.0303,-8.9e-4 0.0601,0.002 0.0889,0.008 0.0658,0.0152 0.1266,0.0524 0.1819,0.11317 1.06606,1.16951 2.27881,3.1622 3.16931,4.42505 0.11139,0.15769 -0.023,0.98624 -0.29093,1.34928 -0.23834,0.32303 -0.59133,0.94434 -1.06712,0.58652 -1.06589,-0.80162 -2.29476,-1.94076 -3.29334,-2.84013 -0.57327,-0.51632 -0.40453,-1.61546 -0.076,-2.31356 0.22949,-0.48782 0.83325,-1.31529 1.28726,-1.3286 z m -1.51257,4.90048 c 0.0229,-10e-4 0.0455,2.7e-4 0.0677,0.004 v -5.2e-4 c 0.0507,0.009 0.0994,0.031 0.1447,0.0693 1.12304,0.94753 1.91527,1.6465 2.8112,2.37557 0.47822,0.38941 0.54355,1.35933 0.22014,1.88464 -0.13685,0.22218 -0.43322,0.73997 -0.68006,0.65577 -1.21929,-0.41599 -2.48441,-1.49662 -3.5693,-2.58899 -0.35182,-0.35415 -0.17496,-1.05686 0.062,-1.49603 0.18496,-0.34248 0.60011,-0.88786 0.94361,-0.90382 z m 7.54837,2.42207 c -0.35322,0.0621 -0.4379,0.15131 -0.61133,0.50746 -0.14837,0.35478 -0.44778,1.6527 0.10232,2.8019 0.34028,0.71083 1.32546,1.46263 1.81126,1.30638 0.3913,-0.12586 0.49312,-0.63847 0.32711,-1.1312 -0.15143,-0.44961 -0.56221,-0.63303 -0.93121,-0.93121 -0.30269,-0.24456 0.19085,-2.16999 -0.0801,-2.38228 -0.11216,-0.0879 -0.45274,-0.16605 -0.61805,-0.17105 z"
       id="rect4134"
       inkscape:connector-curvature="0"
       clip-path="url(#clipPath4143)"
       transform="matrix(0.6923828,0,0,0.6923828,-43.04742,-89.513807)" />
    <path
       style="opacity:0.25;vector-effect:none;fill:#ffffff;fill-opacity:1;stroke:none;stroke-width:1.58127022;stroke-linecap:butt;stroke-linejoin:miter;stroke-miterlimit:4;stroke-dasharray:none;stroke-dashoffset:87.46364594;stroke-opacity:1;paint-order:normal;filter:url(#filter4168)"
       d="m 438.0918,773.49609 v 0.13477 c 0.1508,0.10961 0.27867,0.24007 0.42773,0.35156 -0.14891,-0.15156 -0.27678,-0.33968 -0.42773,-0.48633 z m 0.42773,0.48829 c 7.69617,7.84304 12.15779,22.12946 12.46875,33.26367 0.0135,-0.438 0.0293,-0.87512 0.0293,-1.31641 -0.0111,-8.53226 -2.59809,-19.20904 -7.30274,-27.42187 -1.60429,-1.6234 -3.3377,-3.13889 -5.19531,-4.52539 z m -29.99609,9.44726 c -0.9018,1.59113 -3.15385,3.03093 -2.92188,4.82617 0.0213,0.1643 0.19137,0.47514 0.42969,0.85157 0.99098,-1.64386 3.26059,-3.09072 2.79492,-4.86915 -0.072,-0.27469 -0.17845,-0.54439 -0.30273,-0.80859 z m -14.50586,1.57227 c -0.35995,0.99987 -0.35187,2.0334 0.23437,3.00781 2.19731,3.65242 8.46241,14.33281 12.69336,16.79101 1.94404,1.12955 6.52565,-1.17141 5.47657,-4.57812 -0.0141,-0.0458 -0.0932,-0.15874 -0.12696,-0.22461 -0.9197,2.05339 -3.88341,3.15464 -5.34961,2.30273 -4.23095,-2.4582 -10.49605,-13.13859 -12.69336,-16.79101 -0.10057,-0.16716 -0.1661,-0.33763 -0.23437,-0.50781 z m 16.16406,4.80468 c -0.20195,1.05961 -0.12869,2.21469 0.15625,3.19141 0.66807,2.29032 3.08509,2.80355 4.39258,4.79688 1.16874,1.78076 0.43028,3.13325 2.0918,4.46874 1.74621,1.40584 5.04121,1.07917 5.67968,1.69727 0.0558,0.0539 0.0941,0.12035 0.14649,0.17773 0.11729,-0.0291 0.21327,-0.0607 0.26367,-0.0996 0.87126,-0.67227 0.38147,-1.81236 -0.41016,-2.57813 -0.63847,-0.6181 -3.93347,-0.29143 -5.67968,-1.69727 -1.66152,-1.33549 -0.92306,-2.68798 -2.0918,-4.46874 -1.30749,-1.99333 -3.72451,-2.50656 -4.39258,-4.79688 -0.0647,-0.22179 -0.11394,-0.4544 -0.15625,-0.69141 z M 384.5,798.32617 c -0.26177,1.97912 0.0109,3.97966 1.32812,5.16602 3.77417,3.39919 8.41871,7.70463 12.44727,10.73437 1.79826,1.35239 3.13239,-0.99586 4.0332,-2.21679 1.01265,-1.37209 1.52061,-4.50362 1.09961,-5.09961 -0.0156,-0.0222 -0.0351,-0.052 -0.0508,-0.0742 -0.2084,0.98181 -0.5697,2.02464 -1.04883,2.67383 -0.90081,1.22093 -2.23494,3.56918 -4.0332,2.21679 -4.02856,-3.02974 -8.6731,-7.33518 -12.44727,-10.73437 -0.7497,-0.67523 -1.159,-1.61737 -1.32812,-2.66602 z m 49.04102,5.67578 c -0.10183,9.26879 -1.16664,21.07121 -0.91993,23.59766 0.15787,-5.10433 1.00934,-15.76696 0.91993,-23.59766 z m 23.5,5.54297 c -0.33718,13.80412 -6.69557,26.1095 -16.58985,34.35352 l 0.77539,1.82031 c 9.44401,-8.23328 15.4863,-20.23876 15.81446,-33.67383 l 12.0625,0.2168 -3.85352,-2.56836 z m -76.72852,4.25781 c -0.30492,1.30914 -0.26081,2.6731 0.57617,3.51563 4.10037,4.12864 8.8819,8.21291 13.49024,9.78516 0.93297,0.31823 2.05308,-1.63878 2.57031,-2.47852 0.68529,-1.11311 0.89101,-2.74766 0.63672,-4.23438 -0.12082,0.64279 -0.33242,1.2401 -0.63672,1.73438 -0.51723,0.83974 -1.63734,2.79675 -2.57031,2.47852 -4.60834,-1.57225 -9.38987,-5.65652 -13.49024,-9.78516 -0.28178,-0.28365 -0.45705,-0.63576 -0.57617,-1.01563 z m 32.90625,1.09961 c -1.335,0.23483 -1.65506,0.57186 -2.31055,1.91797 -0.3705,0.88591 -0.97004,3.33508 -0.74804,6.14258 0.13722,-1.68213 0.49449,-3.03629 0.74804,-3.64258 0.65549,-1.34611 0.97555,-1.68314 2.31055,-1.91797 0.62479,0.0189 1.91203,0.31415 2.33594,0.64649 0.11509,0.0902 0.18977,0.27225 0.24023,0.50781 0.12108,-1.46713 0.14812,-2.70354 -0.24023,-3.00781 -0.42391,-0.33234 -1.71115,-0.62759 -2.33594,-0.64649 z m 2.32617,8.9375 c -0.11869,1.5279 -0.13267,2.85321 0.3125,3.21289 1.39465,1.12695 2.9472,1.82022 3.51953,3.51954 0.0405,0.12035 0.0656,0.24075 0.0977,0.36132 0.27451,-0.81172 0.24517,-1.84379 -0.0977,-2.86132 -0.57233,-1.69932 -2.12488,-2.39259 -3.51953,-3.51954 -0.15677,-0.12666 -0.25358,-0.38061 -0.3125,-0.71289 z m -16.00195,4.60547 c -0.18301,2.11242 0.0206,4.00919 1.0625,5.12891 1.94358,2.08955 6.20508,-1.85547 6.20508,-1.85547 l 13.32031,15.12305 c 0.58224,-0.16713 1.16025,-0.34312 1.73242,-0.53321 l -15.05273,-17.08984 c 0,0 -4.2615,3.94502 -6.20508,1.85547 -0.6062,-0.6515 -0.93134,-1.56413 -1.0625,-2.62891 z m -30.36328,2.00977 -0.0352,0.0273 c 5.23013,11.17675 14.5909,19.5715 25.76367,23.7207 l 7.26563,12.89258 0.23437,-10.82617 c 2.77618,0.52418 5.61907,0.81849 8.50977,0.82227 9.01606,-7.6e-4 17.40074,-2.62027 24.50976,-7.08789 l 11.09571,10.64257 -1.80469,-4.23242 -9.29102,-8.91211 c -7.10902,4.46763 -15.4937,7.08909 -24.50976,7.08985 -2.8907,-0.004 -5.73359,-0.29809 -8.50977,-0.82227 l -0.23437,10.82617 -7.26563,-12.89258 c -7.19447,-2.67179 -13.63083,-7.11214 -18.70312,-12.91406 -2.76522,-2.463 -5.1598,-5.25337 -7.02539,-8.33398 z"
       transform="matrix(0.18319295,0,0,0.18319295,-43.04742,-89.513807)"
       id="path4163"
       inkscape:connector-curvature="0" />
  </g>
</svg>
