<svg xmlns="http://www.w3.org/2000/svg" xmlns:xlink="http://www.w3.org/1999/xlink" width="96" height="96" viewBox="0 0 25.4 25.4"><defs><radialGradient xlink:href="#a" id="e" gradientUnits="userSpaceOnUse" gradientTransform="matrix(2.02569 5.63744 -4.82012 1.732 62.318 -820.67)" cx="149.744" cy="73.055" fx="149.744" fy="73.055" r="4.047"/><linearGradient id="a"><stop offset="0" stop-color="#f9f7f7"/><stop offset=".226" stop-color="#f9ebe7"/><stop offset="1" stop-color="#646466"/></linearGradient><linearGradient xlink:href="#b" id="f" gradientUnits="userSpaceOnUse" x1="21.048" y1="143.714" x2="21.048" y2="170.04" gradientTransform="translate(-.003)"/><linearGradient id="b"><stop offset="0" stop-color="#f4f1f1"/><stop offset=".226" stop-color="#f9ebe7"/><stop offset="1" stop-color="#646466"/></linearGradient><filter id="d" x="-.06" width="1.12" y="-.06" height="1.12" color-interpolation-filters="sRGB"><feGaussianBlur stdDeviation=".847"/></filter><filter id="j" x="-.01" width="1.02" y="-.015" height="1.03" color-interpolation-filters="sRGB"><feGaussianBlur stdDeviation=".431"/></filter><clipPath id="h"><path d="M59.907 149.47c-.03 1.488-.206 3.177-1.43 4.195-.52.538-1.761.609-2.122.826 1.37.7 2.855 1.284 3.986 2.357.605.663.469 1.637.65 2.459.306 2.28.524 4.575.908 6.844.176.52.704.86 1.016 1.278.313-.419.782-.758.958-1.278.384-2.269.6-4.564.906-6.844.18-.822.047-1.795.652-2.46 1.131-1.072 2.615-1.655 3.986-2.356-.361-.217-1.602-.288-2.123-.826-1.223-1.018-1.4-2.707-1.429-4.194-.2.084-.632.875-.95 1.201-.422.631-1.097.964-1.902.978-.77-.013-1.602-.116-2.027-.817-.368-.372-.839-1.219-1.08-1.362zm10.225 2.312l1.377 3.613s.623 1.846.639 2.728c.008.437-.295 1.278-.295 1.278s-1.109-1.346-1.868-1.72c-.343-.17-1.13-.197-1.13-.197s.946 1.71 1.13 2.654a6.48 6.48 0 0 1-.05 2.703c-.209.885-.421 1.7-.786 2.532-.445 1.017-1.622 3.022-1.622 3.022s2.393-1.437 3.244-2.506c.585-.734 1.18-2.556 1.18-2.556l2.458 2.949s1.355-1.379 1.67-2.261c.653-1.823.658-3.772.197-5.652-.385-1.57-1.16-2.813-2.162-4.08-.634-.8-1.678-1.567-2.605-1.99-.48-.22-1.377-.517-1.377-.517zm-15.3-.066s-2.69 2.34-3.81 3.76a9.576 9.576 0 0 0-1.72 3.54c-.392 1.641-.443 3.48.148 5.062.407 1.09 1.892 2.236 1.892 2.236l2.409-3.588s.74 2.023 1.278 2.95c.617 1.062 1.271 2.157 2.211 2.948.634.534 2.212 1.13 2.212 1.13s-1.253-2.305-1.818-3.489c-.531-1.112-1.236-2.182-1.475-3.391-.31-1.576.098-4.817.098-4.817s-1.207 1.598-2.015 2.163c-.379.265-1.278.54-1.278.54s.14-1.806.295-2.777c.158-.987.345-2.067.64-3.023.33-1.075.933-3.244.933-3.244z" fill="url(#linearGradient5377)" stroke-width=".418" stroke-dashoffset="87.464"/></clipPath><filter id="i" x="-.023" width="1.047" y="-.025" height="1.049" color-interpolation-filters="sRGB"><feGaussianBlur stdDeviation=".366"/></filter><linearGradient xlink:href="#c" id="g" gradientUnits="userSpaceOnUse" gradientTransform="matrix(4.18378 0 0 4.18378 -639.042 -240.622)" x1="161.598" y1="76.874" x2="161.615" y2="72.088"/><linearGradient id="c"><stop offset="0" stop-color="#525c90"/><stop offset="1" stop-color="#262b43"/></linearGradient></defs><g transform="matrix(.6979 0 0 .6979 -1.542 -98.783)" filter="url(#d)"><circle r="16.933" cy="160.515" cx="20.784"/><circle cx="20.784" cy="160.515" r="16.933" opacity=".5"/></g><g transform="matrix(.6979 0 0 .6979 -1.802 -99.35)"><circle r="16.933" cy="160.515" cx="20.784" fill="url(#e)"/><circle cx="20.78" cy="160.515" r="16.933" opacity=".5" fill="url(#f)"/></g><g><path d="M33.885 60.724c-.03 1.487-.205 3.176-1.429 4.194-.52.538-1.761.609-2.122.826 1.37.7 2.854 1.284 3.986 2.357.605.663.469 1.637.65 2.459.306 2.28.523 4.575.907 6.844.176.52.704.86 1.017 1.277.313-.418.782-.757.958-1.277.384-2.269.6-4.564.906-6.844.18-.822.046-1.796.651-2.46 1.132-1.072 2.616-1.655 3.986-2.356-.36-.217-1.602-.288-2.122-.826-1.223-1.018-1.4-2.707-1.43-4.194-.2.084-.631.875-.948 1.201-.423.631-1.099.964-1.903.978-.77-.013-1.602-.116-2.027-.817-.368-.372-.839-1.219-1.08-1.362zm10.226 2.311l1.376 3.613s.623 1.846.64 2.728c.007.437-.296 1.278-.296 1.278s-1.108-1.346-1.867-1.72c-.343-.17-1.13-.197-1.13-.197s.946 1.71 1.13 2.654a6.48 6.48 0 0 1-.05 2.703c-.21.884-.422 1.7-.786 2.532-.445 1.017-1.622 3.022-1.622 3.022s2.393-1.437 3.244-2.506c.585-.734 1.18-2.556 1.18-2.556l2.457 2.949s1.356-1.379 1.671-2.261c.653-1.823.658-3.772.197-5.652-.385-1.57-1.16-2.814-2.163-4.08-.633-.8-1.677-1.567-2.605-1.99-.479-.22-1.376-.517-1.376-.517zm-15.3-.066s-2.69 2.34-3.81 3.76a9.576 9.576 0 0 0-1.72 3.54c-.392 1.641-.443 3.48.148 5.062.407 1.09 1.892 2.236 1.892 2.236l2.408-3.588s.74 2.023 1.278 2.95c.617 1.062 1.272 2.157 2.212 2.948.633.534 2.212 1.13 2.212 1.13s-1.254-2.305-1.819-3.489c-.53-1.112-1.236-2.182-1.474-3.391-.311-1.576.098-4.817.098-4.817s-1.208 1.598-2.015 2.163c-.38.265-1.278.54-1.278.54s.14-1.806.295-2.777c.158-.987.345-2.067.639-3.023.33-1.075.934-3.244.934-3.244z" fill="url(#g)" transform="matrix(.63788 0 0 .63788 -10.499 -32.263)"/><path clip-path="url(#h)" d="M44.153 142.378v35.827H81.57v-35.827zm15.754 7.754c.24.144.711.991 1.08 1.363.424.7 1.256.804 2.026.816.805-.014 1.48-.346 1.903-.978.317-.325.749-1.116.95-1.2.03 1.486.205 3.176 1.429 4.194.52.537 1.76.608 2.121.825-1.37.701-2.854 1.285-3.985 2.357-.605.664-.471 1.637-.652 2.459-.307 2.28-.522 4.576-.906 6.845-.176.52-.645.859-.958 1.277-.313-.418-.84-.757-1.016-1.277-.384-2.27-.602-4.564-.908-6.845-.181-.822-.045-1.795-.65-2.459-1.132-1.072-2.615-1.656-3.986-2.357.36-.217 1.602-.288 2.123-.825 1.223-1.018 1.4-2.708 1.429-4.195zm-5.075 2.246s-.603 2.169-.934 3.244c-.294.956-.481 2.035-.639 3.023-.155.97-.295 2.777-.295 2.777s.9-.276 1.278-.54c.808-.566 2.016-2.163 2.016-2.163s-.41 3.24-.1 4.816c.24 1.21.945 2.28 1.476 3.392.565 1.184 1.818 3.49 1.818 3.49s-1.578-.598-2.212-1.131c-.94-.792-1.594-1.887-2.211-2.95-.538-.926-1.278-2.948-1.278-2.948l-2.409 3.588s-1.485-1.146-1.892-2.237c-.591-1.581-.54-3.42-.148-5.062a9.578 9.578 0 0 1 1.72-3.54c1.12-1.42 3.81-3.76 3.81-3.76zm15.3.066s.898.297 1.377.516c.928.423 1.972 1.191 2.605 1.99 1.003 1.267 1.778 2.51 2.162 4.08.462 1.88.456 3.83-.196 5.652-.316.883-1.672 2.261-1.672 2.261l-2.457-2.949s-.595 1.822-1.18 2.556c-.851 1.069-3.244 2.507-3.244 2.507s1.177-2.005 1.622-3.023c.365-.832.577-1.647.787-2.531a6.48 6.48 0 0 0 .049-2.704c-.184-.943-1.13-2.654-1.13-2.654s.787.028 1.13.197c.759.375 1.867 1.72 1.867 1.72s.304-.84.296-1.277c-.016-.883-.64-2.728-.64-2.728z" transform="matrix(.63788 0 0 .63788 -27.097 -88.873)" fill-opacity=".784" filter="url(#i)"/><path transform="translate(3.991 6.471) scale(.16877)" d="M23.035 10.986l-.935.829c-.776 2.754-1.795 6.337-2.594 8.933-1.111 3.612-1.818 7.692-2.414 11.424-.586 3.669-1.115 10.496-1.115 10.496l.224-.078c.2-2.294.5-5.47.891-7.918.596-3.732 1.303-7.812 2.414-11.424 1.25-4.065 3.53-12.262 3.53-12.262zm57.829.25l5.203 13.655s1.822 5.408 2.298 8.976c.072-.423.122-.83.116-1.166-.06-3.334-2.414-10.31-2.414-10.31L81.96 11.617c-.437-.15-1.097-.38-1.097-.38zm-52.07 7.737c-1.333.332.584 2.148 0 2.5 5.18 2.648 10.786 4.854 15.064 8.908 2.286 2.509 1.771 6.187 2.455 9.293 1.159 8.62 1.98 17.293 3.431 25.87.665 1.965 2.66 3.246 3.842 4.827 1.182-1.58 2.956-2.862 3.621-4.828 1.452-8.576 2.265-17.25 3.424-25.87.683-3.105.177-6.783 2.463-9.292 4.277-4.054 9.884-6.26 15.064-8.908-.585-.352 1.335-2.168.001-2.5-4.224 2.05-11.644 5.665-15.065 8.908-2.286 2.509-1.78 6.187-2.463 9.293-1.159 8.62-1.972 17.293-3.424 25.87-.665 1.965-2.439 3.246-3.62 4.827-1.183-1.581-3.178-2.862-3.843-4.828-1.451-8.576-2.272-17.25-3.431-25.87-.684-3.105-.169-6.783-2.455-9.292-3.421-3.243-10.84-6.858-15.065-8.908zm47.241 13.812s3.578 6.464 4.272 10.032c.219 1.125.351 2.275.41 3.431.1-1.99-.034-3.997-.41-5.931-.419-2.151-1.835-5.223-2.934-7.428a29.44 29.44 0 0 0-1.338-.104zm-47.61 2.166l-.308.395c-.264 2.762-.582 7.014-.482 10.799.086-5.51.79-11.194.79-11.194zm76.847 9.873c-.132 3.446-.747 6.862-1.93 10.168-1.193 3.335-6.316 8.545-6.316 8.545l-9.287-11.146s-2.25 6.886-4.46 9.66c-2.216 2.783-9.376 7.6-12.26 9.475-1.173 2.092-.001 2.5-.001 2.5S80.06 68.59 83.28 64.55c2.21-2.774 4.459-9.66 4.459-9.66l9.287 11.146s5.123-5.21 6.316-8.545c1.469-4.104 2.053-8.38 1.93-12.668zM1.059 46.447c-.14 3.857.316 7.728 1.635 11.26 1.54 4.123 7.152 8.453 7.152 8.453l9.103-13.56s2.797 7.645 4.83 11.146c2.333 4.016 4.808 8.153 8.36 11.145 2.394 2.015 8.36 4.273 8.36 4.273s.753-1.095 0-2.5c-1.944-.817-6.76-2.925-8.36-4.273-3.552-2.992-6.027-7.13-8.36-11.147-2.033-3.501-4.83-11.144-4.83-11.144L9.846 63.66s-5.613-4.33-7.152-8.453c-1.034-2.768-1.528-5.745-1.635-8.76z" opacity=".25" fill="#fff" filter="url(#j)"/></g></svg>