<svg xmlns="http://www.w3.org/2000/svg" xmlns:xlink="http://www.w3.org/1999/xlink" width="96" height="96" viewBox="0 0 25.4 25.4"><defs><radialGradient xlink:href="#a" id="f" gradientUnits="userSpaceOnUse" gradientTransform="matrix(1.41371 3.93432 -3.36392 1.20875 62.033 -624.185)" cx="149.744" cy="73.055" fx="149.744" fy="73.055" r="4.047"/><linearGradient id="a"><stop offset="0" stop-color="#f9f7f7"/><stop offset=".226" stop-color="#f9ebe7"/><stop offset="1" stop-color="#646466"/></linearGradient><linearGradient xlink:href="#b" id="g" gradientUnits="userSpaceOnUse" x1="21.048" y1="143.714" x2="21.048" y2="170.04" gradientTransform="matrix(.6979 0 0 .6979 18.54 -51.446)"/><linearGradient id="b"><stop offset="0" stop-color="#f4f1f1"/><stop offset=".226" stop-color="#f9ebe7"/><stop offset="1" stop-color="#646466"/></linearGradient><filter id="e" x="-.06" width="1.12" y="-.06" height="1.12" color-interpolation-filters="sRGB"><feGaussianBlur stdDeviation=".847"/></filter><linearGradient id="d"><stop offset="0" stop-color="#525c90"/><stop offset="1" stop-color="#262b43"/></linearGradient><linearGradient xlink:href="#d" id="c" gradientUnits="userSpaceOnUse" gradientTransform="matrix(15.8127 0 0 15.8127 -2349.31 -1133.627)" x1="150.679" y1="76.084" x2="150.679" y2="75.03"/><filter id="k" x="-.011" width="1.022" y="-.013" height="1.027" color-interpolation-filters="sRGB"><feGaussianBlur stdDeviation=".11"/></filter><clipPath id="i"><path d="M22.073 161.302c3.134-.355 5.995-2.157 7.633-4.852 1.638-2.696 1.815-6.418.686-9.363 0 0-7.132 2.468-7.521 2.704-.468.282.8 1.824.8 1.824s.954 1.05.534 1.729c-.446.723-1.756.47-1.756.47s-1.768-.224-1.962.021c-.215.271 1.586 7.467 1.586 7.467zm-6.054.049c-3.134-.354-5.995-2.156-7.633-4.852s-1.815-6.418-.686-9.363c0 0 7.132 2.468 7.521 2.704.468.283-.8 1.824-.8 1.824s-.954 1.05-.534 1.73c.447.722 1.757.469 1.757.469s1.767-.224 1.962.022c.214.27-1.587 7.466-1.587 7.466zm-4.862-19.295c1.933-2.493 5.158-4.049 8.312-4.046 3.154.003 6.425 1.787 8.353 4.283 0 0-5.816 4.808-6.22 5.018-.485.252-1.142-1.631-1.142-1.631s-.4-1.362-1.2-1.356c-.85.005-1.314 1.256-1.314 1.256s-.728 1.626-1.039 1.664c-.343.043-5.75-5.188-5.75-5.188z" fill="url(#linearGradient5164)" stroke-width=".418" stroke-dashoffset="87.464"/></clipPath><filter id="j" x="-.024" width="1.047" y="-.024" height="1.049" color-interpolation-filters="sRGB"><feGaussianBlur stdDeviation=".367"/></filter><linearGradient xlink:href="#d" id="h" x1="151.511" y1="77.253" x2="151.449" y2="71.724" gradientUnits="userSpaceOnUse" gradientTransform="matrix(4.18378 0 0 4.18378 -577.563 -246.455)"/></defs><g transform="translate(-20.344 -47.905)"><circle r="16.933" cy="160.515" cx="20.784" transform="matrix(.6979 0 0 .6979 18.803 -50.879)" filter="url(#e)"/><circle cx="20.784" cy="160.515" r="16.933" transform="matrix(.6979 0 0 .6979 18.803 -50.879)" opacity=".5" filter="url(#e)"/><circle r="11.818" cy="60.576" cx="33.046" fill="url(#f)"/><circle cx="33.044" cy="60.576" r="11.818" opacity=".5" fill="url(#g)"/><path d="M59.119 76.776c3.134-.355 5.995-2.157 7.633-4.852 1.638-2.696 1.815-6.418.685-9.363 0 0-7.131 2.468-7.52 2.704-.468.283.8 1.824.8 1.824s.954 1.05.534 1.73c-.447.722-1.757.469-1.757.469s-1.767-.224-1.962.022c-.214.27 1.587 7.466 1.587 7.466zm-6.054.05c-3.134-.355-5.996-2.157-7.633-4.853-1.638-2.695-1.816-6.418-.686-9.363 0 0 7.131 2.468 7.52 2.704.468.283-.799 1.824-.799 1.824s-.954 1.05-.534 1.73c.446.723 1.756.47 1.756.47s1.767-.224 1.962.021c.215.27-1.586 7.466-1.586 7.466zM48.203 57.53c1.932-2.492 5.157-4.049 8.311-4.046 3.154.003 6.426 1.787 8.354 4.284 0 0-5.817 4.807-6.22 5.017-.485.253-1.142-1.631-1.142-1.631s-.401-1.361-1.2-1.356c-.85.005-1.314 1.256-1.314 1.256s-.728 1.626-1.04 1.665c-.342.042-5.75-5.189-5.75-5.189z" fill="url(#h)" transform="matrix(.73734 0 0 .73734 -8.313 12.093)"/><path transform="matrix(.73734 0 0 .73734 19.002 -50.23)" clip-path="url(#i)" d="M1.497 133.578v36.202h37.137v-36.202zm17.972 5.368c3.154.003 6.426 1.786 8.354 4.283 0 0-5.817 4.808-6.221 5.018-.485.252-1.142-1.632-1.142-1.632s-.4-1.361-1.2-1.356c-.849.005-1.314 1.256-1.314 1.256s-.728 1.626-1.039 1.665c-.343.042-5.75-5.189-5.75-5.189 1.933-2.492 5.157-4.048 8.312-4.045zm10.923 9.076c1.13 2.945.952 6.667-.686 9.363-1.638 2.695-4.499 4.498-7.633 4.852 0 0-1.801-7.195-1.586-7.466.194-.245 1.962-.022 1.962-.022s1.31.254 1.756-.47c.42-.679-.534-1.73-.534-1.73s-1.267-1.54-.8-1.823c.39-.236 7.52-2.704 7.52-2.704zm-22.692.05s7.132 2.468 7.521 2.703c.468.283-.8 1.825-.8 1.825s-.954 1.05-.534 1.729c.447.723 1.756.47 1.756.47s1.768-.224 1.963.021c.214.27-1.587 7.466-1.587 7.466-3.134-.354-5.995-2.156-7.633-4.852-1.638-2.695-1.815-6.417-.686-9.362z" fill-opacity=".784" filter="url(#j)"/><path d="M48.638 57.948c-.15.168-.297.34-.435.518 0 0 5.406 5.23 5.75 5.188.31-.039 1.039-1.664 1.039-1.664s.465-1.252 1.314-1.257c.799-.005 1.2 1.356 1.2 1.356s.657 1.884 1.141 1.632c.404-.21 6.221-5.018 6.221-5.018-.146-.19-.303-.374-.464-.555-.778.642-5.384 4.444-5.757 4.637-.484.253-1.142-1.632-1.142-1.632s-.4-1.36-1.199-1.356c-.85.005-1.314 1.257-1.314 1.257s-.729 1.625-1.04 1.664c-.299.037-4.258-3.753-5.314-4.77zm11.423 8.191c-.038.017-.128.051-.144.061-.468.283.8 1.824.8 1.824s.332.372.518.815l.016-.02c.42-.68-.535-1.73-.535-1.73s-.387-.478-.655-.95zm-7.939.05c-.267.471-.655.95-.655.95s-.954 1.049-.534 1.728c.004.008.01.014.016.021.185-.442.518-.815.518-.815s1.267-1.54.8-1.824c-.016-.01-.106-.044-.145-.06zm16.023.808c-.064 1.752-.518 3.486-1.393 4.926-1.638 2.696-4.5 4.498-7.633 4.853 0 0-1.152-4.603-1.503-6.582a.204.204 0 0 0-.084.05c-.214.272 1.587 7.467 1.587 7.467 3.134-.354 5.995-2.156 7.633-4.852 1.03-1.697 1.482-3.801 1.393-5.862zm-24.108.052c-.087 2.06.364 4.163 1.395 5.86 1.637 2.695 4.499 4.497 7.633 4.852 0 0 1.8-7.196 1.586-7.467a.205.205 0 0 0-.084-.051c-.35 1.979-1.502 6.582-1.502 6.582-3.134-.355-5.996-2.157-7.633-4.852-.875-1.44-1.33-3.173-1.395-4.924z" fill="#fff" fill-opacity=".098" filter="url(#k)" transform="matrix(.73734 0 0 .73734 -8.313 12.093)"/></g></svg>