<svg xmlns="http://www.w3.org/2000/svg" xmlns:xlink="http://www.w3.org/1999/xlink" width="96" height="96" viewBox="0 0 25.4 25.4"><defs><radialGradient xlink:href="#a" id="e" gradientUnits="userSpaceOnUse" gradientTransform="matrix(2.02569 5.63744 -4.82012 1.732 62.318 -820.67)" cx="149.744" cy="73.055" fx="149.744" fy="73.055" r="4.047"/><linearGradient id="a"><stop offset="0" stop-color="#f9f7f7"/><stop offset=".226" stop-color="#f9ebe7"/><stop offset="1" stop-color="#646466"/></linearGradient><linearGradient xlink:href="#b" id="f" gradientUnits="userSpaceOnUse" x1="21.048" y1="143.714" x2="21.048" y2="170.04" gradientTransform="translate(-.003)"/><linearGradient id="b"><stop offset="0" stop-color="#f4f1f1"/><stop offset=".226" stop-color="#f9ebe7"/><stop offset="1" stop-color="#646466"/></linearGradient><filter id="d" x="-.06" width="1.12" y="-.06" height="1.12" color-interpolation-filters="sRGB"><feGaussianBlur stdDeviation=".847"/></filter><linearGradient xlink:href="#c" id="g" gradientUnits="userSpaceOnUse" gradientTransform="translate(-505.723 -161.84) scale(3.02685)" x1="183.302" y1="77.049" x2="183.302" y2="72.06"/><linearGradient id="c"><stop offset="0" stop-color="#525c90"/><stop offset="1" stop-color="#262b43"/></linearGradient><clipPath id="h"><path d="M155.791 159.705a2.29 2.29 0 0 1-2.29 2.29 2.29 2.29 0 0 1-2.29-2.29 2.29 2.29 0 0 1 2.29-2.29 2.29 2.29 0 0 1 2.29 2.29zm-8.189 5.306l2.148 2.345c.215.236.2.598-.036.814l-2.345 2.147a.574.574 0 0 1-.814-.035l-2.147-2.346a.574.574 0 0 1 .036-.813l2.345-2.148a.574.574 0 0 1 .813.036zm11.599 0l-2.147 2.345a.575.575 0 0 0 .035.814l2.346 2.147c.235.216.598.2.813-.035l2.148-2.346a.575.575 0 0 0-.036-.813l-2.346-2.148a.575.575 0 0 0-.813.036zm0-15.484l-2.147 2.346a.575.575 0 0 0 .035.813l2.346 2.148c.235.215.598.2.813-.036l2.148-2.345a.575.575 0 0 0-.036-.814l-2.346-2.147a.575.575 0 0 0-.813.035zm-9.33 7.415c.735-.753 2.182-1.593 3.55-1.593 1.366 0 2.836.84 3.57 1.593.713.713 1.164 1.795 1.164 2.752 0 .957-.451 2.061-1.164 2.774-.734.753-2.204 1.593-3.575 1.593-1.372 0-2.841-.84-3.575-1.593-.713-.713-1.164-1.817-1.164-2.75s.481-2.063 1.194-2.776zm-1.807 6.973c.614.394 2.516 1.584 5.415 1.584 2.876-.007 4.706-1.19 5.32-1.584.615-.394 2.746-1.862 2.746-4.192 0-2.335-2.131-3.835-2.746-4.229-.614-.394-2.536-1.501-5.44-1.501-2.903 0-4.68 1.059-5.295 1.453-.614.394-2.748 1.915-2.748 4.22 0 2.305 2.134 3.855 2.748 4.249zm-.462-14.388l2.148 2.346c.215.235.2.598-.036.813l-2.345 2.148a.574.574 0 0 1-.814-.036l-2.147-2.345a.574.574 0 0 1 .036-.814l2.345-2.147a.574.574 0 0 1 .813.035z" fill="url(#linearGradient5884)" fill-rule="evenodd" stroke-width=".418" stroke-dashoffset="87.464"/></clipPath><filter id="i" x="-.024" width="1.048" y="-.024" height="1.049" color-interpolation-filters="sRGB"><feGaussianBlur stdDeviation=".359"/></filter><filter id="j" x="-.012" width="1.024" y="-.012" height="1.024" color-interpolation-filters="sRGB"><feGaussianBlur stdDeviation=".067"/></filter></defs><g transform="translate(-1.542 -98.783) scale(.6979)" filter="url(#d)"><circle r="16.933" cy="160.515" cx="20.784"/><circle cx="20.784" cy="160.515" r="16.933" opacity=".5"/></g><g transform="translate(-1.802 -99.35) scale(.6979)"><circle r="16.933" cy="160.515" cx="20.784" fill="url(#e)"/><circle cx="20.78" cy="160.515" r="16.933" opacity=".5" fill="url(#f)"/></g><g fill-rule="evenodd"><path d="M50.492 63.58a1.657 1.657 0 0 1-1.657 1.657 1.657 1.657 0 0 1-1.657-1.656 1.657 1.657 0 0 1 1.657-1.657 1.657 1.657 0 0 1 1.657 1.657zm-5.924 3.84l1.553 1.696a.416.416 0 0 1-.026.588L44.4 71.258a.416.416 0 0 1-.589-.026l-1.554-1.697a.416.416 0 0 1 .026-.588l1.697-1.554a.416.416 0 0 1 .589.026zm8.39-.001l-1.553 1.697a.416.416 0 0 0 .026.588l1.697 1.554c.17.156.433.144.588-.026l1.554-1.697a.416.416 0 0 0-.026-.588l-1.697-1.554a.416.416 0 0 0-.588.026zm0-11.202l-1.553 1.697a.416.416 0 0 0 .026.588l1.697 1.554c.17.156.433.144.588-.026l1.554-1.697a.416.416 0 0 0-.026-.588l-1.697-1.554a.416.416 0 0 0-.588.026zm-6.749 5.364c.531-.544 1.579-1.152 2.568-1.152.988 0 2.052.608 2.583 1.152.516.516.842 1.299.842 1.991 0 .693-.326 1.492-.842 2.007-.531.545-1.595 1.153-2.587 1.153-.992 0-2.055-.608-2.586-1.153-.516-.515-.842-1.314-.842-1.99 0-.674.348-1.492.864-2.008zm-1.307 5.045a7.111 7.111 0 0 0 3.917 1.146c2.08-.005 3.405-.86 3.85-1.146.444-.285 1.986-1.347 1.986-3.033 0-1.69-1.542-2.774-1.987-3.06-.444-.284-1.835-1.085-3.935-1.085-2.101 0-3.387.766-3.831 1.05-.445.286-1.988 1.387-1.988 3.054 0 1.667 1.543 2.789 1.988 3.074zm-.334-10.409l1.553 1.697a.416.416 0 0 1-.026.588L44.4 60.056a.416.416 0 0 1-.589-.026l-1.554-1.697a.416.416 0 0 1 .026-.588l1.697-1.554a.416.416 0 0 1 .589.026z" fill="url(#g)" transform="translate(-35.8 -50.805)"/><path clip-path="url(#h)" d="M136.336 143.313a.135.135 0 0 0-.136.136v35.276c0 .075.061.135.136.135h36.025c.074 0 .135-.06.135-.135v-35.276a.135.135 0 0 0-.135-.136zm10.867 6.69a.572.572 0 0 1 .4.186l2.147 2.345a.574.574 0 0 1-.036.814l-2.345 2.147a.574.574 0 0 1-.814-.036l-2.147-2.345a.574.574 0 0 1 .035-.813l2.346-2.148a.573.573 0 0 1 .414-.15zm12.397 0a.577.577 0 0 1 .415.15l2.345 2.148a.575.575 0 0 1 .036.813l-2.148 2.345a.575.575 0 0 1-.813.036l-2.346-2.147a.575.575 0 0 1-.036-.814l2.148-2.345a.573.573 0 0 1 .4-.187zm-6.24 4.651c2.902 0 4.825 1.108 5.44 1.502.614.394 2.745 1.893 2.745 4.229 0 2.329-2.131 3.797-2.745 4.192-.615.394-2.445 1.576-5.321 1.583-2.899 0-4.8-1.19-5.415-1.583-.614-.395-2.748-1.945-2.748-4.25 0-2.304 2.134-3.826 2.748-4.22.614-.394 2.392-1.453 5.295-1.453zm.06 1.356c-1.367 0-2.814.84-3.549 1.593-.712.713-1.194 1.844-1.194 2.777s.45 2.037 1.163 2.75c.735.752 2.205 1.593 3.576 1.593s2.84-.84 3.575-1.593c.713-.713 1.164-1.817 1.164-2.774 0-.958-.451-2.04-1.164-2.753-.734-.752-2.204-1.593-3.57-1.593zm.081 2.067a2.29 2.29 0 0 1 2.29 2.29 2.29 2.29 0 0 1-2.29 2.29 2.29 2.29 0 0 1-2.29-2.29 2.29 2.29 0 0 1 2.29-2.29zm-6.298 7.409a.573.573 0 0 1 .4.187l2.147 2.345a.575.575 0 0 1-.036.814l-2.345 2.147a.574.574 0 0 1-.814-.036l-2.147-2.346a.574.574 0 0 1 .035-.813l2.346-2.147a.574.574 0 0 1 .414-.152zm12.397 0a.577.577 0 0 1 .415.15l2.345 2.148a.575.575 0 0 1 .036.814l-2.148 2.345a.575.575 0 0 1-.813.036l-2.346-2.148a.575.575 0 0 1-.036-.813l2.148-2.345a.573.573 0 0 1 .4-.187z" transform="translate(-98.019 -102.768) scale(.72347)" fill-opacity=".784" filter="url(#i)"/><path d="M42.224 58.29a.416.416 0 0 0 .032.522l1.554 1.697c.156.17.418.182.589.026l1.696-1.554a.414.414 0 0 0 .059-.545.422.422 0 0 1-.059.066L44.4 60.056a.416.416 0 0 1-.589-.026l-1.554-1.697c-.012-.013-.022-.028-.032-.043zm13.079 0c-.01.015-.02.03-.033.043l-1.554 1.697a.416.416 0 0 1-.588.026l-1.697-1.554a.419.419 0 0 1-.058-.066.414.414 0 0 0 .058.545l1.697 1.554c.17.155.433.144.588-.026l1.554-1.697a.416.416 0 0 0 .033-.522zm-6.526 2.139c-.99 0-2.036.608-2.568 1.152-.516.516-.864 1.334-.864 2.009 0 .08.005.162.014.244a3.133 3.133 0 0 1 .85-1.774c.532-.545 1.579-1.153 2.568-1.153.988 0 2.052.608 2.583 1.153.457.457.764 1.124.828 1.752a2.16 2.16 0 0 0 .014-.24c0-.692-.326-1.475-.842-1.99-.531-.545-1.595-1.153-2.583-1.153zm-5.85 3.362a2.644 2.644 0 0 0-.013.24c0 1.667 1.544 2.789 1.988 3.074a7.111 7.111 0 0 0 3.917 1.146c2.08-.006 3.405-.861 3.85-1.146.444-.285 1.986-1.348 1.986-3.033a2.71 2.71 0 0 0-.014-.24c-.136 1.546-1.55 2.523-1.973 2.794-.444.285-1.768 1.14-3.849 1.146a7.111 7.111 0 0 1-3.917-1.146c-.423-.271-1.837-1.3-1.975-2.835zm7.546.027a1.657 1.657 0 0 1-1.638 1.42 1.657 1.657 0 0 1-1.637-1.417 1.657 1.657 0 1 0 3.275-.003zm-8.249 5.674a.416.416 0 0 0 .032.522l1.554 1.697c.156.17.418.181.589.025l1.696-1.553c.157-.143.143-.583.135-.79-.007.195-.113.291-.135.311L44.4 71.258a.416.416 0 0 1-.589-.026l-1.554-1.697c-.012-.013-.021-.029-.032-.043zm13.078 0c-.01.014-.02.03-.032.043l-1.554 1.697a.416.416 0 0 1-.588.026l-1.697-1.554a.417.417 0 0 1-.058-.066.414.414 0 0 0 .058.545l1.697 1.553c.17.156.433.145.588-.025l1.554-1.697a.416.416 0 0 0 .032-.522z" opacity=".25" fill="#fff" filter="url(#j)" transform="translate(-35.8 -50.805)"/></g></svg>