<?xml version="1.0" encoding="UTF-8" standalone="no"?>
<!-- Created with Inkscape (http://www.inkscape.org/) -->

<svg
   xmlns:dc="http://purl.org/dc/elements/1.1/"
   xmlns:cc="http://creativecommons.org/ns#"
   xmlns:rdf="http://www.w3.org/1999/02/22-rdf-syntax-ns#"
   xmlns:svg="http://www.w3.org/2000/svg"
   xmlns="http://www.w3.org/2000/svg"
   xmlns:xlink="http://www.w3.org/1999/xlink"
   xmlns:sodipodi="http://sodipodi.sourceforge.net/DTD/sodipodi-0.dtd"
   xmlns:inkscape="http://www.inkscape.org/namespaces/inkscape"
   width="96"
   height="96"
   viewBox="0 0 25.400001 25.400001"
   version="1.1"
   id="svg983"
   inkscape:version="0.92.2 (5c3e80d, 2017-08-06)"
   sodipodi:docname="gd.svg">
  <defs
     id="defs977">
    <clipPath
       clipPathUnits="userSpaceOnUse"
       id="clipPath5560">
      <path
         d="m 113.79956,163.29203 c -0.32852,0 -0.59376,0.26523 -0.59376,0.59376 v 1.20111 h -1.20111 c -0.32851,0 -0.59375,0.26523 -0.59375,0.59375 v 0.80679 c 0,0.32851 0.26523,0.59375 0.59375,0.59375 h 1.20111 v 1.2011 c 0,0.32851 0.26523,0.59375 0.59376,0.59375 h 0.80677 c 0.32852,0 0.59376,-0.26523 0.59376,-0.59375 v -1.2011 h 1.20111 c 0.32852,0 0.59375,-0.26523 0.59375,-0.59375 v -0.80679 c 0,-0.32852 -0.26523,-0.59375 -0.59375,-0.59375 h -1.20111 v -1.20111 c 0,-0.32851 -0.26523,-0.59376 -0.59376,-0.59376 z M 102.77657,148.7881 c -0.32851,0 -0.59375,0.26523 -0.59375,0.59376 v 1.20111 h -1.20111 c -0.32852,0 -0.59376,0.26523 -0.59376,0.59375 v 0.80679 c 1e-5,0.32851 0.26523,0.59375 0.59376,0.59375 h 1.20111 v 1.2011 c 0,0.32851 0.26523,0.59376 0.59375,0.59376 h 0.80678 c 0.32851,0 0.59375,-0.26523 0.59375,-0.59376 v -1.2011 h 1.20111 c 0.32852,0 0.59375,-0.26523 0.59375,-0.59375 v -0.80679 c 0,-0.32852 -0.26523,-0.59375 -0.59375,-0.59375 h -1.20111 v -1.20111 c 0,-0.32851 -0.26523,-0.59376 -0.59375,-0.59376 z m 12.12913,-0.0679 c -0.46707,-0.41956 -1.09395,-0.66113 -1.77084,-0.62487 -1.35395,0.0724 -2.39337,1.22904 -2.32091,2.58276 0.0311,0.57993 -0.0991,1.10952 -0.21572,1.72756 0,0 -0.10981,0.86922 -0.48752,1.28421 -1.04993,1.15334 -1.85985,2.07337 -3.34665,3.73346 -1.53448,1.61611 -2.38593,2.49784 -3.45073,3.63747 -0.38307,0.41004 -1.24061,0.58975 -1.24061,0.58975 -0.60658,0.16621 -1.12393,0.33856 -1.70446,0.35461 -1.355205,0.0368 -2.424003,1.16671 -2.386712,2.52207 0.03684,1.35522 1.164973,2.42241 2.520332,2.38512 0.49664,-0.0739 0.83244,-0.48395 1.00498,-0.34465 0.15275,0.16072 -0.22879,0.52856 -0.26234,1.02954 0.0724,1.35394 1.22731,2.39176 2.58104,2.3193 1.35394,-0.0724 2.39336,-1.22905 2.3209,-2.58276 -0.0311,-0.57993 0.0991,-1.10952 0.21572,-1.72754 0,0 0.10981,-0.86925 0.48756,-1.28422 1.04993,-1.15335 1.85985,-2.07337 3.34665,-3.73346 1.53447,-1.61612 2.38594,-2.49785 3.45074,-3.63748 0.38307,-0.41003 1.2406,-0.58974 1.2406,-0.58974 0.60658,-0.16621 1.12393,-0.33856 1.70446,-0.35461 1.35521,-0.0368 2.42406,-1.16665 2.38671,-2.52207 -0.0368,-1.35522 -1.16491,-2.42247 -2.52034,-2.38512 -0.49663,0.0739 -0.83244,0.48395 -1.00496,0.34466 -0.15275,-0.16073 0.22878,-0.52857 0.26233,-1.02955 -0.036,-0.67696 -0.34325,-1.27473 -0.81023,-1.69437 z m -1.31626,4.74538 c 0.21309,0.19646 0.6701,1.13955 0.31878,1.5205 -0.15897,0.17239 -2.32951,2.45223 -4.57085,4.81033 -2.16921,2.42459 -4.26615,4.77231 -4.42512,4.9447 -0.35132,0.38092 -1.32825,0.002 -1.5413,-0.19484 -0.21308,-0.19647 -0.6701,-1.13956 -0.31877,-1.52052 0.15897,-0.17239 2.32951,-2.45223 4.57084,-4.81032 2.16921,-2.42461 4.26615,-4.77232 4.42512,-4.94471 0.35128,-0.38092 1.32825,-0.002 1.5413,0.19485 z"
         style="opacity:1;vector-effect:none;fill:url(#linearGradient5564);fill-opacity:1;stroke:none;stroke-width:0.41837776;stroke-linecap:butt;stroke-linejoin:miter;stroke-miterlimit:4;stroke-dasharray:none;stroke-dashoffset:87.46364594;stroke-opacity:1;paint-order:normal"
         id="path5562"
         inkscape:connector-curvature="0" />
    </clipPath>
    <radialGradient
       inkscape:collect="always"
       xlink:href="#linearGradient5103"
       id="radialGradient5440"
       gradientUnits="userSpaceOnUse"
       gradientTransform="matrix(2.0256904,5.6374377,-4.8201238,1.7320063,62.317553,-820.67056)"
       cx="149.74358"
       cy="73.055466"
       fx="149.74358"
       fy="73.055466"
       r="4.047379" />
    <linearGradient
       inkscape:collect="always"
       id="linearGradient5103">
      <stop
         style="stop-color:#f9f7f7;stop-opacity:1"
         offset="0"
         id="stop5099" />
      <stop
         id="stop5203"
         offset="0.2258819"
         style="stop-color:#f9ebe7;stop-opacity:1" />
      <stop
         style="stop-color:#646466;stop-opacity:1"
         offset="1"
         id="stop5101" />
    </linearGradient>
    <linearGradient
       inkscape:collect="always"
       xlink:href="#linearGradient5221"
       id="linearGradient5442"
       gradientUnits="userSpaceOnUse"
       x1="21.048168"
       y1="143.71417"
       x2="21.048168"
       y2="170.04021"
       gradientTransform="translate(-0.00324329)" />
    <linearGradient
       id="linearGradient5221"
       inkscape:collect="always">
      <stop
         id="stop5215"
         offset="0"
         style="stop-color:#f4f1f1;stop-opacity:1" />
      <stop
         style="stop-color:#f9ebe7;stop-opacity:1"
         offset="0.2258819"
         id="stop5217" />
      <stop
         id="stop5219"
         offset="1"
         style="stop-color:#646466;stop-opacity:1" />
    </linearGradient>
    <filter
       inkscape:collect="always"
       style="color-interpolation-filters:sRGB"
       id="filter5649"
       x="-0.059999999"
       width="1.12"
       y="-0.059999999"
       height="1.12">
      <feGaussianBlur
         inkscape:collect="always"
         stdDeviation="0.84666662"
         id="feGaussianBlur5651" />
    </filter>
    <linearGradient
       inkscape:collect="always"
       xlink:href="#linearGradient5112-2"
       id="linearGradient5114"
       x1="150.67749"
       y1="76.07003"
       x2="150.67749"
       y2="75.046745"
       gradientUnits="userSpaceOnUse"
       gradientTransform="matrix(15.812703,0,0,15.812703,-2349.3106,-1133.6274)" />
    <linearGradient
       inkscape:collect="always"
       id="linearGradient5112-2">
      <stop
         style="stop-color:#525c90;stop-opacity:1"
         offset="0"
         id="stop5108-7" />
      <stop
         style="stop-color:#262b43;stop-opacity:1"
         offset="1"
         id="stop5110-0" />
    </linearGradient>
    <clipPath
       clipPathUnits="userSpaceOnUse"
       id="clipPath871">
      <path
         inkscape:connector-curvature="0"
         d="m 33.30785,53.041234 c 0,0 -3.648052,1.289232 -7.331668,3.415966 0,10.991437 7.331668,12.788217 7.331668,12.788217 0,0 7.330553,-1.820317 7.330553,-12.788217 -3.841929,-2.218133 -7.330553,-3.415966 -7.330553,-3.415966 z m 0,1.339366 c 0,0 2.91154,0.999512 6.118358,2.850971 0,9.154795 -6.118358,10.674481 -6.118358,10.674481 0,0 -6.119474,-1.500034 -6.119474,-10.674481 C 30.263064,55.456427 33.30785,54.3806 33.30785,54.3806 Z m -0.543482,1.365898 v 0.806194 h -0.525795 v 0.799189 h 0.515669 v 2.089929 h -2.599358 v 1.057809 h 1.831311 v 4.721172 c 0.43489,0.434911 0.917122,0.896934 1.339778,1.319363 0.429992,-0.431997 0.897925,-0.852463 1.301653,-1.319363 V 60.499619 H 36.4597 V 59.44181 h -2.600121 v -2.089929 h 0.516432 v -0.799189 h -0.525814 v -0.806194 h -0.542904 z"
         style="display:inline;opacity:1;vector-effect:none;fill:url(#linearGradient875);fill-opacity:1;stroke:none;stroke-width:0.41837776;stroke-linecap:butt;stroke-linejoin:miter;stroke-miterlimit:4;stroke-dasharray:none;stroke-dashoffset:87.46364594;stroke-opacity:1;paint-order:normal"
         id="path873" />
    </clipPath>
    <linearGradient
       inkscape:collect="always"
       xlink:href="#linearGradient5112-2"
       id="linearGradient875"
       gradientUnits="userSpaceOnUse"
       gradientTransform="matrix(15.812703,0,0,15.812703,-2349.3106,-1133.6274)"
       x1="150.67749"
       y1="76.07003"
       x2="150.67749"
       y2="75.046745" />
    <filter
       inkscape:collect="always"
       style="color-interpolation-filters:sRGB"
       id="filter889"
       x="-0.024089123"
       width="1.0481782"
       y="-0.023911534"
       height="1.0478231">
      <feGaussianBlur
         inkscape:collect="always"
         stdDeviation="0.25560714"
         id="feGaussianBlur891" />
    </filter>
  </defs>
  <sodipodi:namedview
     id="base"
     pagecolor="#ffffff"
     bordercolor="#666666"
     borderopacity="1.0"
     inkscape:pageopacity="0.0"
     inkscape:pageshadow="2"
     inkscape:zoom="5.6"
     inkscape:cx="37.412535"
     inkscape:cy="51.088985"
     inkscape:document-units="mm"
     inkscape:current-layer="layer1"
     showgrid="false"
     fit-margin-top="0"
     fit-margin-left="0"
     fit-margin-right="0"
     fit-margin-bottom="0"
     units="px"
     inkscape:window-width="1819"
     inkscape:window-height="1057"
     inkscape:window-x="-8"
     inkscape:window-y="-8"
     inkscape:window-maximized="1" />
  <metadata
     id="metadata980">
    <rdf:RDF>
      <cc:Work
         rdf:about="">
        <dc:format>image/svg+xml</dc:format>
        <dc:type
           rdf:resource="http://purl.org/dc/dcmitype/StillImage" />
        <dc:title />
      </cc:Work>
    </rdf:RDF>
  </metadata>
  <g
     inkscape:label="Layer 1"
     inkscape:groupmode="layer"
     id="layer1"
     transform="translate(-20.344192,-47.904613)">
    <g
       id="g1639"
       transform="matrix(0.69789138,0,0,0.69789138,5.873514,23.220408)">
      <g
         transform="translate(18.52594,-106.17593)"
         style="display:inline;fill:#000000;fill-opacity:1;filter:url(#filter5649)"
         id="g5904">
        <circle
           r="16.933332"
           cy="160.51521"
           cx="20.783585"
           id="circle5900"
           style="display:inline;opacity:1;vector-effect:none;fill:#000000;fill-opacity:1;stroke:none;stroke-width:1.27242613;stroke-linecap:butt;stroke-linejoin:miter;stroke-miterlimit:4;stroke-dasharray:none;stroke-dashoffset:87.46364594;stroke-opacity:1;paint-order:normal" />
        <circle
           style="display:inline;opacity:0.5;vector-effect:none;fill:#000000;fill-opacity:1;stroke:none;stroke-width:1.27242613;stroke-linecap:butt;stroke-linejoin:miter;stroke-miterlimit:4;stroke-dasharray:none;stroke-dashoffset:87.46364594;stroke-opacity:1;paint-order:normal"
           id="circle5902"
           cx="20.783585"
           cy="160.51521"
           r="16.933332" />
      </g>
      <g
         style="display:inline;opacity:1"
         transform="translate(18.15219,-106.98851)"
         id="g5438">
        <circle
           r="16.933332"
           cy="160.51521"
           cx="20.783585"
           id="circle5434"
           style="display:inline;opacity:1;vector-effect:none;fill:url(#radialGradient5440);fill-opacity:1;stroke:none;stroke-width:1.27242613;stroke-linecap:butt;stroke-linejoin:miter;stroke-miterlimit:4;stroke-dasharray:none;stroke-dashoffset:87.46364594;stroke-opacity:1;paint-order:normal" />
        <circle
           style="display:inline;opacity:0.5;vector-effect:none;fill:url(#linearGradient5442);fill-opacity:1;stroke:none;stroke-width:1.27242613;stroke-linecap:butt;stroke-linejoin:miter;stroke-miterlimit:4;stroke-dasharray:none;stroke-dashoffset:87.46364594;stroke-opacity:1;paint-order:normal"
           id="circle5436"
           cx="20.780342"
           cy="160.51521"
           r="16.933332" />
      </g>
    </g>
    <path
       id="path3124"
       style="display:inline;opacity:1;vector-effect:none;fill:url(#linearGradient5114);fill-opacity:1;stroke:none;stroke-width:0.41837776;stroke-linecap:butt;stroke-linejoin:miter;stroke-miterlimit:4;stroke-dasharray:none;stroke-dashoffset:87.46364594;stroke-opacity:1;paint-order:normal;font-variant-east_asian:normal"
       d="m 33.30785,53.041234 c 0,0 -3.648052,1.289232 -7.331668,3.415966 0,10.991437 7.331668,12.788217 7.331668,12.788217 0,0 7.330553,-1.820317 7.330553,-12.788217 -3.841929,-2.218133 -7.330553,-3.415966 -7.330553,-3.415966 z m 0,1.339366 c 0,0 2.91154,0.999512 6.118358,2.850971 0,9.154795 -6.118358,10.674481 -6.118358,10.674481 0,0 -6.119474,-1.500034 -6.119474,-10.674481 C 30.263064,55.456427 33.30785,54.3806 33.30785,54.3806 Z m -0.543482,1.365898 v 0.806194 h -0.525795 v 0.799189 h 0.515669 v 2.089929 h -2.599358 v 1.057809 h 1.831311 v 4.721172 c 0.43489,0.434911 0.917122,0.896934 1.339778,1.319363 0.429992,-0.431997 0.897925,-0.852463 1.301653,-1.319363 V 60.499619 H 36.4597 V 59.44181 h -2.600121 v -2.089929 h 0.516432 v -0.799189 h -0.525814 v -0.806194 h -0.542904 z"
       inkscape:connector-curvature="0" />
    <path
       style="opacity:1;vector-effect:none;fill:#000000;fill-opacity:0.78431373;fill-rule:evenodd;stroke:none;stroke-width:0.4183777;stroke-linecap:butt;stroke-linejoin:miter;stroke-miterlimit:4;stroke-dasharray:none;stroke-dashoffset:330.57125854;stroke-opacity:1;paint-order:normal;filter:url(#filter889)"
       d="M 20.297166,48.121949 V 73.777231 H 45.763312 V 48.121949 Z m 13.010576,5.202783 c 0,0 3.488889,1.19768 7.330818,3.415813 0,10.967899 -7.330818,12.788366 -7.330818,12.788366 0,0 -7.331336,-1.79693 -7.331336,-12.788366 3.683616,-2.126735 7.331336,-3.415813 7.331336,-3.415813 z m 0,1.339453 c 0,0 -3.044835,1.075845 -6.119523,2.850989 0,9.174447 6.119523,10.674284 6.119523,10.674284 0,0 6.118489,-1.519489 6.118489,-10.674284 -3.206818,-1.851459 -6.118489,-2.850989 -6.118489,-2.850989 z m -0.54312,1.365809 h 0.542603 0.543119 v 0.806152 h 0.525549 v 0.799434 h -0.516247 v 2.089795 h 2.599841 v 1.057817 h -1.831929 v 4.721159 c -0.403728,0.466899 -0.871738,0.887302 -1.30173,1.319299 -0.422656,-0.422429 -0.904563,-0.884388 -1.339453,-1.319299 v -4.721159 h -1.831412 v -1.057817 h 2.599324 V 57.63558 h -0.515731 v -0.799434 h 0.526066 z"
       id="rect862"
       inkscape:connector-curvature="0"
       clip-path="url(#clipPath871)" />
    <path
       style="display:inline;opacity:0.25;vector-effect:none;fill:#ffffff;fill-opacity:1;stroke:none;stroke-width:1.58127022;stroke-linecap:butt;stroke-linejoin:miter;stroke-miterlimit:4;stroke-dasharray:none;stroke-dashoffset:87.46364594;stroke-opacity:1;paint-order:normal"
       d="M 48.996094 24.476562 C 48.996094 24.476562 37.488056 28.542747 25.867188 35.251953 C 25.867188 35.614261 25.883675 35.954546 25.888672 36.310547 C 37.502207 29.60876 48.996094 25.546875 48.996094 25.546875 C 48.996094 25.546875 59.987947 29.320949 72.099609 36.310547 C 72.104624 35.954643 72.121094 35.614155 72.121094 35.251953 C 60.000837 28.254313 48.996094 24.476562 48.996094 24.476562 z M 21.308594 33.384766 C 21.301477 33.388873 21.294226 33.392376 21.287109 33.396484 C 21.287109 74.938923 48.996094 81.730469 48.996094 81.730469 C 48.996094 81.730469 76.703125 74.849965 76.703125 33.396484 C 76.695976 33.392357 76.688789 33.388891 76.681641 33.384766 C 76.205173 73.877764 48.996094 80.658203 48.996094 80.658203 C 48.996094 80.658203 21.784176 73.964837 21.308594 33.384766 z M 44.955078 35.707031 L 44.955078 36.777344 L 46.904297 36.777344 L 46.904297 35.707031 L 44.955078 35.707031 z M 51.082031 35.707031 L 51.082031 36.777344 L 53.033203 36.777344 L 53.033203 35.707031 L 51.082031 35.707031 z M 37.080078 47.603516 L 37.080078 48.673828 L 44.001953 48.673828 L 44.001953 47.603516 L 37.080078 47.603516 z M 53.984375 47.603516 L 53.984375 48.673828 L 60.908203 48.673828 L 60.908203 47.603516 L 53.984375 47.603516 z M 44.001953 65.447266 L 44.001953 66.517578 C 45.645632 68.161336 47.467013 69.909277 49.064453 71.505859 C 50.68962 69.873115 52.458474 68.28224 53.984375 66.517578 L 53.984375 65.447266 C 52.458474 67.211927 50.68962 68.800849 49.064453 70.433594 C 47.467013 68.837012 45.645632 67.091024 44.001953 65.447266 z "
       transform="matrix(0.26458333,0,0,0.26458333,20.344192,47.904613)"
       id="path895" />
  </g>
</svg>
