<svg xmlns="http://www.w3.org/2000/svg" xmlns:xlink="http://www.w3.org/1999/xlink" width="96" height="96" viewBox="0 0 25.4 25.4"><defs><radialGradient xlink:href="#a" id="e" gradientUnits="userSpaceOnUse" gradientTransform="matrix(2.02569 5.63744 -4.82012 1.732 62.318 -820.67)" cx="149.744" cy="73.055" fx="149.744" fy="73.055" r="4.047"/><linearGradient id="a"><stop offset="0" stop-color="#f9f7f7"/><stop offset=".226" stop-color="#f9ebe7"/><stop offset="1" stop-color="#646466"/></linearGradient><linearGradient xlink:href="#b" id="f" gradientUnits="userSpaceOnUse" x1="21.048" y1="143.714" x2="21.048" y2="170.04" gradientTransform="translate(-.003)"/><linearGradient id="b"><stop offset="0" stop-color="#f4f1f1"/><stop offset=".226" stop-color="#f9ebe7"/><stop offset="1" stop-color="#646466"/></linearGradient><filter id="d" x="-.06" width="1.12" y="-.06" height="1.12" color-interpolation-filters="sRGB"><feGaussianBlur stdDeviation=".847"/></filter><radialGradient xlink:href="#a" id="g" gradientUnits="userSpaceOnUse" gradientTransform="matrix(2.02569 5.63744 -4.82012 1.732 62.318 -820.67)" cx="149.744" cy="73.055" fx="149.744" fy="73.055" r="4.047"/><linearGradient xlink:href="#b" id="h" gradientUnits="userSpaceOnUse" x1="21.048" y1="143.714" x2="21.048" y2="170.04"/><linearGradient xlink:href="#c" id="i" gradientUnits="userSpaceOnUse" gradientTransform="matrix(4.18378 0 0 4.18378 -613.02 -151.875)" x1="172.57" y1="76.937" x2="172.57" y2="71.724"/><linearGradient id="c"><stop offset="0" stop-color="#525c90"/><stop offset="1" stop-color="#262b43"/></linearGradient><clipPath id="j"><path d="M113.8 163.292a.593.593 0 0 0-.594.594v1.2h-1.201a.593.593 0 0 0-.594.595v.806c0 .329.265.594.594.594h1.2v1.201c0 .329.266.594.595.594h.806a.593.593 0 0 0 .594-.594v-1.2h1.201a.593.593 0 0 0 .594-.595v-.806a.593.593 0 0 0-.594-.594h-1.2v-1.201a.593.593 0 0 0-.595-.594zm-11.023-14.504a.593.593 0 0 0-.594.594v1.201h-1.201a.593.593 0 0 0-.594.594v.807c0 .328.265.593.594.593h1.2v1.201c0 .329.266.594.595.594h.806a.593.593 0 0 0 .594-.594v-1.2h1.201a.593.593 0 0 0 .594-.594v-.807a.593.593 0 0 0-.594-.594h-1.2v-1.201a.593.593 0 0 0-.595-.594zm12.129-.068a2.456 2.456 0 0 0-4.092 1.958c.031.58-.1 1.11-.216 1.728 0 0-.11.869-.487 1.284-1.05 1.153-1.86 2.073-3.347 3.733-1.534 1.616-2.386 2.498-3.45 3.638-.384.41-1.241.59-1.241.59-.607.166-1.124.338-1.705.354a2.455 2.455 0 0 0 .134 4.907c.497-.074.832-.484 1.005-.344.153.16-.229.528-.262 1.03a2.456 2.456 0 0 0 4.902-.263c-.032-.581.099-1.11.215-1.729 0 0 .11-.869.488-1.284 1.05-1.153 1.86-2.073 3.346-3.733 1.535-1.617 2.386-2.498 3.451-3.638.383-.41 1.24-.59 1.24-.59.607-.166 1.125-.338 1.705-.354a2.455 2.455 0 0 0-.133-4.907c-.497.073-.833.483-1.005.344-.153-.16.228-.528.262-1.03a2.445 2.445 0 0 0-.81-1.694zm-1.317 4.746c.214.196.67 1.14.32 1.52-.16.172-2.33 2.452-4.572 4.81-2.169 2.425-4.266 4.773-4.425 4.945-.351.381-1.328.002-1.541-.195-.213-.196-.67-1.14-.319-1.52.16-.173 2.33-2.452 4.571-4.81 2.17-2.425 4.266-4.773 4.425-4.945.351-.381 1.328-.002 1.541.195z" fill="url(#linearGradient5564)" stroke-width=".418" stroke-dashoffset="87.464"/></clipPath><filter id="k" x="-.012" width="1.024" y="-.012" height="1.024" color-interpolation-filters="sRGB"><feGaussianBlur stdDeviation=".18"/></filter><filter id="l" x="-.023" width="1.047" y="-.025" height="1.049" color-interpolation-filters="sRGB"><feGaussianBlur stdDeviation=".771"/></filter></defs><g transform="matrix(.6979 0 0 .6979 -1.542 -98.783)" filter="url(#d)"><circle r="16.933" cy="160.515" cx="20.784"/><circle cx="20.784" cy="160.515" r="16.933" opacity=".5"/></g><g transform="matrix(.6979 0 0 .6979 -1.802 -99.35)"><circle r="16.933" cy="160.515" cx="20.784" fill="url(#e)"/><circle cx="20.78" cy="160.515" r="16.933" opacity=".5" fill="url(#f)"/></g><g><g transform="translate(-1.817 -99.459) scale(.69856)"><circle r="16.933" cy="160.515" cx="20.784" fill="url(#g)"/><circle cx="20.784" cy="160.515" r="16.933" opacity=".5" fill="url(#h)"/></g><path d="M113.8 163.292a.593.593 0 0 0-.594.594v1.2h-1.201a.593.593 0 0 0-.594.595v.806c0 .329.265.594.594.594h1.2v1.201c0 .329.266.594.595.594h.806a.593.593 0 0 0 .594-.594v-1.2h1.201a.593.593 0 0 0 .594-.595v-.806a.593.593 0 0 0-.594-.594h-1.2v-1.201a.593.593 0 0 0-.595-.594zm-11.023-14.504a.593.593 0 0 0-.594.594v1.201h-1.201a.593.593 0 0 0-.594.594v.807c0 .328.265.593.594.593h1.2v1.201c0 .329.266.594.595.594h.806a.593.593 0 0 0 .594-.594v-1.2h1.201a.593.593 0 0 0 .594-.594v-.807a.593.593 0 0 0-.594-.594h-1.2v-1.201a.593.593 0 0 0-.595-.594zm12.129-.068a2.456 2.456 0 0 0-4.092 1.958c.031.58-.1 1.11-.216 1.728 0 0-.11.869-.487 1.284-1.05 1.153-1.86 2.073-3.347 3.733-1.534 1.616-2.386 2.498-3.45 3.638-.384.41-1.241.59-1.241.59-.607.166-1.124.338-1.705.354a2.455 2.455 0 0 0 .134 4.907c.497-.074.832-.484 1.005-.344.153.16-.229.528-.262 1.03a2.456 2.456 0 0 0 4.902-.263c-.032-.581.099-1.11.215-1.729 0 0 .11-.869.488-1.284 1.05-1.153 1.86-2.073 3.346-3.733 1.535-1.617 2.386-2.498 3.451-3.638.383-.41 1.24-.59 1.24-.59.607-.166 1.125-.338 1.705-.354a2.455 2.455 0 0 0-.133-4.907c-.497.073-.833.483-1.005.344-.153-.16.228-.528.262-1.03a2.445 2.445 0 0 0-.81-1.694zm-1.317 4.746c.214.196.67 1.14.32 1.52-.16.172-2.33 2.452-4.572 4.81-2.169 2.425-4.266 4.773-4.425 4.945-.351.381-1.328.002-1.541-.195-.213-.196-.67-1.14-.319-1.52.16-.173 2.33-2.452 4.571-4.81 2.17-2.425 4.266-4.773 4.425-4.945.351-.381 1.328-.002 1.541.195z" fill="url(#i)" transform="translate(-62.932 -98.722) scale(.69856)"/><path clip-path="url(#j)" d="M90.954 142.417a.135.135 0 0 0-.136.136v35.514c0 .075.06.135.136.135h35.778c.075 0 .136-.06.136-.135v-35.514a.135.135 0 0 0-.136-.136zm22.432 6.339c.58.028 1.111.258 1.52.626.467.42.774 1.017.81 1.694-.034.501-.415.869-.263 1.03.173.139.509-.271 1.006-.345a2.455 2.455 0 0 1 .134 4.907c-.581.016-1.099.189-1.705.355 0 0-.858.18-1.24.59-1.065 1.14-1.917 2.021-3.452 3.637-1.486 1.66-2.296 2.58-3.346 3.733-.378.415-.488 1.285-.488 1.285-.117.618-.247 1.148-.216 1.727a2.456 2.456 0 0 1-4.902.263c.034-.5.416-.868.263-1.029-.173-.14-.508.27-1.005.345a2.455 2.455 0 0 1-.134-4.907c.58-.016 1.098-.189 1.705-.355 0 0 .857-.18 1.24-.59 1.065-1.14 1.917-2.02 3.451-3.637 1.487-1.66 2.297-2.58 3.347-3.734.377-.415.487-1.284.487-1.284.117-.618.247-1.147.216-1.727a2.456 2.456 0 0 1 2.572-2.584zm-10.61.694h.807c.329 0 .594.265.594.594v1.2h1.201c.329 0 .594.266.594.594v.807a.593.593 0 0 1-.594.594h-1.2v1.2a.593.593 0 0 1-.595.594h-.806a.593.593 0 0 1-.594-.593v-1.201h-1.201a.593.593 0 0 1-.594-.594v-.807c0-.328.265-.593.594-.593h1.2v-1.201c0-.329.266-.594.595-.594zm9.631 4.324a.551.551 0 0 0-.36.158c-.158.173-2.255 2.52-4.424 4.945-2.241 2.358-4.412 4.638-4.57 4.81-.352.381.105 1.324.318 1.52.213.197 1.19.577 1.541.196.16-.173 2.256-2.52 4.426-4.945 2.24-2.358 4.411-4.638 4.57-4.81.352-.382-.105-1.324-.319-1.52-.16-.149-.749-.399-1.182-.354zm1.393 10.18h.806c.329 0 .594.265.594.593v1.202h1.201c.329 0 .594.265.594.593v.807a.593.593 0 0 1-.594.594h-1.2v1.2a.593.593 0 0 1-.595.594h-.806a.593.593 0 0 1-.594-.593v-1.201h-1.201a.593.593 0 0 1-.594-.594v-.807c0-.328.265-.593.594-.593h1.201v-1.202c0-.328.265-.594.594-.594z" fill-opacity=".784" filter="url(#k)" transform="translate(-62.932 -98.722) scale(.69856)"/><path transform="matrix(.18483 0 0 .18483 -62.932 -98.722)" d="M437.234 569.227c-.363 1.519-1.375 2.634-.875 3.16.093.074.201.1.319.101.287-.626.616-1.364.674-2.224a9.336 9.336 0 0 0-.118-1.037zm-18.396.918a9.324 9.324 0 0 0-.016.61c.01-.202.016-.406.016-.61zm-39.418 4.28v1.768a2.241 2.241 0 0 0 2.244 2.244h4.54v-1.767h-4.54a2.241 2.241 0 0 1-2.244-2.244zm21.103 0a2.241 2.241 0 0 1-2.244 2.245h-4.539v1.767h4.54a2.241 2.241 0 0 0 2.243-2.244zm24.323 4.268c-.546.057-1.026.238-1.358.598-.6.652-8.526 9.526-16.724 18.69-8.471 8.912-16.675 17.528-17.276 18.18-.531.576-.561 1.493-.369 2.433a1.72 1.72 0 0 1 .37-.666c.6-.652 8.804-9.267 17.275-18.18 8.198-9.164 16.123-18.038 16.724-18.69 1.328-1.44 5.021-.007 5.826.737.483.445 1.286 1.905 1.575 3.312.516-1.66-.875-4.435-1.575-5.08-.603-.558-2.832-1.503-4.468-1.334zm-38.643 2.516v1.768a2.241 2.241 0 0 0 2.244 2.244h3.05a2.241 2.241 0 0 0 2.243-2.244v-1.768a2.241 2.241 0 0 1-2.244 2.244h-3.049a2.241 2.241 0 0 1-2.244-2.244zm63.434.043c-.442 4.595-4.241 8.25-8.973 8.379-2.194.06-4.15.713-6.443 1.342 0 0-3.24.678-4.688 2.228-4.024 4.307-7.243 7.64-13.043 13.748-5.62 6.275-8.68 9.75-12.648 14.11-1.428 1.568-1.844 4.855-1.844 4.855-.44 2.336-.932 4.338-.814 6.53.009.17.002.335.002.503.076-1.72.457-3.385.812-5.265 0 0 .416-3.285 1.844-4.854 3.968-4.359 7.029-7.837 12.648-14.111 5.8-6.108 9.019-9.441 13.043-13.748 1.448-1.55 4.688-2.229 4.688-2.229 2.292-.628 4.249-1.28 6.443-1.342 5.122-.139 9.16-4.408 9.02-9.53-.006-.209-.028-.412-.047-.616zm-79.266 41.191a9.347 9.347 0 0 0-.047 1.16c.14 5.123 4.403 9.155 9.526 9.014 1.609-.24 2.768-1.402 3.478-1.4.347-.755.636-1.338.32-1.67-.652-.527-1.921 1.023-3.798 1.303-4.917.135-9.032-3.579-9.479-8.407zm50.71 6.801v1.768a2.241 2.241 0 0 0 2.243 2.244h4.541v-1.768h-4.54a2.241 2.241 0 0 1-2.245-2.244zm21.105 0a2.241 2.241 0 0 1-2.245 2.244h-4.539v1.768h4.54a2.241 2.241 0 0 0 2.244-2.244zm-41.016 4.315c-.305 4.62-4.018 8.393-8.758 8.646-4.766.255-8.876-3.133-9.639-7.734-.056.236-.1.48-.117.734a9.272 9.272 0 0 0 9.756 8.768c5.117-.274 9.045-4.646 8.772-9.762-.012-.22-.014-.436-.014-.652zm26.695 2.468v1.768a2.241 2.241 0 0 0 2.244 2.244h3.05a2.241 2.241 0 0 0 2.243-2.244v-1.768a2.241 2.241 0 0 1-2.244 2.245h-3.049a2.241 2.241 0 0 1-2.244-2.245z" opacity=".25" fill="#fff" filter="url(#l)"/></g></svg>