<svg xmlns="http://www.w3.org/2000/svg" xmlns:xlink="http://www.w3.org/1999/xlink" width="96" height="96" viewBox="0 0 25.4 25.4"><defs><radialGradient xlink:href="#a" id="f" gradientUnits="userSpaceOnUse" gradientTransform="matrix(2.02569 5.63744 -4.82012 1.732 62.318 -820.67)" cx="149.744" cy="73.055" fx="149.744" fy="73.055" r="4.047"/><linearGradient id="a"><stop offset="0" stop-color="#f9f7f7"/><stop offset=".226" stop-color="#f9ebe7"/><stop offset="1" stop-color="#646466"/></linearGradient><linearGradient xlink:href="#b" id="g" gradientUnits="userSpaceOnUse" x1="21.048" y1="143.714" x2="21.048" y2="170.04" gradientTransform="translate(-.003)"/><linearGradient id="b"><stop offset="0" stop-color="#f4f1f1"/><stop offset=".226" stop-color="#f9ebe7"/><stop offset="1" stop-color="#646466"/></linearGradient><filter id="e" x="-.06" width="1.12" y="-.06" height="1.12" color-interpolation-filters="sRGB"><feGaussianBlur stdDeviation=".847"/></filter><linearGradient xlink:href="#c" id="h" x1="150.674" y1="76.066" x2="150.674" y2="75.05" gradientUnits="userSpaceOnUse" gradientTransform="matrix(15.8127 0 0 15.8127 -2349.31 -1133.961)"/><linearGradient id="c"><stop offset="0" stop-color="#525c90"/><stop offset="1" stop-color="#262b43"/></linearGradient><clipPath id="i"><path d="M33.32 52.663c-.445 0-.828.146-1.15.438-.313.291-.47.68-.47 1.163 0 .2.03.502.086.909l1.251 9.327h.54l1.279-9.327c.038-.33.056-.587.056-.77 0-.576-.155-1.01-.468-1.302a1.559 1.559 0 0 0-1.124-.438zm-5.622 3.567v1.223l-.002 2.445h-2.74l2.74 2.3v2.815l.002.011v.214h.219l.006.001h3.639a4.836 4.836 0 0 1-3.091-4.504 4.836 4.836 0 0 1 3.079-4.505H27.7zm7.354 0a4.836 4.836 0 0 1 3.09 4.505 4.836 4.836 0 0 1-3.079 4.504h3.854v-3.04l2.74-2.3h-2.74V56.23h-.698zm-1.746 10.181a1.24 1.24 0 0 0-.908.38c-.246.246-.37.541-.37.887a1.262 1.262 0 0 0 1.278 1.278c.353 0 .653-.123.898-.368.254-.254.38-.557.38-.91 0-.346-.126-.641-.38-.887a1.203 1.203 0 0 0-.898-.38z" fill="url(#d)" stroke-width=".418" stroke-dashoffset="87.464"/></clipPath><linearGradient xlink:href="#c" id="d" gradientUnits="userSpaceOnUse" gradientTransform="matrix(15.8127 0 0 15.8127 -2349.31 -1133.961)" x1="150.674" y1="76.066" x2="150.674" y2="75.05"/><filter id="j" x="-.024" width="1.048" y="-.024" height="1.048" color-interpolation-filters="sRGB"><feGaussianBlur stdDeviation=".255"/></filter><filter id="k" x="-.011" width="1.023" y="-.013" height="1.025" color-interpolation-filters="sRGB"><feGaussianBlur stdDeviation=".298"/></filter></defs><g transform="matrix(.6979 0 0 .6979 -1.542 -98.783)" filter="url(#e)"><circle r="16.933" cy="160.515" cx="20.784"/><circle cx="20.784" cy="160.515" r="16.933" opacity=".5"/></g><g transform="matrix(.6979 0 0 .6979 -1.802 -99.35)"><circle r="16.933" cy="160.515" cx="20.784" fill="url(#f)"/><circle cx="20.78" cy="160.515" r="16.933" opacity=".5" fill="url(#g)"/></g><path d="M33.32 52.663c-.445 0-.828.146-1.15.438-.313.291-.47.68-.47 1.163 0 .2.03.502.086.909l1.251 9.327h.54l1.279-9.327c.038-.33.056-.587.056-.77 0-.576-.155-1.01-.468-1.302a1.559 1.559 0 0 0-1.124-.438zm-5.622 3.567v1.223l-.002 2.445h-2.74l2.74 2.3v2.815l.002.011v.214h.219l.006.001h3.639a4.836 4.836 0 0 1-3.091-4.504 4.836 4.836 0 0 1 3.079-4.505H27.7zm7.354 0a4.836 4.836 0 0 1 3.09 4.505 4.836 4.836 0 0 1-3.079 4.504h3.854v-3.04l2.74-2.3h-2.74V56.23h-.698zm-1.746 10.181a1.24 1.24 0 0 0-.908.38c-.246.246-.37.541-.37.887a1.262 1.262 0 0 0 1.278 1.278c.353 0 .653-.123.898-.368.254-.254.38-.557.38-.91 0-.346-.126-.641-.38-.887a1.203 1.203 0 0 0-.898-.38z" fill="url(#h)" transform="translate(-20.344 -47.905)"/><path d="M20.344 48.122v25.513h25.42V48.122zm12.976 4.824c.446 0 .82.147 1.124.438.312.292.468.726.468 1.302 0 .184-.019.44-.057.77l-1.279 9.327h-.539l-1.25-9.327a7.281 7.281 0 0 1-.087-.908c0-.484.157-.872.47-1.164a1.656 1.656 0 0 1 1.15-.438zm-5.62 3.567h3.85a4.836 4.836 0 0 0-3.08 4.505 4.836 4.836 0 0 0 3.092 4.504h-3.864v-.214l-.002-.011v-2.815l-2.74-2.3h2.74l.002-2.446v-1.222zm7.352 0H38.917v3.669h2.74l-2.74 2.3v3.04H35.064a4.836 4.836 0 0 0 3.079-4.504 4.836 4.836 0 0 0-3.091-4.504zm-1.746 10.182c.353 0 .653.126.898.38.254.245.38.54.38.886 0 .353-.126.657-.38.91a1.222 1.222 0 0 1-.898.368 1.258 1.258 0 0 1-1.278-1.278c0-.345.124-.64.37-.886.253-.253.555-.38.908-.38z" clip-path="url(#i)" fill-opacity=".784" fill-rule="evenodd" filter="url(#j)" transform="translate(-20.344 -47.905)"/><path d="M42.945 24.48a7.855 7.855 0 0 0-.025.627c0 .755.111 1.898.326 3.436l4.727 35.25h2.039l4.834-35.25c.143-1.248.215-2.218.215-2.914 0-.202-.01-.395-.02-.588-.022.647-.08 1.423-.195 2.43l-4.834 35.25h-2.04l-4.726-35.25c-.181-1.298-.272-2.251-.3-2.99zm-2.847 8.057a18.272 18.272 0 0 0-9.383 15.953c0 .177.016.351.021.528a18.268 18.268 0 0 1 11.616-16.48h-2.254zm15.49.002a18.269 18.269 0 0 1 11.66 16.498c.005-.182.021-.362.022-.545a18.275 18.275 0 0 0-9.413-15.953h-2.27zM79.279 46.4l-9.082 7.627V55.1l10.358-8.7h-1.276zm-61.845.002l10.353 8.692v-1.07l-9.076-7.622h-1.277zm10.353 18.26v1.07c0 .017.007.026.008.043v.807h.824c.008 0 .019.006.027.006h13.75c-.79-.306-1.543-.67-2.269-1.072h-11.48c-.01 0-.02-.004-.028-.004h-.824v-.807c0-.017-.008-.026-.008-.043zm41.578.852c-.008 0-.02.004-.027.004H57.887c-.722.401-1.47.766-2.254 1.072h13.705c.007 0 .019-.006.027-.006h.832v-1.07h-.832zM44.21 75.275c-.018.176-.049.347-.049.53 0 1.334.468 2.48 1.397 3.437.957.929 2.099 1.393 3.433 1.393 1.335 0 2.466-.465 3.395-1.393.957-.957 1.435-2.103 1.435-3.437 0-.183-.032-.354-.05-.53a4.67 4.67 0 0 1-1.385 2.897c-.929.928-2.06 1.39-3.395 1.39-1.334 0-2.476-.462-3.433-1.39a4.742 4.742 0 0 1-1.348-2.897z" transform="scale(.26458)" opacity=".25" fill="#f5f5f5" filter="url(#k)"/></svg>