<svg xmlns="http://www.w3.org/2000/svg" xmlns:xlink="http://www.w3.org/1999/xlink" width="96" height="96" viewBox="0 0 25.4 25.4"><defs><radialGradient xlink:href="#a" id="f" gradientUnits="userSpaceOnUse" gradientTransform="matrix(2.02569 5.63744 -4.82012 1.732 62.318 -820.67)" cx="149.744" cy="73.055" fx="149.744" fy="73.055" r="4.047"/><linearGradient id="a"><stop offset="0" stop-color="#f9f7f7"/><stop offset=".226" stop-color="#f9ebe7"/><stop offset="1" stop-color="#646466"/></linearGradient><linearGradient xlink:href="#b" id="g" gradientUnits="userSpaceOnUse" x1="21.048" y1="143.714" x2="21.048" y2="170.04" gradientTransform="translate(-.003)"/><linearGradient id="b"><stop offset="0" stop-color="#f4f1f1"/><stop offset=".226" stop-color="#f9ebe7"/><stop offset="1" stop-color="#646466"/></linearGradient><filter id="e" x="-.06" width="1.12" y="-.06" height="1.12" color-interpolation-filters="sRGB"><feGaussianBlur stdDeviation=".847"/></filter><linearGradient xlink:href="#c" id="h" x1="150.682" y1="76.112" x2="150.682" y2="75.007" gradientUnits="userSpaceOnUse" gradientTransform="matrix(15.8127 0 0 15.8127 -2349.31 -1133.627)"/><linearGradient id="c"><stop offset="0" stop-color="#525c90"/><stop offset="1" stop-color="#262b43"/></linearGradient><clipPath id="i"><path style="line-height:1.25;-inkscape-font-specification:'Times New Roman, '" d="M33.307 67.169q.57 0 .966.408.41.397.41.954 0 .57-.41.978-.396.397-.966.397t-.978-.397q-.396-.408-.396-.978 0-.557.396-.954.409-.408.978-.408zm.29-2.056h-.58L31.67 55.08q-.091-.656-.091-.978 0-.78.504-1.251.52-.47 1.239-.47.718 0 1.207.47.505.47.505 1.4 0 .296-.061.829z" font-weight="400" font-family="Times New Roman" letter-spacing="0" word-spacing="0" fill="url(#d)" stroke-width=".418" stroke-dashoffset="87.464"/></clipPath><linearGradient xlink:href="#c" id="d" gradientUnits="userSpaceOnUse" gradientTransform="matrix(15.8127 0 0 15.8127 -2349.31 -1133.627)" x1="150.682" y1="76.112" x2="150.682" y2="75.007"/><filter id="j" x="-.024" width="1.048" y="-.024" height="1.048" color-interpolation-filters="sRGB"><feGaussianBlur stdDeviation=".255"/></filter><filter id="k" x="-.034" width="1.067" y="-.007" height="1.015" color-interpolation-filters="sRGB"><feGaussianBlur stdDeviation=".184"/></filter></defs><g transform="matrix(.6979 0 0 .6979 -1.542 -98.783)" filter="url(#e)"><circle r="16.933" cy="160.515" cx="20.784"/><circle cx="20.784" cy="160.515" r="16.933" opacity=".5"/></g><g transform="matrix(.6979 0 0 .6979 -1.802 -99.35)"><circle r="16.933" cy="160.515" cx="20.784" fill="url(#f)"/><circle cx="20.78" cy="160.515" r="16.933" opacity=".5" fill="url(#g)"/></g><path d="M33.307 67.169q.57 0 .966.408.41.397.41.954 0 .57-.41.978-.396.397-.966.397t-.978-.397q-.396-.408-.396-.978 0-.557.396-.954.409-.408.978-.408zm.29-2.056h-.58L31.67 55.08q-.091-.656-.091-.978 0-.78.504-1.251.52-.47 1.239-.47.718 0 1.207.47.505.47.505 1.4 0 .296-.061.829z" style="line-height:1.25;-inkscape-font-specification:'Times New Roman, ';font-variant-east_asian:normal" font-weight="400" font-family="Times New Roman" letter-spacing="0" word-spacing="0" fill="url(#h)" transform="translate(-20.344 -47.905)"/><path d="M20.297 48.217v25.371h25.608V48.217zm13.026 4.448c.479 0 .881.156 1.207.47.337.314.505.78.505 1.4 0 .198-.02.474-.061.83l-1.376 10.031h-.581l-1.345-10.032a7.79 7.79 0 0 1-.092-.978c0-.52.168-.937.504-1.25.347-.315.76-.471 1.239-.471zm-.016 14.787c.38 0 .702.136.967.409.272.264.408.582.408.953 0 .38-.136.707-.408.979a1.315 1.315 0 0 1-.967.396 1.355 1.355 0 0 1-1.374-1.375c0-.371.132-.689.396-.953.272-.273.598-.409.978-.409z" clip-path="url(#i)" fill="#000105" fill-opacity=".784" fill-rule="evenodd" filter="url(#j)" transform="translate(-20.344 -47.905)"/><path style="line-height:1.25;-inkscape-font-specification:'Times New Roman, '" d="M42.49 23.877a8.479 8.479 0 0 0-.025.62c0 .81.116 2.044.347 3.698l5.084 37.914h2.198l5.199-37.914c.154-1.342.232-2.388.232-3.136 0-.2-.012-.39-.021-.582-.023.7-.085 1.549-.211 2.646l-5.2 37.916h-2.197l-5.084-37.916c-.197-1.41-.293-2.448-.322-3.246zM43.848 78.5c-.017.176-.05.346-.05.53 0 1.435.5 2.667 1.499 3.697 1.03.998 2.262 1.498 3.697 1.498 1.436 0 2.654-.5 3.652-1.498 1.03-1.03 1.545-2.262 1.545-3.698 0-.183-.033-.353-.05-.529a5.026 5.026 0 0 1-1.495 3.156c-.998.999-2.216 1.496-3.652 1.496-1.435 0-2.667-.497-3.697-1.496a5.093 5.093 0 0 1-1.45-3.156z" transform="scale(.26458)" font-weight="400" font-family="Times New Roman" letter-spacing="0" word-spacing="0" opacity=".25" fill="#fff" filter="url(#k)"/></svg>