<svg xmlns="http://www.w3.org/2000/svg" xmlns:xlink="http://www.w3.org/1999/xlink" width="96" height="96" viewBox="0 0 25.4 25.4"><defs><radialGradient xlink:href="#a" id="e" gradientUnits="userSpaceOnUse" gradientTransform="matrix(2.02569 5.63744 -4.82012 1.732 62.318 -820.67)" cx="149.744" cy="73.055" fx="149.744" fy="73.055" r="4.047"/><linearGradient id="a"><stop offset="0" stop-color="#f9f7f7"/><stop offset=".226" stop-color="#f9ebe7"/><stop offset="1" stop-color="#646466"/></linearGradient><linearGradient xlink:href="#b" id="f" gradientUnits="userSpaceOnUse" x1="21.048" y1="143.714" x2="21.048" y2="170.04" gradientTransform="translate(-.003)"/><linearGradient id="b"><stop offset="0" stop-color="#f4f1f1"/><stop offset=".226" stop-color="#f9ebe7"/><stop offset="1" stop-color="#646466"/></linearGradient><filter id="d" x="-.06" width="1.12" y="-.06" height="1.12" color-interpolation-filters="sRGB"><feGaussianBlur stdDeviation=".847"/></filter><filter id="j" x="-.012" width="1.024" y="-.012" height="1.024" color-interpolation-filters="sRGB"><feGaussianBlur stdDeviation=".315"/></filter><clipPath id="h"><path d="M27.855 207.032l-7.268-2.035-1.199 4.142 2.072 1.308s1.14-.993 1.947-.602c.932.454.94 1.784.69 2.59-.355 1.141-1.799 2.586-2.71 1.646-1.324-1.365-3.961-4.106-3.961-4.106l-1.744 1.563v5.814l6.613 3.888 8.067-6.505zm-13.177 12.305l6.115 3.756-1.177 1.915-6.115-3.756z" fill="url(#linearGradient987)" stroke-width=".418" stroke-dashoffset="87.464"/></clipPath><filter id="i" x="-.012" width="1.023" y="-.012" height="1.025" color-interpolation-filters="sRGB"><feGaussianBlur stdDeviation=".183"/></filter><linearGradient xlink:href="#c" id="g" gradientUnits="userSpaceOnUse" gradientTransform="matrix(4.18378 0 0 4.18378 -602.949 -307.233)" x1="151.869" y1="89.953" x2="151.869" y2="85.184"/><linearGradient id="c"><stop offset="0" stop-color="#525c90"/><stop offset="1" stop-color="#262b43"/></linearGradient></defs><g transform="matrix(.6979 0 0 .6979 -1.542 -98.783)" filter="url(#d)"><circle r="16.933" cy="160.515" cx="20.784"/><circle cx="20.784" cy="160.515" r="16.933" opacity=".5"/></g><g transform="matrix(.6979 0 0 .6979 -1.802 -99.35)"><circle r="16.933" cy="160.515" cx="20.784" fill="url(#e)"/><circle cx="20.78" cy="160.515" r="16.933" opacity=".5" fill="url(#f)"/></g><g><path d="M37.927 51.673l-7.268-2.035-1.199 4.143 2.071 1.308s1.14-.994 1.948-.602c.932.453.94 1.783.69 2.589-.355 1.142-1.799 2.587-2.71 1.647-1.324-1.366-3.961-4.106-3.961-4.106l-1.744 1.562v5.814l6.613 3.888 8.067-6.504zM24.75 63.978l6.115 3.756-1.177 1.916-6.115-3.756z" fill="url(#g)" transform="matrix(.80313 0 0 .80313 -12.74 -35.01)"/><path clip-path="url(#h)" d="M3.903 198.046v35.719h37.57v-35.72zm16.684 7.612l7.268 2.035 2.507 7.704-8.067 6.504-6.613-3.888V212.2l1.744-1.562s2.637 2.74 3.96 4.105c.912.94 2.357-.505 2.711-1.646.25-.806.243-2.136-.69-2.589-.807-.392-1.947.602-1.947.602l-2.072-1.308zm-5.909 14.34l6.115 3.756-1.177 1.916-6.114-3.756z" transform="matrix(.80313 0 0 .80313 -4.651 -159.782)" fill-opacity=".784" fill-rule="evenodd" filter="url(#i)"/><path transform="matrix(.2125 0 0 .2125 6.032 4.857)" d="M23.616 16.043l-.611 2.113 7.828 4.946s4.31-3.757 7.36-2.276c1.943.944 2.82 2.897 3.06 4.969.29-2.84-.332-6.144-3.06-7.469-3.05-1.481-7.36 2.276-7.36 2.276zm40.22 21.283L33.992 61.391 8.995 46.695v2.5l24.996 14.696 30.49-24.584zM1.87 62.123L.755 63.937l23.111 14.198 4.448-7.24-1.116-.686-3.332 5.426z" opacity=".25" fill="#fff" filter="url(#j)"/></g></svg>