<svg xmlns="http://www.w3.org/2000/svg" xmlns:xlink="http://www.w3.org/1999/xlink" width="96" height="96" viewBox="0 0 25.4 25.4"><defs><radialGradient xlink:href="#a" id="e" gradientUnits="userSpaceOnUse" gradientTransform="matrix(2.02569 5.63744 -4.82012 1.732 62.318 -820.67)" cx="149.744" cy="73.055" fx="149.744" fy="73.055" r="4.047"/><linearGradient id="a"><stop offset="0" stop-color="#f9f7f7"/><stop offset=".226" stop-color="#f9ebe7"/><stop offset="1" stop-color="#646466"/></linearGradient><linearGradient xlink:href="#b" id="f" gradientUnits="userSpaceOnUse" x1="21.048" y1="143.714" x2="21.048" y2="170.04" gradientTransform="translate(-.003)"/><linearGradient id="b"><stop offset="0" stop-color="#f4f1f1"/><stop offset=".226" stop-color="#f9ebe7"/><stop offset="1" stop-color="#646466"/></linearGradient><filter id="d" x="-.06" width="1.12" y="-.06" height="1.12" color-interpolation-filters="sRGB"><feGaussianBlur stdDeviation=".847"/></filter><clipPath id="h"><path d="M155.791 159.705a2.29 2.29 0 0 1-2.29 2.29 2.29 2.29 0 0 1-2.29-2.29 2.29 2.29 0 0 1 2.29-2.29 2.29 2.29 0 0 1 2.29 2.29zm-8.189 5.306l2.148 2.345c.215.236.2.598-.036.814l-2.345 2.147a.574.574 0 0 1-.814-.035l-2.147-2.346a.574.574 0 0 1 .036-.813l2.345-2.148a.574.574 0 0 1 .813.036zm11.599 0l-2.147 2.345a.575.575 0 0 0 .035.814l2.346 2.147c.235.216.598.2.813-.035l2.148-2.346a.575.575 0 0 0-.036-.813l-2.346-2.148a.575.575 0 0 0-.813.036zm0-15.484l-2.147 2.346a.575.575 0 0 0 .035.813l2.346 2.148c.235.215.598.2.813-.036l2.148-2.345a.575.575 0 0 0-.036-.814l-2.346-2.147a.575.575 0 0 0-.813.035zm-9.33 7.415c.735-.753 2.182-1.593 3.55-1.593 1.366 0 2.836.84 3.57 1.593.713.713 1.164 1.795 1.164 2.752 0 .957-.451 2.061-1.164 2.774-.734.753-2.204 1.593-3.575 1.593-1.372 0-2.841-.84-3.575-1.593-.713-.713-1.164-1.817-1.164-2.75s.481-2.063 1.194-2.776zm-1.807 6.973c.614.394 2.516 1.584 5.415 1.584 2.876-.007 4.706-1.19 5.32-1.584.615-.394 2.746-1.862 2.746-4.192 0-2.335-2.131-3.835-2.746-4.229-.614-.394-2.536-1.501-5.44-1.501-2.903 0-4.68 1.059-5.295 1.453-.614.394-2.748 1.915-2.748 4.22 0 2.305 2.134 3.855 2.748 4.249zm-.462-14.388l2.148 2.346c.215.235.2.598-.036.813l-2.345 2.148a.574.574 0 0 1-.814-.036l-2.147-2.345a.574.574 0 0 1 .036-.814l2.345-2.147a.574.574 0 0 1 .813.035z" fill="url(#linearGradient5884)" fill-rule="evenodd" stroke-width=".418" stroke-dashoffset="87.464"/></clipPath><filter id="i" x="-.012" width="1.024" y="-.012" height="1.024" color-interpolation-filters="sRGB"><feGaussianBlur stdDeviation=".18"/></filter><linearGradient xlink:href="#c" id="g" gradientUnits="userSpaceOnUse" gradientTransform="matrix(3.17029 0 0 3.17029 -547.131 -176.362)" x1="183.302" y1="77.049" x2="183.302" y2="72.06"/><linearGradient id="c"><stop offset="0" stop-color="#525c90"/><stop offset="1" stop-color="#262b43"/></linearGradient></defs><g transform="matrix(.6979 0 0 .6979 -1.542 -98.783)" filter="url(#d)"><circle r="16.933" cy="160.515" cx="20.784"/><circle cx="20.784" cy="160.515" r="16.933" opacity=".5"/></g><g transform="matrix(.6979 0 0 .6979 -1.802 -99.35)"><circle r="16.933" cy="160.515" cx="20.784" fill="url(#e)"/><circle cx="20.78" cy="160.515" r="16.933" opacity=".5" fill="url(#f)"/></g><g fill-rule="evenodd"><path d="M35.441 59.74a1.735 1.735 0 0 1-1.735 1.736 1.735 1.735 0 0 1-1.736-1.736 1.735 1.735 0 0 1 1.736-1.735 1.735 1.735 0 0 1 1.735 1.735zm-6.205 4.02l1.627 1.778a.435.435 0 0 1-.027.616l-1.777 1.627a.435.435 0 0 1-.617-.027l-1.627-1.777a.435.435 0 0 1 .027-.616l1.778-1.628a.435.435 0 0 1 .616.028zm8.789 0l-1.627 1.778a.435.435 0 0 0 .027.616l1.777 1.627a.435.435 0 0 0 .616-.027l1.628-1.777a.435.435 0 0 0-.028-.616l-1.777-1.628a.435.435 0 0 0-.616.028zm0-11.732l-1.627 1.777a.435.435 0 0 0 .027.616l1.777 1.628a.435.435 0 0 0 .616-.028l1.628-1.777a.435.435 0 0 0-.028-.616L38.641 52a.435.435 0 0 0-.616.027zm-7.07 5.618c.557-.57 1.654-1.207 2.69-1.207 1.035 0 2.149.637 2.705 1.207.54.54.882 1.36.882 2.085 0 .726-.342 1.562-.882 2.103-.556.57-1.67 1.207-2.709 1.207-1.039 0-2.153-.637-2.709-1.207-.54-.54-.882-1.377-.882-2.084 0-.707.365-1.564.905-2.104zm-1.369 5.284a7.448 7.448 0 0 0 4.103 1.2c2.18-.005 3.566-.902 4.032-1.2.465-.299 2.08-1.411 2.08-3.176 0-1.77-1.615-2.906-2.08-3.205-.466-.298-1.923-1.138-4.123-1.138s-3.547.803-4.012 1.101c-.465.3-2.082 1.452-2.082 3.198 0 1.747 1.617 2.921 2.082 3.22zm-.35-10.902l1.627 1.777a.435.435 0 0 1-.027.616L29.06 56.05a.435.435 0 0 1-.616-.028l-1.628-1.777a.435.435 0 0 1 .027-.616L28.62 52a.435.435 0 0 1 .616.027z" fill="url(#g)" transform="translate(-17.37 -40.67) scale(.89635)"/><path clip-path="url(#h)" d="M136.336 143.313a.135.135 0 0 0-.136.136v35.276c0 .075.061.135.136.135h36.025c.074 0 .135-.06.135-.135v-35.276a.135.135 0 0 0-.135-.136zm10.867 6.69a.572.572 0 0 1 .4.186l2.147 2.345a.574.574 0 0 1-.036.814l-2.345 2.147a.574.574 0 0 1-.814-.036l-2.147-2.345a.574.574 0 0 1 .035-.813l2.346-2.148a.573.573 0 0 1 .414-.15zm12.397 0a.577.577 0 0 1 .415.15l2.345 2.148a.575.575 0 0 1 .036.813l-2.148 2.345a.575.575 0 0 1-.813.036l-2.346-2.147a.575.575 0 0 1-.036-.814l2.148-2.345a.573.573 0 0 1 .4-.187zm-6.24 4.651c2.902 0 4.825 1.108 5.44 1.502.614.394 2.745 1.893 2.745 4.229 0 2.329-2.131 3.797-2.745 4.192-.615.394-2.445 1.576-5.321 1.583-2.899 0-4.8-1.19-5.415-1.583-.614-.395-2.748-1.945-2.748-4.25 0-2.304 2.134-3.826 2.748-4.22.614-.394 2.392-1.453 5.295-1.453zm.06 1.356c-1.367 0-2.814.84-3.549 1.593-.712.713-1.194 1.844-1.194 2.777s.45 2.037 1.163 2.75c.735.752 2.205 1.593 3.576 1.593s2.84-.84 3.575-1.593c.713-.713 1.164-1.817 1.164-2.774 0-.958-.451-2.04-1.164-2.753-.734-.752-2.204-1.593-3.57-1.593zm.081 2.067a2.29 2.29 0 0 1 2.29 2.29 2.29 2.29 0 0 1-2.29 2.29 2.29 2.29 0 0 1-2.29-2.29 2.29 2.29 0 0 1 2.29-2.29zm-6.298 7.409c.147.006.292.069.4.187l2.147 2.345a.575.575 0 0 1-.036.814l-2.345 2.147a.574.574 0 0 1-.814-.036l-2.147-2.346a.574.574 0 0 1 .035-.813l2.346-2.147a.574.574 0 0 1 .414-.152zm12.397 0a.577.577 0 0 1 .415.15l2.345 2.148a.575.575 0 0 1 .036.814l-2.148 2.345a.575.575 0 0 1-.813.036l-2.346-2.148a.575.575 0 0 1-.036-.813l2.148-2.345a.573.573 0 0 1 .4-.187z" transform="matrix(.67922 0 0 .67922 -91.419 -95.596)" fill-opacity=".784" filter="url(#i)"/><path d="M6.635 7.912a.39.39 0 0 0 .03.49l1.459 1.593a.39.39 0 0 0 .552.024l1.593-1.458a.389.389 0 0 0 .055-.512.396.396 0 0 1-.055.062l-1.593 1.46a.39.39 0 0 1-.552-.025L6.665 7.953c-.011-.013-.02-.027-.03-.041zm12.279 0l-.03.04-1.46 1.594a.39.39 0 0 1-.552.024L15.279 8.11a.393.393 0 0 1-.055-.062.389.389 0 0 0 .055.512l1.593 1.458a.39.39 0 0 0 .552-.024l1.46-1.593a.39.39 0 0 0 .03-.49zM12.787 9.92c-.929 0-1.912.57-2.41 1.082-.485.484-.812 1.252-.812 1.886 0 .075.005.152.013.23a2.941 2.941 0 0 1 .798-1.667c.5-.511 1.482-1.082 2.41-1.082.929 0 1.927.57 2.426 1.082.43.43.718 1.056.778 1.645.008-.076.013-.151.013-.225 0-.65-.307-1.385-.791-1.87-.499-.51-1.497-1.081-2.425-1.081zm-5.492 3.157a2.494 2.494 0 0 0-.013.225c0 1.565 1.45 2.618 1.867 2.885a6.676 6.676 0 0 0 3.678 1.076c1.953-.005 3.196-.808 3.613-1.076.418-.267 1.865-1.264 1.865-2.847 0-.076-.006-.15-.012-.225-.128 1.452-1.456 2.368-1.852 2.623-.418.268-1.661 1.071-3.614 1.076a6.676 6.676 0 0 1-3.678-1.076c-.397-.254-1.725-1.22-1.854-2.661zm7.084.025a1.556 1.556 0 0 1-1.537 1.333 1.556 1.556 0 0 1-1.538-1.33 1.556 1.556 0 1 0 3.075-.003zm-7.744 5.326a.39.39 0 0 0 .03.49l1.459 1.594a.39.39 0 0 0 .552.024l1.593-1.459c.147-.134.135-.547.127-.742-.006.183-.106.274-.127.293l-1.593 1.459a.39.39 0 0 1-.552-.025L6.665 18.47l-.03-.04zm12.278 0c-.01.014-.018.028-.03.041l-1.459 1.593a.39.39 0 0 1-.552.025l-1.593-1.46a.391.391 0 0 1-.055-.061.39.39 0 0 0 .055.511l1.593 1.459a.39.39 0 0 0 .552-.024l1.46-1.593a.39.39 0 0 0 .03-.49z" opacity=".25" fill="#fff"/></g></svg>