<svg xmlns="http://www.w3.org/2000/svg" xmlns:xlink="http://www.w3.org/1999/xlink" width="96" height="96" viewBox="0 0 25.4 25.4"><defs><radialGradient xlink:href="#a" id="f" gradientUnits="userSpaceOnUse" gradientTransform="matrix(2.02569 5.63744 -4.82012 1.732 62.318 -820.67)" cx="149.744" cy="73.055" fx="149.744" fy="73.055" r="4.047"/><linearGradient id="a"><stop offset="0" stop-color="#f9f7f7"/><stop offset=".226" stop-color="#f9ebe7"/><stop offset="1" stop-color="#646466"/></linearGradient><linearGradient xlink:href="#b" id="g" gradientUnits="userSpaceOnUse" x1="21.048" y1="143.714" x2="21.048" y2="170.04" gradientTransform="translate(-.003)"/><linearGradient id="b"><stop offset="0" stop-color="#f4f1f1"/><stop offset=".226" stop-color="#f9ebe7"/><stop offset="1" stop-color="#646466"/></linearGradient><filter id="e" x="-.06" width="1.12" y="-.06" height="1.12" color-interpolation-filters="sRGB"><feGaussianBlur stdDeviation=".847"/></filter><linearGradient xlink:href="#c" id="h" x1="150.683" y1="76.019" x2="150.683" y2="75.092" gradientUnits="userSpaceOnUse" gradientTransform="matrix(15.8127 0 0 15.8127 -2349.31 -1133.627)"/><linearGradient id="c"><stop offset="0" stop-color="#525c90"/><stop offset="1" stop-color="#262b43"/></linearGradient><clipPath id="i"><path d="M33.305 57.318c-1.08 0-1.83.752-1.83 1.835 0 .689.225 2.325.214 2.295.173.476.457.726.7 1.13.252-.382.472-.823.753-1.112.794-.816 1.547-1.33 1.74-1.476-.017-.006.102-.163.16-.36.04-.136.073-.282.09-.382.006-.039.006-.076.006-.106-.005-1.073-.758-1.824-1.833-1.824zm1.833 1.824l.001.01h.003c0-.006-.003-.031-.004-.01zm.004.01c0 .012-.001.007.002.112a1.952 1.952 0 0 1 .005-.111zm-.26.838c.007 0 .03-.016.095-.072-.007.007-.079.06-.094.072zm-1.575-6.288a5.45 5.45 0 0 0-5.45 5.45c0 .862.031 2.415.435 3.53.532 1.471 1.367 2.92 2.541 3.946 1.182 1.034 3.93 1.953 5.5 1.956.321-.006.642-.031.96-.082-1.088-.511-2.12-1.773-2.358-2.55-.106-1.687 1.43-2.442 2.437-3.332 1.216-1.076 1.404-2.816 1.384-3.468a5.45 5.45 0 0 0-5.45-5.45zm-.002 1.664a3.76 3.76 0 0 1 3.786 3.787 1.661 1.661 0 0 0 .005.052c.007.24-.212 1.631-.826 2.174-.363.321-1.047.75-1.727 1.45-.68.698-1.354 1.866-1.268 3.226a1.661 1.661 0 0 0 0 .007c-.531-.249-1.157-.515-1.35-.684-.885-.773-1.608-1.985-2.07-3.262-.246-.677-.331-2.137-.331-2.961a3.757 3.757 0 0 1 3.782-3.787z" fill="url(#d)" fill-rule="evenodd" stroke-width=".418" stroke-dashoffset="87.464"/></clipPath><linearGradient xlink:href="#c" id="d" gradientUnits="userSpaceOnUse" gradientTransform="matrix(15.8127 0 0 15.8127 -2349.31 -1133.627)" x1="150.683" y1="76.019" x2="150.683" y2="75.092"/><filter id="j" x="-.024" width="1.048" y="-.024" height="1.048" color-interpolation-filters="sRGB"><feGaussianBlur stdDeviation=".254"/></filter><filter id="k" x="-.013" width="1.027" y="-.011" height="1.022" color-interpolation-filters="sRGB"><feGaussianBlur stdDeviation=".231"/></filter></defs><g transform="matrix(.6979 0 0 .6979 -1.542 -98.783)" filter="url(#e)"><circle r="16.933" cy="160.515" cx="20.784"/><circle cx="20.784" cy="160.515" r="16.933" opacity=".5"/></g><g transform="matrix(.6979 0 0 .6979 -1.802 -99.35)"><circle r="16.933" cy="160.515" cx="20.784" fill="url(#f)"/><circle cx="20.78" cy="160.515" r="16.933" opacity=".5" fill="url(#g)"/></g><path style="font-variant-east_asian:normal" d="M33.305 57.318c-1.08 0-1.83.752-1.83 1.835 0 .689.225 2.325.214 2.295.173.476.457.726.7 1.13.252-.382.472-.823.753-1.112.794-.816 1.547-1.33 1.74-1.476-.017-.006.102-.163.16-.36.04-.136.073-.282.09-.382.006-.039.006-.076.006-.106-.005-1.073-.758-1.824-1.833-1.824zm1.833 1.824l.001.01h.003c0-.006-.003-.031-.004-.01zm.004.01c0 .012-.001.007.002.112a1.952 1.952 0 0 1 .005-.111zm-.26.838c.007 0 .03-.016.095-.072-.007.007-.079.06-.094.072zm-1.575-6.288a5.45 5.45 0 0 0-5.45 5.45c0 .862.031 2.415.435 3.53.532 1.471 1.367 2.92 2.541 3.946 1.182 1.034 3.93 1.953 5.5 1.956.321-.006.642-.031.96-.082-1.088-.511-2.12-1.773-2.358-2.55-.106-1.687 1.43-2.442 2.437-3.332 1.216-1.076 1.404-2.816 1.384-3.468a5.45 5.45 0 0 0-5.45-5.45zm-.002 1.664a3.76 3.76 0 0 1 3.786 3.787 1.661 1.661 0 0 0 .005.052c.007.24-.212 1.631-.826 2.174-.363.321-1.047.75-1.727 1.45-.68.698-1.354 1.866-1.268 3.226a1.661 1.661 0 0 0 0 .007c-.531-.249-1.157-.515-1.35-.684-.885-.773-1.608-1.985-2.07-3.262-.246-.677-.331-2.137-.331-2.961a3.757 3.757 0 0 1 3.782-3.787z" fill="url(#h)" fill-rule="evenodd" transform="translate(-20.344 -47.905)"/><path d="M20.439 48.169v25.42h25.324v-25.42zm12.868 5.817a5.45 5.45 0 0 1 5.449 5.449c.02.653-.168 2.393-1.384 3.468-1.006.89-2.543 1.645-2.437 3.332.239.777 1.27 2.039 2.358 2.55-.318.051-.639.076-.96.083-1.57-.003-4.318-.923-5.5-1.956-1.174-1.027-2.009-2.475-2.541-3.946-.404-1.115-.434-2.668-.435-3.531a5.45 5.45 0 0 1 5.45-5.45zm-.001 1.664v.002a3.757 3.757 0 0 0-3.782 3.787c0 .824.085 2.284.33 2.96.463 1.278 1.187 2.49 2.071 3.263.194.169.818.434 1.35.683a1.661 1.661 0 0 1 0-.006c-.086-1.36.588-2.528 1.268-3.227.68-.7 1.364-1.128 1.727-1.45.615-.543.833-1.933.826-2.173a1.661 1.661 0 0 1-.005-.052 3.76 3.76 0 0 0-3.785-3.787zm0 1.951c1.074 0 1.827.752 1.832 1.824v.002c.002-.005.004.004.004.01h.007a1.952 1.952 0 0 0-.005.11c-.003-.104-.002-.1-.002-.11h-.002l-.001-.01v-.002c-.002.03-.001.068-.008.106a3.6 3.6 0 0 1-.09.384c-.057.196-.176.352-.159.359-.193.146-.946.659-1.74 1.476-.281.288-.5.73-.752 1.112-.244-.404-.528-.654-.7-1.13.01.03-.216-1.607-.216-2.295 0-1.084.752-1.836 1.831-1.836z" clip-path="url(#i)" fill-opacity=".784" fill-rule="evenodd" filter="url(#j)" transform="translate(-20.344 -47.905)"/><path d="M48.988 28.201v.008c-7.979 0-14.295 6.327-14.295 14.312 0 .208.015.492.018.72.184-7.818 6.417-13.962 14.277-13.962v-.008c7.873 0 14.125 6.169 14.291 13.997a4.53 4.53 0 0 0 .033-.557 6.262 6.262 0 0 1-.017-.197c0-7.98-6.327-14.313-14.307-14.313zm6.895 14.692c-.065.38-.185.918-.334 1.427-.217.741-.667 1.333-.602 1.358-.73.551-3.577 2.492-6.58 5.578-1.06 1.09-1.89 2.757-2.84 4.203-.92-1.526-1.997-2.472-2.648-4.272.039.108-.692-5.222-.793-8.06-.008.152-.02.303-.02.459 0 2.603.855 8.787.813 8.672.651 1.8 1.727 2.747 2.648 4.273.95-1.446 1.78-3.113 2.84-4.203 3.003-3.086 5.85-5.028 6.58-5.58-.065-.025.385-.616.602-1.357.151-.518.276-1.066.34-1.448.024-.145.023-.286.025-.4a8.37 8.37 0 0 0-.031-.65zm.031.65c0-.015.001.012.002.008v-.008zm.002.008c.001.014.004.02.004.033h.008c0-.02-.008-.052-.012-.033zm.012.033c0 .042-.003.026.01.422a7.35 7.35 0 0 1 .017-.422zm-27.522-.387c-.002.128-.01.255-.01.383 0 3.261.117 9.128 1.643 13.344 2.012 5.56 5.168 11.033 9.605 14.914 4.467 3.906 14.85 7.38 20.784 7.392a26.636 26.636 0 0 0 3.629-.308c-.01-.486-.037-.565-.001-1.072-.636.158-2.942.296-3.628.31-5.934-.012-16.317-3.487-20.784-7.392-4.437-3.881-7.593-9.355-9.605-14.914-1.434-3.963-1.615-9.312-1.633-12.657zm41.172.004c-.06 2.83-.985 8.669-5.22 12.416-3.78 3.343-9.534 6.184-9.212 12.479.34-5.56 5.653-8.26 9.211-11.409 4.597-4.066 5.309-10.64 5.23-13.107 0-.127-.007-.252-.009-.379zm-14.273 3.276c-.028.024-.297.226-.356.271.026 0 .113-.059.356-.271zM48.86 68.254c-.004.12-.012.238-.013.36l.023.011v-.023c-.007-.117-.005-.232-.01-.348z" transform="scale(.26458)" opacity=".25" fill="#feffff" fill-rule="evenodd" filter="url(#k)"/></svg>