<svg xmlns="http://www.w3.org/2000/svg" xmlns:xlink="http://www.w3.org/1999/xlink" width="96" height="96" viewBox="0 0 25.4 25.4"><defs><radialGradient xlink:href="#a" id="e" gradientUnits="userSpaceOnUse" gradientTransform="matrix(2.02569 5.63744 -4.82012 1.732 62.318 -820.67)" cx="149.744" cy="73.055" fx="149.744" fy="73.055" r="4.047"/><linearGradient id="a"><stop offset="0" stop-color="#f9f7f7"/><stop offset=".226" stop-color="#f9ebe7"/><stop offset="1" stop-color="#646466"/></linearGradient><linearGradient xlink:href="#b" id="f" gradientUnits="userSpaceOnUse" x1="21.048" y1="143.714" x2="21.048" y2="170.04" gradientTransform="translate(-.003)"/><linearGradient id="b"><stop offset="0" stop-color="#f4f1f1"/><stop offset=".226" stop-color="#f9ebe7"/><stop offset="1" stop-color="#646466"/></linearGradient><filter id="d" x="-.06" width="1.12" y="-.06" height="1.12" color-interpolation-filters="sRGB"><feGaussianBlur stdDeviation=".847"/></filter><filter id="j" x="-.011" width="1.023" y="-.013" height="1.025" color-interpolation-filters="sRGB"><feGaussianBlur stdDeviation=".459"/></filter><clipPath id="h"><path d="M74.34 203.69l-4.117 9.426s-.355.738-.187.902c.18.175 1.105-.152 1.105-.152l6.732-2.822-4.543-.072zm-18.568 0l4.116 9.426s.355.738.187.902c-.18.175-1.105-.152-1.105-.152l-6.73-2.822 4.541-.072zm9.306 7.897c-1.746 0-3.319 1.415-3.318 3.16 0 1.37.875 2.524 2.093 2.963v.861c-.052.002-1.41.057-2.001-.178-.527-.209-4.587-2.931-4.587-2.931s-1.153-.555-1.505-.205c-.486.482.27 1.543.728 1.976 1.78 1.689 4.625 3.612 4.625 4.776v4.301c0 .161.16.29.35.29l7.175-.001c.213 0 .36-.154.36-.345v-4.244c0-1.165 2.845-3.088 4.626-4.777.457-.433 1.214-1.494.728-1.976-.352-.35-1.505.205-1.505.205s-4.06 2.722-4.587 2.931c-.592.235-1.95.18-2.001.178v-.86a3.152 3.152 0 0 0 2.093-2.963c0-1.746-1.415-3.161-3.217-3.161z" fill="url(#linearGradient1142)" stroke-width=".418" stroke-dashoffset="87.464"/></clipPath><filter id="i" x="-.024" width="1.047" y="-.024" height="1.049" color-interpolation-filters="sRGB"><feGaussianBlur stdDeviation=".368"/></filter><linearGradient xlink:href="#c" id="g" gradientUnits="userSpaceOnUse" gradientTransform="matrix(4.18378 0 0 4.18378 -643.767 -307.522)" x1="162.104" y1="90.407" x2="162.104" y2="85.005"/><linearGradient id="c"><stop offset="0" stop-color="#525c90"/><stop offset="1" stop-color="#262b43"/></linearGradient></defs><g transform="matrix(.6979 0 0 .6979 -1.542 -98.783)" filter="url(#d)"><circle r="16.933" cy="160.515" cx="20.784"/><circle cx="20.784" cy="160.515" r="16.933" opacity=".5"/></g><g transform="matrix(.6979 0 0 .6979 -1.802 -99.35)"><circle r="16.933" cy="160.515" cx="20.784" fill="url(#e)"/><circle cx="20.78" cy="160.515" r="16.933" opacity=".5" fill="url(#f)"/></g><g><path d="M43.593 48.043l-4.116 9.426s-.356.738-.187.901c.18.175 1.105-.152 1.105-.152l6.73-2.822-4.541-.072zm-18.568 0l4.116 9.426s.356.738.187.901c-.18.175-1.105-.152-1.105-.152l-6.73-2.822 4.541-.072zm9.307 7.896c-1.746 0-3.32 1.415-3.32 3.161 0 1.37.876 2.524 2.094 2.963v.86c-.051.003-1.41.057-2-.177-.527-.21-4.588-2.932-4.588-2.932s-1.153-.554-1.505-.205c-.486.482.271 1.543.728 1.976 1.78 1.69 4.625 3.612 4.625 4.777v4.3c0 .162.16.291.35.291 2.391 0 4.783 0 7.175-.002.214 0 .361-.153.361-.344v-4.245c0-1.164 2.844-3.087 4.625-4.776.457-.433 1.214-1.495.728-1.976-.352-.35-1.505.205-1.505.205s-4.06 2.722-4.587 2.931c-.591.235-1.95.18-2 .178v-.86a3.152 3.152 0 0 0 2.092-2.963c0-1.746-1.415-3.162-3.217-3.161z" fill="url(#g)" transform="matrix(.62023 0 0 .62023 -8.317 -23.96)"/><path clip-path="url(#h)" d="M47.493 198.443v36.248h37.306v-36.248zm8.279 5.908l4.116 9.427s.355.738.187.901c-.18.175-1.105-.152-1.105-.152l-6.73-2.822 4.541-.072zm18.568 0l-1.01 7.282 4.542.073-6.73 2.821s-.926.327-1.105.152c-.169-.163.187-.901.187-.901zm-9.262 7.897h.057c1.802 0 3.217 1.416 3.217 3.162a3.152 3.152 0 0 1-2.093 2.962v.86c.051.003 1.41.058 2-.177.528-.21 4.588-2.931 4.588-2.931s1.153-.555 1.505-.205c.486.481-.271 1.543-.728 1.976-1.781 1.689-4.625 3.612-4.625 4.776v4.245c0 .19-.148.345-.36.345l-7.177.002c-.188 0-.349-.13-.349-.291v-4.301c0-1.165-2.844-3.088-4.625-4.777-.457-.433-1.214-1.494-.728-1.975.352-.35 1.505.204 1.505.204s4.06 2.722 4.587 2.931c.591.235 1.949.18 2 .179v-.861a3.152 3.152 0 0 1-2.092-2.963c0-1.746 1.572-3.161 3.318-3.161z" transform="matrix(.62023 0 0 .62023 -27.387 -120.497)" fill-opacity=".784" fill-rule="evenodd" filter="url(#i)"/><path transform="matrix(.1641 0 0 .1641 4.833 5.838)" d="M14.452 2.5l3.47 25.027.345-.006-3.307-23.86zm70.178 0l-.508 1.162-3.306 23.86.345.005zM6.847 30.203l-5.746.092 25.44 10.664s3.496 1.237 4.175.576c.384-.374.05-1.499-.277-2.363-1.054.29-3.899-.713-3.899-.713zm85.389 0l-19.694 8.256s-2.844 1.003-3.898.713c-.328.864-.662 1.99-.278 2.363.68.66 4.176-.576 4.176-.576l25.44-10.664zM61.93 43.017c-.475 4.63-3.609 8.447-7.842 9.975v2.5c4.602-1.66 7.91-6.023 7.91-11.197 0-.432-.023-.858-.068-1.278zm-24.774.026c-.047.41-.074.827-.074 1.25 0 5.174 3.309 9.536 7.91 11.197v-2.5c-4.225-1.525-7.351-5.33-7.836-9.947zm-23.066 3.595c-1.114 1.959 1.463 5.527 3.066 7.047C23.89 60.068 34.64 67.337 34.64 71.738v-2.5c0-4.401-10.75-11.67-17.483-18.053-1.04-.986-2.478-2.834-3.066-4.547zm70.9 0c-.587 1.713-2.025 3.562-3.066 4.55-6.732 6.382-17.48 13.65-17.48 18.052v2.5c0-4.401 10.748-11.67 17.48-18.053 1.604-1.52 4.181-5.09 3.066-7.049zM64.445 85.283c0 .72-.558 1.303-1.364 1.303-9.04.004-18.08.007-27.12.008-.714 0-1.321-.492-1.321-1.1v2.5c0 .608.607 1.1 1.32 1.1 9.04 0 18.08-.004 27.121-.008.806 0 1.364-.582 1.364-1.303z" opacity=".25" fill="#d6d7de" filter="url(#j)"/></g></svg>