<svg xmlns="http://www.w3.org/2000/svg" xmlns:xlink="http://www.w3.org/1999/xlink" width="96" height="96" viewBox="0 0 25.4 25.4"><defs><radialGradient xlink:href="#a" id="f" gradientUnits="userSpaceOnUse" gradientTransform="matrix(2.02569 5.63744 -4.82012 1.732 62.318 -820.67)" cx="149.744" cy="73.055" fx="149.744" fy="73.055" r="4.047"/><linearGradient id="a"><stop offset="0" stop-color="#f9f7f7"/><stop offset=".226" stop-color="#f9ebe7"/><stop offset="1" stop-color="#646466"/></linearGradient><linearGradient xlink:href="#b" id="g" gradientUnits="userSpaceOnUse" x1="21.048" y1="143.714" x2="21.048" y2="170.04" gradientTransform="translate(-.003)"/><linearGradient id="b"><stop offset="0" stop-color="#f4f1f1"/><stop offset=".226" stop-color="#f9ebe7"/><stop offset="1" stop-color="#646466"/></linearGradient><filter id="e" x="-.06" width="1.12" y="-.06" height="1.12" color-interpolation-filters="sRGB"><feGaussianBlur stdDeviation=".847"/></filter><linearGradient xlink:href="#c" id="h" x1="150.677" y1="76.07" x2="150.677" y2="75.047" gradientUnits="userSpaceOnUse" gradientTransform="matrix(15.8127 0 0 15.8127 -2349.31 -1133.627)"/><linearGradient id="c"><stop offset="0" stop-color="#525c90"/><stop offset="1" stop-color="#262b43"/></linearGradient><clipPath id="i"><path d="M33.308 53.041s-3.648 1.29-7.332 3.416c0 10.992 7.332 12.788 7.332 12.788s7.33-1.82 7.33-12.788c-3.842-2.218-7.33-3.416-7.33-3.416zm0 1.34s2.911 1 6.118 2.85c0 9.155-6.118 10.675-6.118 10.675s-6.12-1.5-6.12-10.674c3.075-1.776 6.12-2.851 6.12-2.851zm-.544 1.365v.807h-.525v.799h.515v2.09h-2.6V60.5h1.832v4.72c.435.436.917.898 1.34 1.32.43-.432.898-.852 1.302-1.32V60.5h1.832v-1.058h-2.6v-2.09h.516v-.8h-.526v-.806h-.543z" fill="url(#d)" stroke-width=".418" stroke-dashoffset="87.464"/></clipPath><linearGradient xlink:href="#c" id="d" gradientUnits="userSpaceOnUse" gradientTransform="matrix(15.8127 0 0 15.8127 -2349.31 -1133.627)" x1="150.677" y1="76.07" x2="150.677" y2="75.047"/><filter id="j" x="-.024" width="1.048" y="-.024" height="1.048" color-interpolation-filters="sRGB"><feGaussianBlur stdDeviation=".256"/></filter></defs><g transform="matrix(.6979 0 0 .6979 -1.542 -98.783)" filter="url(#e)"><circle r="16.933" cy="160.515" cx="20.784"/><circle cx="20.784" cy="160.515" r="16.933" opacity=".5"/></g><g transform="matrix(.6979 0 0 .6979 -1.802 -99.35)"><circle r="16.933" cy="160.515" cx="20.784" fill="url(#f)"/><circle cx="20.78" cy="160.515" r="16.933" opacity=".5" fill="url(#g)"/></g><path style="font-variant-east_asian:normal" d="M33.308 53.041s-3.648 1.29-7.332 3.416c0 10.992 7.332 12.788 7.332 12.788s7.33-1.82 7.33-12.788c-3.842-2.218-7.33-3.416-7.33-3.416zm0 1.34s2.911 1 6.118 2.85c0 9.155-6.118 10.675-6.118 10.675s-6.12-1.5-6.12-10.674c3.075-1.776 6.12-2.851 6.12-2.851zm-.544 1.365v.807h-.525v.799h.515v2.09h-2.6V60.5h1.832v4.72c.435.436.917.898 1.34 1.32.43-.432.898-.852 1.302-1.32V60.5h1.832v-1.058h-2.6v-2.09h.516v-.8h-.526v-.806h-.543z" fill="url(#h)" transform="translate(-20.344 -47.905)"/><path d="M20.297 48.122v25.655h25.466V48.122zm13.01 5.203s3.49 1.197 7.332 3.416c0 10.967-7.331 12.788-7.331 12.788s-7.332-1.797-7.332-12.788c3.684-2.127 7.332-3.416 7.332-3.416zm0 1.34s-3.044 1.075-6.119 2.85c0 9.175 6.12 10.674 6.12 10.674s6.118-1.519 6.118-10.674c-3.207-1.851-6.118-2.85-6.118-2.85zm-.542 1.365h1.085v.806h.526v.8h-.516v2.09h2.6v1.057h-1.832v4.721c-.404.467-.872.888-1.302 1.32-.423-.423-.905-.885-1.34-1.32v-4.72h-1.831v-1.059h2.6v-2.09h-.516v-.799h.526z" clip-path="url(#i)" fill-opacity=".784" fill-rule="evenodd" filter="url(#j)" transform="translate(-20.344 -47.905)"/><path d="M12.964 6.476s-3.045 1.076-6.12 2.851c0 .096.004.186.006.28 3.072-1.773 6.114-2.848 6.114-2.848s2.908.999 6.112 2.848c.002-.094.006-.184.006-.28-3.207-1.851-6.118-2.85-6.118-2.85zM5.638 8.833l-.006.003c0 10.992 7.332 12.789 7.332 12.789s7.33-1.82 7.33-12.789c-.002 0-.003-.002-.005-.003-.126 10.714-7.325 12.508-7.325 12.508s-7.2-1.771-7.326-12.508zm6.256.614v.284h.516v-.284h-.516zm1.621 0v.284h.517v-.284h-.517zm-3.704 3.148v.283h1.831v-.283H9.811zm4.472 0v.283h1.832v-.283h-1.832zm-2.64 4.721v.283c.434.435.916.898 1.339 1.32.43-.432.898-.853 1.301-1.32v-.283c-.403.467-.871.888-1.301 1.32-.423-.423-.905-.885-1.34-1.32z" opacity=".25" fill="#fff"/></svg>