<svg xmlns="http://www.w3.org/2000/svg" xmlns:xlink="http://www.w3.org/1999/xlink" width="96" height="96" viewBox="0 0 25.4 25.4"><defs><radialGradient xlink:href="#a" id="f" gradientUnits="userSpaceOnUse" gradientTransform="matrix(2.02569 5.63744 -4.82012 1.732 62.318 -820.67)" cx="149.744" cy="73.055" fx="149.744" fy="73.055" r="4.047"/><linearGradient id="a"><stop offset="0" stop-color="#f9f7f7"/><stop offset=".226" stop-color="#f9ebe7"/><stop offset="1" stop-color="#646466"/></linearGradient><linearGradient xlink:href="#b" id="g" gradientUnits="userSpaceOnUse" x1="21.048" y1="143.714" x2="21.048" y2="170.04" gradientTransform="translate(-.003)"/><linearGradient id="b"><stop offset="0" stop-color="#f4f1f1"/><stop offset=".226" stop-color="#f9ebe7"/><stop offset="1" stop-color="#646466"/></linearGradient><filter id="e" x="-.06" width="1.12" y="-.06" height="1.12" color-interpolation-filters="sRGB"><feGaussianBlur stdDeviation=".847"/></filter><linearGradient xlink:href="#c" id="h" x1="150.679" y1="76.084" x2="150.679" y2="75.03" gradientUnits="userSpaceOnUse" gradientTransform="matrix(15.8127 0 0 15.8127 -2349.31 -1133.627)"/><linearGradient id="c"><stop offset="0" stop-color="#525c90"/><stop offset="1" stop-color="#262b43"/></linearGradient><clipPath id="i"><path d="M32.47 52.819v1.243h-.811v1.233h.795v3.224h-4.01v1.631h2.826v7.283c.67.67 1.414 1.383 2.066 2.035.663-.667 1.385-1.315 2.008-2.035V60.15h2.826V58.52h-4.01v-3.224h.796v-1.233h-.811V52.82h-.838z" fill="url(#d)" stroke-width=".418" stroke-dashoffset="87.464"/></clipPath><linearGradient xlink:href="#c" id="d" gradientUnits="userSpaceOnUse" gradientTransform="matrix(15.8127 0 0 15.8127 -2349.31 -1133.627)" x1="150.679" y1="76.084" x2="150.679" y2="75.03"/><filter id="j" x="-.024" width="1.048" y="-.024" height="1.048" color-interpolation-filters="sRGB"><feGaussianBlur stdDeviation=".255"/></filter><filter id="k" x="-.015" width="1.03" y="-.01" height="1.02" color-interpolation-filters="sRGB"><feGaussianBlur stdDeviation=".228"/></filter></defs><g transform="matrix(.6979 0 0 .6979 -1.542 -98.783)" filter="url(#e)"><circle r="16.933" cy="160.515" cx="20.784"/><circle cx="20.784" cy="160.515" r="16.933" opacity=".5"/></g><g transform="matrix(.6979 0 0 .6979 -1.802 -99.35)"><circle r="16.933" cy="160.515" cx="20.784" fill="url(#f)"/><circle cx="20.78" cy="160.515" r="16.933" opacity=".5" fill="url(#g)"/></g><path style="font-variant-east_asian:normal" d="M32.47 52.819v1.243h-.811v1.233h.795v3.224h-4.01v1.631h2.826v7.283c.67.67 1.414 1.383 2.066 2.035.663-.667 1.385-1.315 2.008-2.035V60.15h2.826V58.52h-4.01v-3.224h.796v-1.233h-.811V52.82h-.838z" fill="url(#h)" transform="translate(-20.344 -47.905)"/><path d="M20.25 48.169v25.42h25.607v-25.42zm12.22 4.934H34.145v1.243h.81v1.233h-.796v3.223h4.011v1.632h-2.826v7.282c-.623.72-1.345 1.369-2.008 2.035-.652-.651-1.396-1.364-2.066-2.035v-7.282h-2.825v-1.632h4.009V55.58h-.795v-1.233h.811z" clip-path="url(#i)" fill-opacity=".784" fill-rule="evenodd" filter="url(#j)" transform="translate(-20.344 -47.905)"/><path d="M42.764 27.934v1.07h3.006v-1.07h-3.006zm9.45 0v1.07h3.01v-1.07h-3.01zm-21.597 18.35v1.071h10.676v-1.072H30.617zm26.074 0v1.071h10.682v-1.072H56.691zM41.293 73.806v1.072c2.535 2.535 5.347 5.229 7.81 7.691 2.507-2.518 5.235-4.97 7.588-7.691v-1.072c-2.353 2.722-5.08 5.172-7.587 7.691-2.464-2.463-5.276-5.156-7.811-7.691z" transform="scale(.26458)" opacity=".25" fill="#fff" filter="url(#k)"/></svg>