<?xml version="1.0" encoding="UTF-8" standalone="no"?>
<!-- Created with Inkscape (http://www.inkscape.org/) -->

<svg
   xmlns:dc="http://purl.org/dc/elements/1.1/"
   xmlns:cc="http://creativecommons.org/ns#"
   xmlns:rdf="http://www.w3.org/1999/02/22-rdf-syntax-ns#"
   xmlns:svg="http://www.w3.org/2000/svg"
   xmlns="http://www.w3.org/2000/svg"
   xmlns:xlink="http://www.w3.org/1999/xlink"
   xmlns:sodipodi="http://sodipodi.sourceforge.net/DTD/sodipodi-0.dtd"
   xmlns:inkscape="http://www.inkscape.org/namespaces/inkscape"
   width="96"
   height="96"
   viewBox="0 0 25.400001 25.400001"
   version="1.1"
   id="svg983"
   inkscape:version="0.92.2 (5c3e80d, 2017-08-06)"
   sodipodi:docname="hs.svg">
  <defs
     id="defs977">
    <clipPath
       clipPathUnits="userSpaceOnUse"
       id="clipPath5560">
      <path
         d="m 113.79956,163.29203 c -0.32852,0 -0.59376,0.26523 -0.59376,0.59376 v 1.20111 h -1.20111 c -0.32851,0 -0.59375,0.26523 -0.59375,0.59375 v 0.80679 c 0,0.32851 0.26523,0.59375 0.59375,0.59375 h 1.20111 v 1.2011 c 0,0.32851 0.26523,0.59375 0.59376,0.59375 h 0.80677 c 0.32852,0 0.59376,-0.26523 0.59376,-0.59375 v -1.2011 h 1.20111 c 0.32852,0 0.59375,-0.26523 0.59375,-0.59375 v -0.80679 c 0,-0.32852 -0.26523,-0.59375 -0.59375,-0.59375 h -1.20111 v -1.20111 c 0,-0.32851 -0.26523,-0.59376 -0.59376,-0.59376 z M 102.77657,148.7881 c -0.32851,0 -0.59375,0.26523 -0.59375,0.59376 v 1.20111 h -1.20111 c -0.32852,0 -0.59376,0.26523 -0.59376,0.59375 v 0.80679 c 1e-5,0.32851 0.26523,0.59375 0.59376,0.59375 h 1.20111 v 1.2011 c 0,0.32851 0.26523,0.59376 0.59375,0.59376 h 0.80678 c 0.32851,0 0.59375,-0.26523 0.59375,-0.59376 v -1.2011 h 1.20111 c 0.32852,0 0.59375,-0.26523 0.59375,-0.59375 v -0.80679 c 0,-0.32852 -0.26523,-0.59375 -0.59375,-0.59375 h -1.20111 v -1.20111 c 0,-0.32851 -0.26523,-0.59376 -0.59375,-0.59376 z m 12.12913,-0.0679 c -0.46707,-0.41956 -1.09395,-0.66113 -1.77084,-0.62487 -1.35395,0.0724 -2.39337,1.22904 -2.32091,2.58276 0.0311,0.57993 -0.0991,1.10952 -0.21572,1.72756 0,0 -0.10981,0.86922 -0.48752,1.28421 -1.04993,1.15334 -1.85985,2.07337 -3.34665,3.73346 -1.53448,1.61611 -2.38593,2.49784 -3.45073,3.63747 -0.38307,0.41004 -1.24061,0.58975 -1.24061,0.58975 -0.60658,0.16621 -1.12393,0.33856 -1.70446,0.35461 -1.355205,0.0368 -2.424003,1.16671 -2.386712,2.52207 0.03684,1.35522 1.164973,2.42241 2.520332,2.38512 0.49664,-0.0739 0.83244,-0.48395 1.00498,-0.34465 0.15275,0.16072 -0.22879,0.52856 -0.26234,1.02954 0.0724,1.35394 1.22731,2.39176 2.58104,2.3193 1.35394,-0.0724 2.39336,-1.22905 2.3209,-2.58276 -0.0311,-0.57993 0.0991,-1.10952 0.21572,-1.72754 0,0 0.10981,-0.86925 0.48756,-1.28422 1.04993,-1.15335 1.85985,-2.07337 3.34665,-3.73346 1.53447,-1.61612 2.38594,-2.49785 3.45074,-3.63748 0.38307,-0.41003 1.2406,-0.58974 1.2406,-0.58974 0.60658,-0.16621 1.12393,-0.33856 1.70446,-0.35461 1.35521,-0.0368 2.42406,-1.16665 2.38671,-2.52207 -0.0368,-1.35522 -1.16491,-2.42247 -2.52034,-2.38512 -0.49663,0.0739 -0.83244,0.48395 -1.00496,0.34466 -0.15275,-0.16073 0.22878,-0.52857 0.26233,-1.02955 -0.036,-0.67696 -0.34325,-1.27473 -0.81023,-1.69437 z m -1.31626,4.74538 c 0.21309,0.19646 0.6701,1.13955 0.31878,1.5205 -0.15897,0.17239 -2.32951,2.45223 -4.57085,4.81033 -2.16921,2.42459 -4.26615,4.77231 -4.42512,4.9447 -0.35132,0.38092 -1.32825,0.002 -1.5413,-0.19484 -0.21308,-0.19647 -0.6701,-1.13956 -0.31877,-1.52052 0.15897,-0.17239 2.32951,-2.45223 4.57084,-4.81032 2.16921,-2.42461 4.26615,-4.77232 4.42512,-4.94471 0.35128,-0.38092 1.32825,-0.002 1.5413,0.19485 z"
         style="opacity:1;vector-effect:none;fill:url(#linearGradient5564);fill-opacity:1;stroke:none;stroke-width:0.41837776;stroke-linecap:butt;stroke-linejoin:miter;stroke-miterlimit:4;stroke-dasharray:none;stroke-dashoffset:87.46364594;stroke-opacity:1;paint-order:normal"
         id="path5562"
         inkscape:connector-curvature="0" />
    </clipPath>
    <radialGradient
       inkscape:collect="always"
       xlink:href="#linearGradient5103"
       id="radialGradient5440"
       gradientUnits="userSpaceOnUse"
       gradientTransform="matrix(2.0256904,5.6374377,-4.8201238,1.7320063,62.317553,-820.67056)"
       cx="149.74358"
       cy="73.055466"
       fx="149.74358"
       fy="73.055466"
       r="4.047379" />
    <linearGradient
       inkscape:collect="always"
       id="linearGradient5103">
      <stop
         style="stop-color:#f9f7f7;stop-opacity:1"
         offset="0"
         id="stop5099" />
      <stop
         id="stop5203"
         offset="0.2258819"
         style="stop-color:#f9ebe7;stop-opacity:1" />
      <stop
         style="stop-color:#646466;stop-opacity:1"
         offset="1"
         id="stop5101" />
    </linearGradient>
    <linearGradient
       inkscape:collect="always"
       xlink:href="#linearGradient5221"
       id="linearGradient5442"
       gradientUnits="userSpaceOnUse"
       x1="21.048168"
       y1="143.71417"
       x2="21.048168"
       y2="170.04021"
       gradientTransform="translate(-0.00324329)" />
    <linearGradient
       id="linearGradient5221"
       inkscape:collect="always">
      <stop
         id="stop5215"
         offset="0"
         style="stop-color:#f4f1f1;stop-opacity:1" />
      <stop
         style="stop-color:#f9ebe7;stop-opacity:1"
         offset="0.2258819"
         id="stop5217" />
      <stop
         id="stop5219"
         offset="1"
         style="stop-color:#646466;stop-opacity:1" />
    </linearGradient>
    <filter
       inkscape:collect="always"
       style="color-interpolation-filters:sRGB"
       id="filter5649"
       x="-0.059999999"
       width="1.12"
       y="-0.059999999"
       height="1.12">
      <feGaussianBlur
         inkscape:collect="always"
         stdDeviation="0.84666662"
         id="feGaussianBlur5651" />
    </filter>
    <linearGradient
       inkscape:collect="always"
       xlink:href="#linearGradient5112"
       id="linearGradient5114"
       x1="150.67442"
       y1="76.065941"
       x2="150.67442"
       y2="75.04969"
       gradientUnits="userSpaceOnUse"
       gradientTransform="matrix(15.812703,0,0,15.812703,-2349.3106,-1133.9614)" />
    <linearGradient
       inkscape:collect="always"
       id="linearGradient5112">
      <stop
         style="stop-color:#525c90;stop-opacity:1"
         offset="0"
         id="stop5108" />
      <stop
         style="stop-color:#262b43;stop-opacity:1"
         offset="1"
         id="stop5110" />
    </linearGradient>
    <clipPath
       clipPathUnits="userSpaceOnUse"
       id="clipPath863">
      <path
         style="display:inline;opacity:1;vector-effect:none;fill:url(#linearGradient867);fill-opacity:1;stroke:none;stroke-width:0.41837776;stroke-linecap:butt;stroke-linejoin:miter;stroke-miterlimit:4;stroke-dasharray:none;stroke-dashoffset:87.46364594;stroke-opacity:1;paint-order:normal"
         d="m 33.320408,52.662743 c -0.445414,0 -0.828437,0.146157 -1.150646,0.437832 -0.312731,0.291699 -0.46969,0.679996 -0.46969,1.163618 0,0.199596 0.02923,0.501868 0.08609,0.90871 l 1.250946,9.326637 h 0.539321 l 1.279263,-9.326637 c 0.03791,-0.330087 0.05664,-0.586434 0.05664,-0.770638 0,-0.575722 -0.155748,-1.009991 -0.468502,-1.30169 -0.303252,-0.291697 -0.678077,-0.437832 -1.12349,-0.437832 z m -5.62219,3.567561 v 1.222629 c -7.41e-4,0.864567 -0.0023,1.778596 -0.0023,2.445257 H 24.95687 l 2.7391,2.30008 v 2.814625 c 0,0.0045 0.0021,0.0068 0.0023,0.01141 v 0.213527 h 0.218322 c 0.0021,6.6e-5 0.0045,0.0013 0.0068,0.0013 h 3.638378 c -1.860924,-0.720094 -3.088508,-2.509219 -3.090791,-4.504608 3.87e-4,-1.99242 1.222696,-3.780699 3.078984,-4.50459 h -3.237131 -0.612491 z m 7.353446,0 c 1.860924,0.720099 3.088509,2.509224 3.090791,4.50459 -3.97e-4,1.992444 -1.222719,3.7807 -3.078985,4.50459 h 3.626573 c 0.002,0 0.0045,-0.0012 0.0068,-0.0013 h 0.220606 v -0.225405 -2.813436 l 2.740265,-2.301268 h -2.740262 v -3.667847 h -0.698655 z m -1.745415,10.181064 c -0.353107,0 -0.6554,0.126745 -0.908709,0.380008 -0.245637,0.245636 -0.369391,0.540828 -0.369391,0.886285 0,0.353106 0.123777,0.656564 0.369391,0.909874 0.253309,0.245636 0.555602,0.368203 0.908709,0.368203 0.353107,0 0.652432,-0.122636 0.898068,-0.368203 0.253331,-0.25331 0.380009,-0.556768 0.380009,-0.909874 0,-0.345457 -0.126746,-0.640649 -0.380009,-0.886285 -0.245636,-0.253331 -0.544961,-0.380008 -0.898068,-0.380008 z"
         id="path865"
         inkscape:connector-curvature="0" />
    </clipPath>
    <linearGradient
       inkscape:collect="always"
       xlink:href="#linearGradient5112"
       id="linearGradient867"
       gradientUnits="userSpaceOnUse"
       gradientTransform="matrix(15.812703,0,0,15.812703,-2349.3106,-1133.9614)"
       x1="150.67442"
       y1="76.065941"
       x2="150.67442"
       y2="75.04969" />
    <filter
       inkscape:collect="always"
       style="color-interpolation-filters:sRGB"
       id="filter873"
       x="-0.0240444"
       width="1.0480888"
       y="-0.023955764"
       height="1.0479115">
      <feGaussianBlur
         inkscape:collect="always"
         stdDeviation="0.25466146"
         id="feGaussianBlur875" />
    </filter>
    <filter
       inkscape:collect="always"
       style="color-interpolation-filters:sRGB"
       id="filter884"
       x="-0.011337768"
       width="1.0226755"
       y="-0.012744392"
       height="1.0254888">
      <feGaussianBlur
         inkscape:collect="always"
         stdDeviation="0.29818848"
         id="feGaussianBlur886" />
    </filter>
  </defs>
  <sodipodi:namedview
     id="base"
     pagecolor="#ffffff"
     bordercolor="#666666"
     borderopacity="1.0"
     inkscape:pageopacity="0.0"
     inkscape:pageshadow="2"
     inkscape:zoom="5.6"
     inkscape:cx="-15.762849"
     inkscape:cy="29.878925"
     inkscape:document-units="mm"
     inkscape:current-layer="layer1"
     showgrid="false"
     fit-margin-top="0"
     fit-margin-left="0"
     fit-margin-right="0"
     fit-margin-bottom="0"
     units="px"
     inkscape:window-width="1819"
     inkscape:window-height="1057"
     inkscape:window-x="-8"
     inkscape:window-y="-8"
     inkscape:window-maximized="1" />
  <metadata
     id="metadata980">
    <rdf:RDF>
      <cc:Work
         rdf:about="">
        <dc:format>image/svg+xml</dc:format>
        <dc:type
           rdf:resource="http://purl.org/dc/dcmitype/StillImage" />
        <dc:title />
      </cc:Work>
    </rdf:RDF>
  </metadata>
  <g
     inkscape:label="Layer 1"
     inkscape:groupmode="layer"
     id="layer1"
     transform="translate(-20.344192,-47.904613)">
    <g
       id="g1639"
       transform="matrix(0.69789138,0,0,0.69789138,5.873514,23.220408)">
      <g
         transform="translate(18.52594,-106.17593)"
         style="display:inline;fill:#000000;fill-opacity:1;filter:url(#filter5649)"
         id="g5904">
        <circle
           r="16.933332"
           cy="160.51521"
           cx="20.783585"
           id="circle5900"
           style="display:inline;opacity:1;vector-effect:none;fill:#000000;fill-opacity:1;stroke:none;stroke-width:1.27242613;stroke-linecap:butt;stroke-linejoin:miter;stroke-miterlimit:4;stroke-dasharray:none;stroke-dashoffset:87.46364594;stroke-opacity:1;paint-order:normal" />
        <circle
           style="display:inline;opacity:0.5;vector-effect:none;fill:#000000;fill-opacity:1;stroke:none;stroke-width:1.27242613;stroke-linecap:butt;stroke-linejoin:miter;stroke-miterlimit:4;stroke-dasharray:none;stroke-dashoffset:87.46364594;stroke-opacity:1;paint-order:normal"
           id="circle5902"
           cx="20.783585"
           cy="160.51521"
           r="16.933332" />
      </g>
      <g
         style="display:inline;opacity:1"
         transform="translate(18.15219,-106.98851)"
         id="g5438">
        <circle
           r="16.933332"
           cy="160.51521"
           cx="20.783585"
           id="circle5434"
           style="display:inline;opacity:1;vector-effect:none;fill:url(#radialGradient5440);fill-opacity:1;stroke:none;stroke-width:1.27242613;stroke-linecap:butt;stroke-linejoin:miter;stroke-miterlimit:4;stroke-dasharray:none;stroke-dashoffset:87.46364594;stroke-opacity:1;paint-order:normal" />
        <circle
           style="display:inline;opacity:0.5;vector-effect:none;fill:url(#linearGradient5442);fill-opacity:1;stroke:none;stroke-width:1.27242613;stroke-linecap:butt;stroke-linejoin:miter;stroke-miterlimit:4;stroke-dasharray:none;stroke-dashoffset:87.46364594;stroke-opacity:1;paint-order:normal"
           id="circle5436"
           cx="20.780342"
           cy="160.51521"
           r="16.933332" />
      </g>
    </g>
    <path
       inkscape:connector-curvature="0"
       id="path1859"
       d="m 33.320408,52.662743 c -0.445414,0 -0.828437,0.146157 -1.150646,0.437832 -0.312731,0.291699 -0.46969,0.679996 -0.46969,1.163618 0,0.199596 0.02923,0.501868 0.08609,0.90871 l 1.250946,9.326637 h 0.539321 l 1.279263,-9.326637 c 0.03791,-0.330087 0.05664,-0.586434 0.05664,-0.770638 0,-0.575722 -0.155748,-1.009991 -0.468502,-1.30169 -0.303252,-0.291697 -0.678077,-0.437832 -1.12349,-0.437832 z m -5.62219,3.567561 v 1.222629 c -7.31e-4,0.864567 -0.0023,1.778596 -0.0023,2.445257 H 24.95687 l 2.7391,2.30008 v 2.814625 c 0,0.0045 0.0021,0.0068 0.0023,0.01141 v 0.213527 h 0.218322 c 0.0021,6.6e-5 0.0045,0.0013 0.0068,0.0013 h 3.63838 c -1.860924,-0.720099 -3.088508,-2.509224 -3.090791,-4.504613 3.87e-4,-1.99242 1.222696,-3.780699 3.078984,-4.50459 h -3.237131 -0.612491 z m 7.353446,0 c 1.860924,0.720099 3.088509,2.509224 3.090791,4.50459 -3.88e-4,1.992444 -1.222719,3.7807 -3.078985,4.50459 h 3.626573 c 0.002,0 0.0045,-0.0012 0.0068,-0.0013 h 0.220606 v -0.225401 -2.813436 l 2.740265,-2.301268 h -2.740262 v -3.667847 h -0.698655 z m -1.745415,10.181064 c -0.353107,0 -0.6554,0.126745 -0.908709,0.380008 -0.245637,0.245636 -0.369391,0.540828 -0.369391,0.886285 0,0.353106 0.123777,0.656564 0.369391,0.909874 0.253309,0.245636 0.555602,0.368203 0.908709,0.368203 0.353107,0 0.652432,-0.122636 0.898068,-0.368203 0.253331,-0.25331 0.380009,-0.556768 0.380009,-0.909874 0,-0.345457 -0.126746,-0.640649 -0.380009,-0.886285 -0.245636,-0.253331 -0.544961,-0.380008 -0.898068,-0.380008 z"
       style="display:inline;opacity:1;vector-effect:none;fill:url(#linearGradient5114);fill-opacity:1;stroke:none;stroke-width:0.41837776;stroke-linecap:butt;stroke-linejoin:miter;stroke-miterlimit:4;stroke-dasharray:none;stroke-dashoffset:87.46364594;stroke-opacity:1;paint-order:normal" />
    <path
       style="opacity:1;vector-effect:none;fill:#000000;fill-opacity:0.78431373;fill-rule:evenodd;stroke:none;stroke-width:0.4183777;stroke-linecap:butt;stroke-linejoin:miter;stroke-miterlimit:4;stroke-dasharray:none;stroke-dashoffset:330.57125854;stroke-opacity:1;paint-order:normal;filter:url(#filter873)"
       d="M 20.344192,48.121949 V 73.63512 h 25.41912 V 48.121949 Z m 12.975952,4.824512 h 5.17e-4 c 0.445182,1.15e-4 0.819796,0.146117 1.122928,0.437699 0.312755,0.291699 0.468706,0.726008 0.468706,1.30173 0,0.184204 -0.01893,0.440408 -0.05684,0.770495 l -1.278992,9.326562 h -0.539506 l -1.250569,-9.326562 c -0.05686,-0.406842 -0.0863,-0.708876 -0.0863,-0.908472 0,-0.483621 0.157008,-0.872054 0.469738,-1.163753 0.322083,-0.29156 0.705128,-0.437585 1.150318,-0.437699 z m -5.619812,3.566707 h 0.612366 3.237011 c -1.856287,0.723891 -3.078494,2.512215 -3.078881,4.504635 0.0023,1.995389 1.229843,3.784535 3.090767,4.504634 h -3.638021 c -0.0023,0 -0.0051,-9.67e-4 -0.0072,-10e-4 h -0.218075 v -0.213424 c -2e-4,-0.0046 -0.0021,-0.0069 -0.0021,-0.01137 V 62.481796 L 24.95683,60.181678 h 2.738851 c 0,-0.666661 0.0019,-1.580762 0.0026,-2.445329 v -1.222664 z m 7.351489,5.17e-4 h 3.166732 0.698665 v 3.667993 h 2.740402 l -2.740402,2.301152 v 2.813264 0.225827 h -0.220141 c -0.0023,10e-5 -0.0052,10e-4 -0.0072,10e-4 h -3.626135 c 1.856266,-0.72389 3.078494,-2.51219 3.078882,-4.504634 -0.0023,-1.995366 -1.229844,-3.784536 -3.090768,-4.504635 z m -1.74563,10.181291 c 0.353107,0 0.652501,0.12649 0.898137,0.379821 0.253263,0.245636 0.379821,0.540794 0.379821,0.886251 0,0.353106 -0.12649,0.656712 -0.379821,0.910022 -0.245636,0.245567 -0.54503,0.367936 -0.898137,0.367936 -0.353107,0 -0.655162,-0.1223 -0.908471,-0.367936 -0.245614,-0.25331 -0.369487,-0.556916 -0.369487,-0.910022 0,-0.345457 0.12385,-0.640615 0.369487,-0.886251 0.253309,-0.253263 0.555364,-0.379821 0.908471,-0.379821 z"
       id="rect854"
       inkscape:connector-curvature="0"
       clip-path="url(#clipPath863)" />
    <path
       style="display:inline;opacity:0.25;vector-effect:none;fill:#f5f5f5;fill-opacity:1;stroke:none;stroke-width:1.58127022;stroke-linecap:butt;stroke-linejoin:miter;stroke-miterlimit:4;stroke-dasharray:none;stroke-dashoffset:87.46364594;stroke-opacity:1;paint-order:normal;filter:url(#filter884)"
       d="M 42.945312 24.480469 C 42.928989 24.684992 42.919922 24.892973 42.919922 25.107422 C 42.919922 25.8618 43.03119 27.005298 43.246094 28.542969 L 47.972656 63.792969 L 50.011719 63.792969 L 54.845703 28.542969 C 54.988985 27.295396 55.060547 26.32511 55.060547 25.628906 C 55.060547 25.426767 55.051179 25.233924 55.041016 25.041016 C 55.018891 25.687878 54.961295 26.464232 54.845703 27.470703 L 50.011719 62.720703 L 47.972656 62.720703 L 43.246094 27.470703 C 43.064694 26.17276 42.974265 25.219521 42.945312 24.480469 z M 40.097656 32.537109 C 34.366608 35.730029 30.716143 41.801673 30.714844 48.490234 C 30.715046 48.66724 30.731052 48.841474 30.736328 49.017578 C 30.955353 41.708498 35.506063 35.206628 42.351562 32.537109 L 40.097656 32.537109 z M 55.587891 32.539062 C 62.456227 35.196818 67.028543 41.710058 67.248047 49.037109 C 67.253499 48.855176 67.269496 48.675078 67.269531 48.492188 C 67.261875 41.797651 63.59855 35.724153 57.857422 32.539062 L 55.587891 32.539062 z M 79.279297 46.400391 L 70.197266 54.027344 L 70.197266 55.099609 L 80.554688 46.400391 L 79.279297 46.400391 z M 17.433594 46.402344 L 27.787109 55.09375 L 27.787109 54.023438 L 18.710938 46.402344 L 17.433594 46.402344 z M 27.787109 64.662109 L 27.787109 65.732422 C 27.787109 65.74943 27.794166 65.757967 27.794922 65.775391 L 27.794922 66.582031 L 28.619141 66.582031 C 28.627078 66.582281 28.637791 66.587891 28.646484 66.587891 L 42.396484 66.587891 C 41.606549 66.282219 40.85333 65.918608 40.126953 65.515625 L 28.646484 65.515625 C 28.637791 65.515625 28.627078 65.511968 28.619141 65.511719 L 27.794922 65.511719 L 27.794922 64.705078 C 27.794166 64.687655 27.787109 64.679117 27.787109 64.662109 z M 69.365234 65.513672 C 69.356541 65.51405 69.34545 65.517578 69.337891 65.517578 L 57.886719 65.517578 C 57.165395 65.919448 56.417129 66.283983 55.632812 66.589844 L 69.337891 66.589844 C 69.34545 66.589844 69.356541 66.584362 69.365234 66.583984 L 70.197266 66.583984 L 70.197266 65.732422 L 70.197266 65.513672 L 69.365234 65.513672 z M 44.208984 75.275391 C 44.190601 75.451052 44.160156 75.621559 44.160156 75.804688 C 44.160156 77.139261 44.628336 78.284795 45.556641 79.242188 C 46.514029 80.170576 47.655657 80.634766 48.990234 80.634766 C 50.324812 80.634766 51.456378 80.170315 52.384766 79.242188 C 53.342237 78.284795 53.820312 77.139261 53.820312 75.804688 C 53.820312 75.621531 53.788382 75.451078 53.769531 75.275391 C 53.653958 76.377246 53.207797 77.348912 52.384766 78.171875 C 51.456378 79.100002 50.324812 79.5625 48.990234 79.5625 C 47.655657 79.5625 46.514029 79.100263 45.556641 78.171875 C 44.758662 77.348893 44.321775 76.377279 44.208984 75.275391 z "
       transform="matrix(0.26458333,0,0,0.26458333,20.344192,47.904613)"
       id="path879" />
  </g>
</svg>
