<?xml version="1.0" encoding="UTF-8" standalone="no"?>
<!-- Created with Inkscape (http://www.inkscape.org/) -->

<svg
   xmlns:dc="http://purl.org/dc/elements/1.1/"
   xmlns:cc="http://creativecommons.org/ns#"
   xmlns:rdf="http://www.w3.org/1999/02/22-rdf-syntax-ns#"
   xmlns:svg="http://www.w3.org/2000/svg"
   xmlns="http://www.w3.org/2000/svg"
   xmlns:xlink="http://www.w3.org/1999/xlink"
   xmlns:sodipodi="http://sodipodi.sourceforge.net/DTD/sodipodi-0.dtd"
   xmlns:inkscape="http://www.inkscape.org/namespaces/inkscape"
   width="96"
   height="96"
   viewBox="0 0 25.400001 25.400001"
   version="1.1"
   id="svg983"
   inkscape:version="0.92.2 (5c3e80d, 2017-08-06)"
   sodipodi:docname="ng.svg">
  <defs
     id="defs977">
    <clipPath
       clipPathUnits="userSpaceOnUse"
       id="clipPath5560">
      <path
         d="m 113.79956,163.29203 c -0.32852,0 -0.59376,0.26523 -0.59376,0.59376 v 1.20111 h -1.20111 c -0.32851,0 -0.59375,0.26523 -0.59375,0.59375 v 0.80679 c 0,0.32851 0.26523,0.59375 0.59375,0.59375 h 1.20111 v 1.2011 c 0,0.32851 0.26523,0.59375 0.59376,0.59375 h 0.80677 c 0.32852,0 0.59376,-0.26523 0.59376,-0.59375 v -1.2011 h 1.20111 c 0.32852,0 0.59375,-0.26523 0.59375,-0.59375 v -0.80679 c 0,-0.32852 -0.26523,-0.59375 -0.59375,-0.59375 h -1.20111 v -1.20111 c 0,-0.32851 -0.26523,-0.59376 -0.59376,-0.59376 z M 102.77657,148.7881 c -0.32851,0 -0.59375,0.26523 -0.59375,0.59376 v 1.20111 h -1.20111 c -0.32852,0 -0.59376,0.26523 -0.59376,0.59375 v 0.80679 c 1e-5,0.32851 0.26523,0.59375 0.59376,0.59375 h 1.20111 v 1.2011 c 0,0.32851 0.26523,0.59376 0.59375,0.59376 h 0.80678 c 0.32851,0 0.59375,-0.26523 0.59375,-0.59376 v -1.2011 h 1.20111 c 0.32852,0 0.59375,-0.26523 0.59375,-0.59375 v -0.80679 c 0,-0.32852 -0.26523,-0.59375 -0.59375,-0.59375 h -1.20111 v -1.20111 c 0,-0.32851 -0.26523,-0.59376 -0.59375,-0.59376 z m 12.12913,-0.0679 c -0.46707,-0.41956 -1.09395,-0.66113 -1.77084,-0.62487 -1.35395,0.0724 -2.39337,1.22904 -2.32091,2.58276 0.0311,0.57993 -0.0991,1.10952 -0.21572,1.72756 0,0 -0.10981,0.86922 -0.48752,1.28421 -1.04993,1.15334 -1.85985,2.07337 -3.34665,3.73346 -1.53448,1.61611 -2.38593,2.49784 -3.45073,3.63747 -0.38307,0.41004 -1.24061,0.58975 -1.24061,0.58975 -0.60658,0.16621 -1.12393,0.33856 -1.70446,0.35461 -1.355205,0.0368 -2.424003,1.16671 -2.386712,2.52207 0.03684,1.35522 1.164973,2.42241 2.520332,2.38512 0.49664,-0.0739 0.83244,-0.48395 1.00498,-0.34465 0.15275,0.16072 -0.22879,0.52856 -0.26234,1.02954 0.0724,1.35394 1.22731,2.39176 2.58104,2.3193 1.35394,-0.0724 2.39336,-1.22905 2.3209,-2.58276 -0.0311,-0.57993 0.0991,-1.10952 0.21572,-1.72754 0,0 0.10981,-0.86925 0.48756,-1.28422 1.04993,-1.15335 1.85985,-2.07337 3.34665,-3.73346 1.53447,-1.61612 2.38594,-2.49785 3.45074,-3.63748 0.38307,-0.41003 1.2406,-0.58974 1.2406,-0.58974 0.60658,-0.16621 1.12393,-0.33856 1.70446,-0.35461 1.35521,-0.0368 2.42406,-1.16665 2.38671,-2.52207 -0.0368,-1.35522 -1.16491,-2.42247 -2.52034,-2.38512 -0.49663,0.0739 -0.83244,0.48395 -1.00496,0.34466 -0.15275,-0.16073 0.22878,-0.52857 0.26233,-1.02955 -0.036,-0.67696 -0.34325,-1.27473 -0.81023,-1.69437 z m -1.31626,4.74538 c 0.21309,0.19646 0.6701,1.13955 0.31878,1.5205 -0.15897,0.17239 -2.32951,2.45223 -4.57085,4.81033 -2.16921,2.42459 -4.26615,4.77231 -4.42512,4.9447 -0.35132,0.38092 -1.32825,0.002 -1.5413,-0.19484 -0.21308,-0.19647 -0.6701,-1.13956 -0.31877,-1.52052 0.15897,-0.17239 2.32951,-2.45223 4.57084,-4.81032 2.16921,-2.42461 4.26615,-4.77232 4.42512,-4.94471 0.35128,-0.38092 1.32825,-0.002 1.5413,0.19485 z"
         style="opacity:1;vector-effect:none;fill:url(#linearGradient5564);fill-opacity:1;stroke:none;stroke-width:0.41837776;stroke-linecap:butt;stroke-linejoin:miter;stroke-miterlimit:4;stroke-dasharray:none;stroke-dashoffset:87.46364594;stroke-opacity:1;paint-order:normal"
         id="path5562"
         inkscape:connector-curvature="0" />
    </clipPath>
    <radialGradient
       inkscape:collect="always"
       xlink:href="#linearGradient5103"
       id="radialGradient5440"
       gradientUnits="userSpaceOnUse"
       gradientTransform="matrix(2.0256904,5.6374377,-4.8201238,1.7320063,62.317553,-820.67056)"
       cx="149.74358"
       cy="73.055466"
       fx="149.74358"
       fy="73.055466"
       r="4.047379" />
    <linearGradient
       inkscape:collect="always"
       id="linearGradient5103">
      <stop
         style="stop-color:#f9f7f7;stop-opacity:1"
         offset="0"
         id="stop5099" />
      <stop
         id="stop5203"
         offset="0.2258819"
         style="stop-color:#f9ebe7;stop-opacity:1" />
      <stop
         style="stop-color:#646466;stop-opacity:1"
         offset="1"
         id="stop5101" />
    </linearGradient>
    <linearGradient
       inkscape:collect="always"
       xlink:href="#linearGradient5221"
       id="linearGradient5442"
       gradientUnits="userSpaceOnUse"
       x1="21.048168"
       y1="143.71417"
       x2="21.048168"
       y2="170.04021"
       gradientTransform="translate(-0.00324329)" />
    <linearGradient
       id="linearGradient5221"
       inkscape:collect="always">
      <stop
         id="stop5215"
         offset="0"
         style="stop-color:#f4f1f1;stop-opacity:1" />
      <stop
         style="stop-color:#f9ebe7;stop-opacity:1"
         offset="0.2258819"
         id="stop5217" />
      <stop
         id="stop5219"
         offset="1"
         style="stop-color:#646466;stop-opacity:1" />
    </linearGradient>
    <filter
       inkscape:collect="always"
       style="color-interpolation-filters:sRGB"
       id="filter5649"
       x="-0.059999999"
       width="1.12"
       y="-0.059999999"
       height="1.12">
      <feGaussianBlur
         inkscape:collect="always"
         stdDeviation="0.84666662"
         id="feGaussianBlur5651" />
    </filter>
    <filter
       inkscape:collect="always"
       style="color-interpolation-filters:sRGB"
       id="filter1175"
       x="-0.011846083"
       width="1.0236923"
       y="-0.012157969"
       height="1.024316">
      <feGaussianBlur
         inkscape:collect="always"
         stdDeviation="0.31454591"
         id="feGaussianBlur1177" />
    </filter>
    <clipPath
       clipPathUnits="userSpaceOnUse"
       id="clipPath983">
      <path
         sodipodi:nodetypes="ccccsssccccccccccc"
         inkscape:connector-curvature="0"
         d="m 27.85495,207.0317 -7.267528,-2.03491 -1.199144,4.14249 2.071245,1.30816 c 0,0 1.14013,-0.9939 1.947183,-0.60194 0.932776,0.45303 0.940634,1.78322 0.690413,2.58879 -0.354708,1.1419 -1.79894,2.58702 -2.710269,1.64691 -1.32365,-1.36544 -3.960802,-4.10615 -3.960802,-4.10615 l -1.744206,1.56252 v 5.81401 l 6.613445,3.88813 8.066955,-6.50443 z m -13.1768,12.30483 6.114745,3.75625 -1.176656,1.91547 -6.114749,-3.75626 z"
         style="opacity:1;vector-effect:none;fill:url(#linearGradient987);fill-opacity:1;stroke:none;stroke-width:0.41837776;stroke-linecap:butt;stroke-linejoin:miter;stroke-miterlimit:4;stroke-dasharray:none;stroke-dashoffset:87.46364594;stroke-opacity:1;paint-order:normal"
         id="path985" />
    </clipPath>
    <filter
       inkscape:collect="always"
       style="color-interpolation-filters:sRGB"
       id="filter989"
       x="-0.011704225"
       width="1.0234085"
       y="-0.012311111"
       height="1.0246222">
      <feGaussianBlur
         inkscape:collect="always"
         stdDeviation="0.18322396"
         id="feGaussianBlur991" />
    </filter>
    <linearGradient
       inkscape:collect="always"
       xlink:href="#linearGradient5112"
       id="linearGradient970"
       gradientUnits="userSpaceOnUse"
       gradientTransform="matrix(4.1837776,0,0,4.1837776,-602.94896,-307.23322)"
       x1="151.86882"
       y1="89.953133"
       x2="151.86882"
       y2="85.184189" />
    <linearGradient
       inkscape:collect="always"
       id="linearGradient5112">
      <stop
         style="stop-color:#525c90;stop-opacity:1"
         offset="0"
         id="stop5108" />
      <stop
         style="stop-color:#262b43;stop-opacity:1"
         offset="1"
         id="stop5110" />
    </linearGradient>
  </defs>
  <sodipodi:namedview
     id="base"
     pagecolor="#ffffff"
     bordercolor="#666666"
     borderopacity="1.0"
     inkscape:pageopacity="0.0"
     inkscape:pageshadow="2"
     inkscape:zoom="5.6"
     inkscape:cx="0.51779699"
     inkscape:cy="39.975658"
     inkscape:document-units="mm"
     inkscape:current-layer="layer1"
     showgrid="false"
     fit-margin-top="0"
     fit-margin-left="0"
     fit-margin-right="0"
     fit-margin-bottom="0"
     units="px"
     inkscape:window-width="1819"
     inkscape:window-height="1057"
     inkscape:window-x="-8"
     inkscape:window-y="-8"
     inkscape:window-maximized="1" />
  <metadata
     id="metadata980">
    <rdf:RDF>
      <cc:Work
         rdf:about="">
        <dc:format>image/svg+xml</dc:format>
        <dc:type
           rdf:resource="http://purl.org/dc/dcmitype/StillImage" />
        <dc:title />
      </cc:Work>
    </rdf:RDF>
  </metadata>
  <g
     inkscape:label="Layer 1"
     inkscape:groupmode="layer"
     id="layer1"
     transform="translate(-20.344192,-47.904613)">
    <g
       id="g1639"
       transform="matrix(0.69789138,0,0,0.69789138,5.873514,23.220408)">
      <g
         transform="translate(18.52594,-106.17593)"
         style="display:inline;fill:#000000;fill-opacity:1;filter:url(#filter5649)"
         id="g5904">
        <circle
           r="16.933332"
           cy="160.51521"
           cx="20.783585"
           id="circle5900"
           style="display:inline;opacity:1;vector-effect:none;fill:#000000;fill-opacity:1;stroke:none;stroke-width:1.27242613;stroke-linecap:butt;stroke-linejoin:miter;stroke-miterlimit:4;stroke-dasharray:none;stroke-dashoffset:87.46364594;stroke-opacity:1;paint-order:normal" />
        <circle
           style="display:inline;opacity:0.5;vector-effect:none;fill:#000000;fill-opacity:1;stroke:none;stroke-width:1.27242613;stroke-linecap:butt;stroke-linejoin:miter;stroke-miterlimit:4;stroke-dasharray:none;stroke-dashoffset:87.46364594;stroke-opacity:1;paint-order:normal"
           id="circle5902"
           cx="20.783585"
           cy="160.51521"
           r="16.933332" />
      </g>
      <g
         style="display:inline;opacity:1"
         transform="translate(18.15219,-106.98851)"
         id="g5438">
        <circle
           r="16.933332"
           cy="160.51521"
           cx="20.783585"
           id="circle5434"
           style="display:inline;opacity:1;vector-effect:none;fill:url(#radialGradient5440);fill-opacity:1;stroke:none;stroke-width:1.27242613;stroke-linecap:butt;stroke-linejoin:miter;stroke-miterlimit:4;stroke-dasharray:none;stroke-dashoffset:87.46364594;stroke-opacity:1;paint-order:normal" />
        <circle
           style="display:inline;opacity:0.5;vector-effect:none;fill:url(#linearGradient5442);fill-opacity:1;stroke:none;stroke-width:1.27242613;stroke-linecap:butt;stroke-linejoin:miter;stroke-miterlimit:4;stroke-dasharray:none;stroke-dashoffset:87.46364594;stroke-opacity:1;paint-order:normal"
           id="circle5436"
           cx="20.780342"
           cy="160.51521"
           r="16.933332" />
      </g>
    </g>
    <g
       id="g899"
       transform="matrix(0.80312889,0,0,0.80312889,7.6040956,12.89554)">
      <path
         sodipodi:nodetypes="ccccsssccccccccccc"
         inkscape:connector-curvature="0"
         d="m 37.92678,51.673237 -7.267528,-2.03491 -1.199144,4.14249 2.071245,1.30816 c 0,0 1.14013,-0.9939 1.947184,-0.60194 0.932775,0.45303 0.940633,1.78322 0.690413,2.58879 -0.354709,1.1419 -1.798941,2.58702 -2.71027,1.64691 -1.32365,-1.36544 -3.960802,-4.10615 -3.960802,-4.10615 l -1.744206,1.56252 v 5.81401 l 6.613445,3.88813 8.066956,-6.50443 z m -13.1768,12.30483 6.114745,3.75625 -1.176656,1.91547 -6.114749,-3.75626 z"
         style="display:inline;opacity:1;vector-effect:none;fill:url(#linearGradient970);fill-opacity:1;stroke:none;stroke-width:0.41837779;stroke-linecap:butt;stroke-linejoin:miter;stroke-miterlimit:4;stroke-dasharray:none;stroke-dashoffset:87.46364594;stroke-opacity:1;paint-order:normal"
         id="path922" />
      <path
         clip-path="url(#clipPath983)"
         inkscape:connector-curvature="0"
         id="rect974"
         d="m 3.9026041,198.04583 v 35.71875 H 41.473437 v -35.71875 z m 16.6847699,7.61245 7.267774,2.03502 2.50734,7.70341 -8.067208,6.50451 -6.61355,-3.88814 v -5.81411 l 1.744079,-1.56218 c 0,0 2.637349,2.74025 3.960999,4.10569 0.911329,0.94011 2.355721,-0.50503 2.710429,-1.64693 0.250221,-0.80556 0.242379,-2.13544 -0.690397,-2.58847 -0.807053,-0.39196 -1.947168,0.60203 -1.947168,0.60203 l -2.071192,-1.30844 z m -5.9092,14.3397 6.114872,3.75636 -1.176673,1.91564 -6.114872,-3.75636 z"
         style="display:inline;opacity:1;vector-effect:none;fill:#000000;fill-opacity:0.78431373;fill-rule:evenodd;stroke:none;stroke-width:0.4183777;stroke-linecap:butt;stroke-linejoin:miter;stroke-miterlimit:4;stroke-dasharray:none;stroke-dashoffset:330.57125854;stroke-opacity:1;paint-order:normal;filter:url(#filter989)"
         transform="translate(10.07183,-155.35846)" />
      <path
         transform="matrix(0.26458333,0,0,0.26458333,23.373595,49.638327)"
         inkscape:connector-curvature="0"
         id="path995"
         d="m 23.616238,16.042954 -0.611328,2.11329 7.828125,4.94531 c 0,0 4.309096,-3.75682 7.359375,-2.27539 1.943779,0.94405 2.819709,2.89707 3.060547,4.96875 0.290768,-2.84052 -0.332272,-6.14369 -3.060547,-7.46875 -3.050279,-1.48143 -7.359375,2.27539 -7.359375,2.27539 z M 63.836943,37.326164 33.991238,61.390614 8.9951442,46.695304 v 2.5 l 24.9960938,14.69531 30.490235,-24.58398 z m -61.9667988,24.79687 -1.11523403,1.81446 23.11132783,14.19726 4.447266,-7.24023 -1.115235,-0.68555 -3.332031,5.42578 z"
         style="display:inline;opacity:0.25;vector-effect:none;fill:#ffffff;fill-opacity:1;stroke:none;stroke-width:1.58127022;stroke-linecap:butt;stroke-linejoin:miter;stroke-miterlimit:4;stroke-dasharray:none;stroke-dashoffset:87.46364594;stroke-opacity:1;paint-order:normal;filter:url(#filter1175)" />
    </g>
  </g>
</svg>
