<?xml version="1.0" encoding="UTF-8" standalone="no"?>
<!-- Created with Inkscape (http://www.inkscape.org/) -->

<svg
   xmlns:dc="http://purl.org/dc/elements/1.1/"
   xmlns:cc="http://creativecommons.org/ns#"
   xmlns:rdf="http://www.w3.org/1999/02/22-rdf-syntax-ns#"
   xmlns:svg="http://www.w3.org/2000/svg"
   xmlns="http://www.w3.org/2000/svg"
   xmlns:xlink="http://www.w3.org/1999/xlink"
   xmlns:sodipodi="http://sodipodi.sourceforge.net/DTD/sodipodi-0.dtd"
   xmlns:inkscape="http://www.inkscape.org/namespaces/inkscape"
   width="96"
   height="96"
   viewBox="0 0 25.400001 25.400001"
   version="1.1"
   id="svg983"
   inkscape:version="0.92.2 (5c3e80d, 2017-08-06)"
   sodipodi:docname="mz.svg">
  <defs
     id="defs977">
    <clipPath
       clipPathUnits="userSpaceOnUse"
       id="clipPath5560">
      <path
         d="m 113.79956,163.29203 c -0.32852,0 -0.59376,0.26523 -0.59376,0.59376 v 1.20111 h -1.20111 c -0.32851,0 -0.59375,0.26523 -0.59375,0.59375 v 0.80679 c 0,0.32851 0.26523,0.59375 0.59375,0.59375 h 1.20111 v 1.2011 c 0,0.32851 0.26523,0.59375 0.59376,0.59375 h 0.80677 c 0.32852,0 0.59376,-0.26523 0.59376,-0.59375 v -1.2011 h 1.20111 c 0.32852,0 0.59375,-0.26523 0.59375,-0.59375 v -0.80679 c 0,-0.32852 -0.26523,-0.59375 -0.59375,-0.59375 h -1.20111 v -1.20111 c 0,-0.32851 -0.26523,-0.59376 -0.59376,-0.59376 z M 102.77657,148.7881 c -0.32851,0 -0.59375,0.26523 -0.59375,0.59376 v 1.20111 h -1.20111 c -0.32852,0 -0.59376,0.26523 -0.59376,0.59375 v 0.80679 c 1e-5,0.32851 0.26523,0.59375 0.59376,0.59375 h 1.20111 v 1.2011 c 0,0.32851 0.26523,0.59376 0.59375,0.59376 h 0.80678 c 0.32851,0 0.59375,-0.26523 0.59375,-0.59376 v -1.2011 h 1.20111 c 0.32852,0 0.59375,-0.26523 0.59375,-0.59375 v -0.80679 c 0,-0.32852 -0.26523,-0.59375 -0.59375,-0.59375 h -1.20111 v -1.20111 c 0,-0.32851 -0.26523,-0.59376 -0.59375,-0.59376 z m 12.12913,-0.0679 c -0.46707,-0.41956 -1.09395,-0.66113 -1.77084,-0.62487 -1.35395,0.0724 -2.39337,1.22904 -2.32091,2.58276 0.0311,0.57993 -0.0991,1.10952 -0.21572,1.72756 0,0 -0.10981,0.86922 -0.48752,1.28421 -1.04993,1.15334 -1.85985,2.07337 -3.34665,3.73346 -1.53448,1.61611 -2.38593,2.49784 -3.45073,3.63747 -0.38307,0.41004 -1.24061,0.58975 -1.24061,0.58975 -0.60658,0.16621 -1.12393,0.33856 -1.70446,0.35461 -1.355205,0.0368 -2.424003,1.16671 -2.386712,2.52207 0.03684,1.35522 1.164973,2.42241 2.520332,2.38512 0.49664,-0.0739 0.83244,-0.48395 1.00498,-0.34465 0.15275,0.16072 -0.22879,0.52856 -0.26234,1.02954 0.0724,1.35394 1.22731,2.39176 2.58104,2.3193 1.35394,-0.0724 2.39336,-1.22905 2.3209,-2.58276 -0.0311,-0.57993 0.0991,-1.10952 0.21572,-1.72754 0,0 0.10981,-0.86925 0.48756,-1.28422 1.04993,-1.15335 1.85985,-2.07337 3.34665,-3.73346 1.53447,-1.61612 2.38594,-2.49785 3.45074,-3.63748 0.38307,-0.41003 1.2406,-0.58974 1.2406,-0.58974 0.60658,-0.16621 1.12393,-0.33856 1.70446,-0.35461 1.35521,-0.0368 2.42406,-1.16665 2.38671,-2.52207 -0.0368,-1.35522 -1.16491,-2.42247 -2.52034,-2.38512 -0.49663,0.0739 -0.83244,0.48395 -1.00496,0.34466 -0.15275,-0.16073 0.22878,-0.52857 0.26233,-1.02955 -0.036,-0.67696 -0.34325,-1.27473 -0.81023,-1.69437 z m -1.31626,4.74538 c 0.21309,0.19646 0.6701,1.13955 0.31878,1.5205 -0.15897,0.17239 -2.32951,2.45223 -4.57085,4.81033 -2.16921,2.42459 -4.26615,4.77231 -4.42512,4.9447 -0.35132,0.38092 -1.32825,0.002 -1.5413,-0.19484 -0.21308,-0.19647 -0.6701,-1.13956 -0.31877,-1.52052 0.15897,-0.17239 2.32951,-2.45223 4.57084,-4.81032 2.16921,-2.42461 4.26615,-4.77232 4.42512,-4.94471 0.35128,-0.38092 1.32825,-0.002 1.5413,0.19485 z"
         style="opacity:1;vector-effect:none;fill:url(#linearGradient5564);fill-opacity:1;stroke:none;stroke-width:0.41837776;stroke-linecap:butt;stroke-linejoin:miter;stroke-miterlimit:4;stroke-dasharray:none;stroke-dashoffset:87.46364594;stroke-opacity:1;paint-order:normal"
         id="path5562"
         inkscape:connector-curvature="0" />
    </clipPath>
    <radialGradient
       inkscape:collect="always"
       xlink:href="#linearGradient5103"
       id="radialGradient5440"
       gradientUnits="userSpaceOnUse"
       gradientTransform="matrix(2.0256904,5.6374377,-4.8201238,1.7320063,62.317553,-820.67056)"
       cx="149.74358"
       cy="73.055466"
       fx="149.74358"
       fy="73.055466"
       r="4.047379" />
    <linearGradient
       inkscape:collect="always"
       id="linearGradient5103">
      <stop
         style="stop-color:#f9f7f7;stop-opacity:1"
         offset="0"
         id="stop5099" />
      <stop
         id="stop5203"
         offset="0.2258819"
         style="stop-color:#f9ebe7;stop-opacity:1" />
      <stop
         style="stop-color:#646466;stop-opacity:1"
         offset="1"
         id="stop5101" />
    </linearGradient>
    <linearGradient
       inkscape:collect="always"
       xlink:href="#linearGradient5221"
       id="linearGradient5442"
       gradientUnits="userSpaceOnUse"
       x1="21.048168"
       y1="143.71417"
       x2="21.048168"
       y2="170.04021"
       gradientTransform="translate(-0.00324329)" />
    <linearGradient
       id="linearGradient5221"
       inkscape:collect="always">
      <stop
         id="stop5215"
         offset="0"
         style="stop-color:#f4f1f1;stop-opacity:1" />
      <stop
         style="stop-color:#f9ebe7;stop-opacity:1"
         offset="0.2258819"
         id="stop5217" />
      <stop
         id="stop5219"
         offset="1"
         style="stop-color:#646466;stop-opacity:1" />
    </linearGradient>
    <filter
       inkscape:collect="always"
       style="color-interpolation-filters:sRGB"
       id="filter5649"
       x="-0.059999999"
       width="1.12"
       y="-0.059999999"
       height="1.12">
      <feGaussianBlur
         inkscape:collect="always"
         stdDeviation="0.84666662"
         id="feGaussianBlur5651" />
    </filter>
    <clipPath
       clipPathUnits="userSpaceOnUse"
       id="clipPath5880">
      <path
         inkscape:connector-curvature="0"
         d="m 155.79141,159.7054 a 2.2901838,2.2901838 0 0 1 -2.29018,2.29019 2.2901838,2.2901838 0 0 1 -2.29019,-2.29019 2.2901838,2.2901838 0 0 1 2.29019,-2.29018 2.2901838,2.2901838 0 0 1 2.29018,2.29018 z m -8.18914,5.30573 2.14752,2.34531 c 0.21539,0.23523 0.19941,0.59802 -0.0358,0.81341 l -2.34531,2.14751 c -0.23524,0.2154 -0.59803,0.19942 -0.81342,-0.0358 l -2.14751,-2.34531 c -0.2154,-0.23523 -0.19941,-0.59802 0.0358,-0.81341 l 2.34531,-2.14751 c 0.23523,-0.2154 0.59803,-0.19942 0.81341,0.0358 z m 11.59876,-3e-5 -2.14752,2.34529 c -0.21535,0.23529 -0.19941,0.59803 0.0358,0.81342 l 2.34529,2.14752 c 0.23529,0.21534 0.59803,0.19941 0.81342,-0.0358 l 2.14752,-2.3453 c 0.21535,-0.23529 0.19941,-0.59803 -0.0358,-0.81341 l -2.34529,-2.14752 c -0.23529,-0.21535 -0.59803,-0.19942 -0.81342,0.0358 z m 0,-15.48363 -2.14752,2.34529 c -0.21535,0.23529 -0.19942,0.59803 0.0358,0.81341 l 2.34529,2.14753 c 0.23529,0.21534 0.59803,0.19941 0.81342,-0.0358 l 2.14752,-2.3453 c 0.21535,-0.23529 0.19941,-0.59803 -0.0358,-0.81341 l -2.3453,-2.14753 c -0.23528,-0.21534 -0.59802,-0.19941 -0.81341,0.0358 z m -9.32961,7.4144 c 0.73436,-0.75267 2.18188,-1.59317 3.54875,-1.59318 1.36686,0 2.83639,0.8405 3.57073,1.59318 0.71292,0.71295 1.16407,1.79491 1.16408,2.75215 -1e-5,0.95724 -0.45115,2.06123 -1.16408,2.77415 -0.73432,0.75269 -2.20388,1.59316 -3.57514,1.59318 -1.37127,0 -2.84079,-0.8405 -3.57514,-1.59318 -0.71293,-0.71291 -1.16407,-1.81691 -1.16408,-2.74995 0,-0.93303 0.48196,-2.06342 1.19488,-2.77635 z m -1.80713,6.97295 c 0.61414,0.39411 2.51602,1.58421 5.41486,1.58421 2.87593,-0.007 4.70612,-1.19008 5.32026,-1.58419 0.61412,-0.39411 2.74594,-1.86222 2.74596,-4.19155 3e-5,-2.33555 -2.13179,-3.83484 -2.74592,-4.22893 -0.61414,-0.39411 -2.53694,-1.50148 -5.44025,-1.50148 -2.90331,0 -4.68078,1.05896 -5.29491,1.45307 -0.61413,0.3941 -2.74814,1.91539 -2.74814,4.22012 0,2.30474 2.13401,3.85465 2.74814,4.24875 z m -0.46199,-14.38733 2.14751,2.34531 c 0.2154,0.23523 0.19941,0.59802 -0.0358,0.81341 l -2.34531,2.14751 c -0.23523,0.2154 -0.59803,0.19942 -0.81341,-0.0358 l -2.14752,-2.34531 c -0.21539,-0.23523 -0.19941,-0.59802 0.0358,-0.81341 l 2.34531,-2.14751 c 0.23523,-0.2154 0.59802,-0.19942 0.81341,0.0358 z"
         style="opacity:1;vector-effect:none;fill:url(#linearGradient5884);fill-opacity:1;fill-rule:evenodd;stroke:none;stroke-width:0.41837776;stroke-linecap:butt;stroke-linejoin:miter;stroke-miterlimit:4;stroke-dasharray:none;stroke-dashoffset:87.46364594;stroke-opacity:1;paint-order:normal"
         id="path5882" />
    </clipPath>
    <filter
       inkscape:collect="always"
       style="color-interpolation-filters:sRGB"
       id="filter5886"
       x="-0.011876302"
       width="1.0237526"
       y="-0.012126302"
       height="1.0242527">
      <feGaussianBlur
         inkscape:collect="always"
         stdDeviation="0.1796066"
         id="feGaussianBlur5888" />
    </filter>
    <linearGradient
       inkscape:collect="always"
       xlink:href="#linearGradient5112"
       id="linearGradient5867"
       gradientUnits="userSpaceOnUse"
       gradientTransform="matrix(3.1702853,0,0,3.1702853,-547.13131,-176.36183)"
       x1="183.30234"
       y1="77.048912"
       x2="183.30234"
       y2="72.059563" />
    <linearGradient
       inkscape:collect="always"
       id="linearGradient5112">
      <stop
         style="stop-color:#525c90;stop-opacity:1"
         offset="0"
         id="stop5108" />
      <stop
         style="stop-color:#262b43;stop-opacity:1"
         offset="1"
         id="stop5110" />
    </linearGradient>
  </defs>
  <sodipodi:namedview
     id="base"
     pagecolor="#ffffff"
     bordercolor="#666666"
     borderopacity="1.0"
     inkscape:pageopacity="0.0"
     inkscape:pageshadow="2"
     inkscape:zoom="5.6"
     inkscape:cx="-9.3915832"
     inkscape:cy="52.872477"
     inkscape:document-units="mm"
     inkscape:current-layer="layer1"
     showgrid="false"
     fit-margin-top="0"
     fit-margin-left="0"
     fit-margin-right="0"
     fit-margin-bottom="0"
     units="px"
     inkscape:window-width="1819"
     inkscape:window-height="1057"
     inkscape:window-x="-8"
     inkscape:window-y="-8"
     inkscape:window-maximized="1" />
  <metadata
     id="metadata980">
    <rdf:RDF>
      <cc:Work
         rdf:about="">
        <dc:format>image/svg+xml</dc:format>
        <dc:type
           rdf:resource="http://purl.org/dc/dcmitype/StillImage" />
        <dc:title />
      </cc:Work>
    </rdf:RDF>
  </metadata>
  <g
     inkscape:label="Layer 1"
     inkscape:groupmode="layer"
     id="layer1"
     transform="translate(-20.344192,-47.904613)">
    <g
       id="g1639"
       transform="matrix(0.69789138,0,0,0.69789138,5.873514,23.220408)">
      <g
         transform="translate(18.52594,-106.17593)"
         style="display:inline;fill:#000000;fill-opacity:1;filter:url(#filter5649)"
         id="g5904">
        <circle
           r="16.933332"
           cy="160.51521"
           cx="20.783585"
           id="circle5900"
           style="display:inline;opacity:1;vector-effect:none;fill:#000000;fill-opacity:1;stroke:none;stroke-width:1.27242613;stroke-linecap:butt;stroke-linejoin:miter;stroke-miterlimit:4;stroke-dasharray:none;stroke-dashoffset:87.46364594;stroke-opacity:1;paint-order:normal" />
        <circle
           style="display:inline;opacity:0.5;vector-effect:none;fill:#000000;fill-opacity:1;stroke:none;stroke-width:1.27242613;stroke-linecap:butt;stroke-linejoin:miter;stroke-miterlimit:4;stroke-dasharray:none;stroke-dashoffset:87.46364594;stroke-opacity:1;paint-order:normal"
           id="circle5902"
           cx="20.783585"
           cy="160.51521"
           r="16.933332" />
      </g>
      <g
         style="display:inline;opacity:1"
         transform="translate(18.15219,-106.98851)"
         id="g5438">
        <circle
           r="16.933332"
           cy="160.51521"
           cx="20.783585"
           id="circle5434"
           style="display:inline;opacity:1;vector-effect:none;fill:url(#radialGradient5440);fill-opacity:1;stroke:none;stroke-width:1.27242613;stroke-linecap:butt;stroke-linejoin:miter;stroke-miterlimit:4;stroke-dasharray:none;stroke-dashoffset:87.46364594;stroke-opacity:1;paint-order:normal" />
        <circle
           style="display:inline;opacity:0.5;vector-effect:none;fill:url(#linearGradient5442);fill-opacity:1;stroke:none;stroke-width:1.27242613;stroke-linecap:butt;stroke-linejoin:miter;stroke-miterlimit:4;stroke-dasharray:none;stroke-dashoffset:87.46364594;stroke-opacity:1;paint-order:normal"
           id="circle5436"
           cx="20.780342"
           cy="160.51521"
           r="16.933332" />
      </g>
    </g>
    <g
       id="g862"
       transform="matrix(0.89635234,0,0,0.89635234,2.9736299,7.2352701)">
      <path
         inkscape:connector-curvature="0"
         d="m 35.44125,59.740108 a 1.735402,1.735402 0 0 1 -1.735398,1.735406 1.735402,1.735402 0 0 1 -1.735407,-1.735406 1.735402,1.735402 0 0 1 1.735407,-1.735399 1.735402,1.735402 0 0 1 1.735398,1.735399 z m -6.205374,4.020452 1.627297,1.777174 c 0.163213,0.178247 0.151104,0.453154 -0.02713,0.616367 l -1.777174,1.62729 c -0.178254,0.163221 -0.453161,0.151112 -0.616374,-0.02713 l -1.627289,-1.777172 c -0.163221,-0.178247 -0.151104,-0.453154 0.02713,-0.616367 l 1.777174,-1.62729 c 0.178247,-0.163221 0.45316,-0.151112 0.616368,0.02713 z m 8.789037,-2.3e-5 -1.627297,1.777159 c -0.163183,0.178293 -0.151105,0.453162 0.02713,0.616375 l 1.777159,1.627297 c 0.178293,0.163176 0.453162,0.151105 0.616375,-0.02713 l 1.627297,-1.777167 c 0.163183,-0.178293 0.151105,-0.453161 -0.02713,-0.616367 L 38.641288,63.73341 c -0.178293,-0.163183 -0.453162,-0.151112 -0.616375,0.02713 z m 0,-11.732823 -1.627297,1.777159 c -0.163183,0.178292 -0.151112,0.453161 0.02713,0.616367 l 1.777159,1.627305 c 0.178293,0.163175 0.453162,0.151104 0.616375,-0.02713 l 1.627297,-1.777167 c 0.163183,-0.178292 0.151105,-0.453161 -0.02713,-0.616367 L 38.64128,52.000576 c -0.178285,-0.163175 -0.453154,-0.151104 -0.616367,0.02713 z m -7.069574,5.618311 c 0.556466,-0.570341 1.653334,-1.207236 2.689088,-1.207243 1.035748,0 2.149294,0.636894 2.705745,1.207243 0.54022,0.540242 0.882082,1.360105 0.88209,2.085459 -8e-6,0.725355 -0.341862,1.561911 -0.88209,2.102131 -0.556435,0.570356 -1.670004,1.207228 -2.709086,1.207243 -1.039089,0 -2.152627,-0.636895 -2.709087,-1.207243 -0.540226,-0.540212 -0.882081,-1.376776 -0.882088,-2.083793 0,-0.707009 0.365208,-1.56357 0.905428,-2.103797 z m -1.369365,5.283799 c 0.465368,0.298639 1.906531,1.200445 4.103146,1.200445 2.179256,-0.0053 3.566094,-0.901791 4.031463,-1.20043 0.465353,-0.29864 2.080754,-1.41111 2.080769,-3.176175 2.3e-5,-1.769779 -1.615378,-2.905875 -2.080739,-3.2045 -0.465368,-0.298639 -1.922383,-1.137756 -4.122385,-1.137756 -2.200004,0 -3.546893,0.802434 -4.012254,1.101073 -0.465361,0.298632 -2.082421,1.4514 -2.082421,3.197824 0,1.746432 1.61706,2.920887 2.082421,3.219519 z m -0.350076,-10.902095 1.62729,1.777174 c 0.163221,0.178247 0.151105,0.453154 -0.02713,0.616367 l -1.777174,1.62729 c -0.178248,0.163221 -0.453161,0.151112 -0.616367,-0.02713 l -1.627298,-1.777174 c -0.163213,-0.178247 -0.151104,-0.453154 0.02713,-0.616367 l 1.777174,-1.62729 c 0.178246,-0.163221 0.453154,-0.151112 0.616366,0.02713 z"
         style="display:inline;opacity:1;vector-effect:none;fill:url(#linearGradient5867);fill-opacity:1;fill-rule:evenodd;stroke:none;stroke-width:0.31702855;stroke-linecap:butt;stroke-linejoin:miter;stroke-miterlimit:4;stroke-dasharray:none;stroke-dashoffset:87.46364594;stroke-opacity:1;paint-order:normal"
         id="path5789" />
      <path
         clip-path="url(#clipPath5880)"
         inkscape:connector-curvature="0"
         id="rect5871"
         d="m 136.33586,143.31325 c -0.0749,0 -0.13539,0.0605 -0.13539,0.13539 v 35.2764 c 0,0.0749 0.0605,0.13539 0.13539,0.13539 h 36.02468 c 0.0749,0 0.13539,-0.0605 0.13539,-0.13539 v -35.2764 c 0,-0.0749 -0.0605,-0.13539 -0.13539,-0.13539 z m 10.86704,6.689 c 0.14703,0.006 0.29176,0.0689 0.39946,0.18655 l 2.14767,2.34559 c 0.2154,0.23523 0.19904,0.598 -0.0362,0.81339 l -2.34508,2.14767 c -0.23523,0.2154 -0.59801,0.19905 -0.81339,-0.0362 l -2.14767,-2.34508 c -0.21539,-0.23523 -0.19955,-0.59799 0.0357,-0.81338 l 2.34559,-2.14768 c 0.11762,-0.10769 0.26691,-0.15736 0.41393,-0.15089 z m 12.39718,0 c 0.14701,-0.006 0.2968,0.0432 0.41444,0.15089 l 2.34508,2.14768 c 0.23521,0.21538 0.25152,0.57809 0.0362,0.81338 l -2.14767,2.34508 c -0.21539,0.23521 -0.5781,0.251 -0.81339,0.0357 l -2.34559,-2.14716 c -0.23522,-0.21538 -0.25101,-0.5781 -0.0357,-0.81339 l 2.14767,-2.34559 c 0.1077,-0.1176 0.25193,-0.18008 0.39895,-0.18655 z m -6.24097,4.65191 c 2.90331,0 4.82636,1.10761 5.4405,1.50172 0.61413,0.39409 2.7456,1.89313 2.74557,4.22868 -2e-5,2.32933 -2.13145,3.79788 -2.74557,4.19199 -0.61414,0.39411 -2.44468,1.57689 -5.32061,1.58389 -2.89884,0 -4.80051,-1.18978 -5.41465,-1.58389 -0.61413,-0.3941 -2.74816,-1.94409 -2.74816,-4.24883 0,-2.30473 2.13403,-3.82632 2.74816,-4.22042 0.61412,-0.39411 2.39145,-1.45314 5.29476,-1.45314 z m 0.061,1.35599 c -1.36687,1e-5 -2.81426,0.84052 -3.54862,1.59319 -0.71292,0.71292 -1.19476,1.84354 -1.19476,2.77657 1e-5,0.93304 0.45082,2.03679 1.16375,2.7497 0.73435,0.75268 2.20423,1.59319 3.5755,1.59319 1.37126,-2e-5 2.84065,-0.8405 3.57497,-1.59319 0.71293,-0.71292 1.16426,-1.81675 1.16427,-2.77399 -1e-5,-0.95724 -0.45135,-2.03933 -1.16427,-2.75228 -0.73434,-0.75268 -2.20398,-1.59319 -3.57084,-1.59319 z m 0.0811,2.06654 a 2.2901838,2.2901838 0 0 1 2.2903,2.2903 2.2901838,2.2901838 0 0 1 -2.2903,2.2903 2.2901838,2.2901838 0 0 1 -2.2903,-2.2903 2.2901838,2.2901838 0 0 1 2.2903,-2.2903 z m -6.29832,7.40885 c 0.14703,0.006 0.29177,0.0695 0.39946,0.18707 l 2.14767,2.34508 c 0.21539,0.23523 0.19904,0.59851 -0.0362,0.8139 l -2.34508,2.14716 c -0.23524,0.2154 -0.598,0.19956 -0.81339,-0.0357 l -2.14767,-2.34559 c -0.2154,-0.23523 -0.19955,-0.598 0.0357,-0.81339 l 2.34559,-2.14716 c 0.11762,-0.1077 0.2669,-0.15788 0.41393,-0.15141 z m 12.39718,0 c 0.14702,-0.006 0.29679,0.0437 0.41444,0.15141 l 2.34508,2.14716 c 0.23521,0.21538 0.25152,0.5781 0.0362,0.81339 l -2.14767,2.34559 c -0.21539,0.23521 -0.5781,0.251 -0.81339,0.0357 l -2.34559,-2.14768 c -0.23521,-0.21539 -0.25101,-0.57809 -0.0357,-0.81338 l 2.14767,-2.34508 c 0.1077,-0.11761 0.25192,-0.1806 0.39895,-0.18707 z"
         style="display:inline;opacity:1;vector-effect:none;fill:#000000;fill-opacity:0.78431373;fill-rule:evenodd;stroke:none;stroke-width:0.4183777;stroke-linecap:butt;stroke-linejoin:miter;stroke-miterlimit:4;stroke-dasharray:none;stroke-dashoffset:330.57125854;stroke-opacity:1;paint-order:normal;filter:url(#filter5886)"
         transform="matrix(0.75775665,0,0,0.75775665,-82.610721,-61.277726)" />
      <path
         sodipodi:nodetypes="ccccccccccccccccccccccccccccccccccscccccccccccccccccccccccccccccccccccccc"
         inkscape:connector-curvature="0"
         id="path5892"
         d="m 26.781118,54.19891 c -0.116659,0.164129 -0.107663,0.391861 0.03407,0.546647 l 1.627414,1.776997 c 0.163205,0.17824 0.438102,0.190632 0.61635,0.02741 l 1.776997,-1.627413 c 0.163982,-0.150167 0.185522,-0.393935 0.06108,-0.570925 -0.01763,0.02472 -0.03776,0.04834 -0.06108,0.0697 l -1.776997,1.627414 c -0.178248,0.16322 -0.453145,0.150829 -0.61635,-0.02741 l -1.627415,-1.776995 c -0.01309,-0.01431 -0.02322,-0.02998 -0.03407,-0.04542 z m 13.698699,0 c -0.01084,0.01543 -0.02097,0.03111 -0.03407,0.04542 l -1.627414,1.776997 c -0.163212,0.178231 -0.438056,0.190194 -0.616349,0.02702 l -1.777388,-1.627023 c -0.02332,-0.02136 -0.04308,-0.04498 -0.0607,-0.0697 -0.124413,0.17702 -0.103297,0.420765 0.0607,0.570925 l 1.777388,1.627413 c 0.178293,0.163175 0.453137,0.15082 0.616349,-0.02741 l 1.627414,-1.776997 c 0.141704,-0.154824 0.15072,-0.382531 0.03407,-0.546647 z m -6.835449,2.239845 c -1.035754,9e-6 -2.132526,0.636906 -2.688991,1.207248 -0.540219,0.540225 -0.905337,1.396957 -0.905337,2.103968 2e-6,0.08377 0.0055,0.169397 0.01487,0.256093 0.07101,-0.651869 0.411237,-1.37961 0.890458,-1.858837 0.556465,-0.570341 1.653237,-1.207239 2.688991,-1.207248 1.035746,0 2.149377,0.636899 2.705828,1.207248 0.478928,0.478948 0.800606,1.177541 0.867745,1.835342 0.0086,-0.08459 0.0145,-0.168685 0.0145,-0.251003 -6e-6,-0.725357 -0.342013,-1.545322 -0.882233,-2.085563 -0.556452,-0.570349 -1.670082,-1.207248 -2.705829,-1.207248 z m -6.126294,3.522277 c -0.0074,0.08244 -0.0145,0.165314 -0.0145,0.250613 0,1.746432 1.61707,2.920951 2.082431,3.219583 0.465369,0.298639 1.906377,1.200197 4.102992,1.200197 2.179256,-0.0053 3.566356,-0.901558 4.031724,-1.200197 0.465354,-0.29864 2.080459,-1.411054 2.080474,-3.176118 10e-7,-0.08566 -0.0068,-0.168726 -0.01409,-0.251395 -0.142522,1.619303 -1.623524,2.642089 -2.066376,2.926288 -0.465368,0.29864 -1.852469,1.194895 -4.031725,1.200198 -2.196614,0 -3.637622,-0.901558 -4.102991,-1.200198 -0.442631,-0.284046 -1.92398,-1.361669 -2.067942,-2.968971 z m 7.9029,0.0282 c -0.123572,0.852476 -0.853743,1.48529 -1.715128,1.486443 -0.860357,-9.86e-4 -1.59015,-0.63208 -1.715127,-1.483311 -0.01277,0.08242 -0.01957,0.165648 -0.02036,0.249045 -4.9e-5,0.958504 0.776985,1.735538 1.735489,1.735491 0.958504,4.7e-5 1.735538,-0.776987 1.73549,-1.735491 -6.01e-4,-0.08444 -0.0074,-0.168725 -0.02036,-0.252177 z m -8.639465,5.94225 c -0.11698,0.164161 -0.108185,0.39212 0.03367,0.547038 l 1.627414,1.776997 c 0.163213,0.17824 0.438095,0.190241 0.61635,0.02702 l 1.776997,-1.62702 c 0.163982,-0.150167 0.150074,-0.611017 0.14083,-0.827881 -0.0065,0.204142 -0.117505,0.305296 -0.14083,0.326656 l -1.776997,1.627021 c -0.178255,0.16322 -0.453137,0.151219 -0.61635,-0.02702 l -1.627412,-1.777389 c -0.01305,-0.01425 -0.02286,-0.03005 -0.03368,-0.04542 z m 13.697917,0 c -0.01081,0.01537 -0.02063,0.03117 -0.03367,0.04542 l -1.627414,1.777388 c -0.163212,0.178234 -0.438056,0.190195 -0.616349,0.02702 l -1.777388,-1.627414 c -0.02338,-0.02141 -0.04345,-0.04453 -0.06109,-0.06931 -0.12419,0.177001 -0.102812,0.42084 0.06109,0.570927 l 1.777388,1.627021 c 0.178293,0.163174 0.453137,0.151213 0.616349,-0.02702 l 1.627414,-1.776997 c 0.141826,-0.154958 0.15065,-0.382889 0.03367,-0.547038 z"
         style="display:inline;opacity:0.25;vector-effect:none;fill:#ffffff;fill-opacity:1;fill-rule:evenodd;stroke:none;stroke-width:0.31702852;stroke-linecap:butt;stroke-linejoin:miter;stroke-miterlimit:4;stroke-dasharray:none;stroke-dashoffset:87.46364594;stroke-opacity:1;paint-order:normal" />
    </g>
  </g>
</svg>
