<svg xmlns="http://www.w3.org/2000/svg" xmlns:xlink="http://www.w3.org/1999/xlink" width="96" height="96" viewBox="0 0 25.4 25.4"><defs><radialGradient xlink:href="#a" id="e" gradientUnits="userSpaceOnUse" gradientTransform="matrix(2.02569 5.63744 -4.82012 1.732 62.318 -820.67)" cx="149.744" cy="73.055" fx="149.744" fy="73.055" r="4.047"/><linearGradient id="a"><stop offset="0" stop-color="#f9f7f7"/><stop offset=".226" stop-color="#f9ebe7"/><stop offset="1" stop-color="#646466"/></linearGradient><linearGradient xlink:href="#b" id="f" gradientUnits="userSpaceOnUse" x1="21.048" y1="143.714" x2="21.048" y2="170.04" gradientTransform="translate(-.003)"/><linearGradient id="b"><stop offset="0" stop-color="#f4f1f1"/><stop offset=".226" stop-color="#f9ebe7"/><stop offset="1" stop-color="#646466"/></linearGradient><filter id="d" x="-.06" width="1.12" y="-.06" height="1.12" color-interpolation-filters="sRGB"><feGaussianBlur stdDeviation=".847"/></filter><linearGradient xlink:href="#c" id="g" gradientUnits="userSpaceOnUse" gradientTransform="matrix(2.89678 0 0 2.89678 -467.492 -194.67)" x1="173.06" y1="91.033" x2="173.06" y2="85.228"/><linearGradient id="c"><stop offset="0" stop-color="#525c90"/><stop offset="1" stop-color="#262b43"/></linearGradient><clipPath id="h"><path d="M115.912 203.993v.035c.04.03.074.064.113.094-.04-.04-.073-.09-.113-.13zm.113.129c2.108 2.148 3.303 6.128 3.307 9.114 0 2.8-1.028 5.355-2.718 7.325-.68-.35-1.976-1.04-2.134-1.476-.18-.5.6-7.594 0-9.127-.478-1.225-2.285-2.135-3.058-2.49-.755-.346-1.808-.334-2.489.143-.443.31-.516 1.022-.364 1.542.176.606.816.742 1.162 1.27.31.47.114.828.553 1.182.462.372 1.334.285 1.503.449.21.202.34.504.109.682-.178.137-2.03.016-2.767.393-1.18.604-1.784 1.566-2.596 2.614-.242.312-.432.916-.534 1.298-.273 1.032-.52 2.294-.006 2.847.515.553 1.642-.49 1.642-.49l3.983 4.521c-1.117.371-2.308.58-3.55.58-3.935-.005-8.35-2.07-10.39-5.436l-.008.007a12.218 12.218 0 0 0 6.816 6.276l1.922 3.412.063-2.865a12.21 12.21 0 0 0 2.25.218c2.386 0 4.605-.694 6.486-1.876l2.936 2.816-1.607-3.77a12.188 12.188 0 0 0 4.39-9.09l3.19.059-3.34-2.227a12.203 12.203 0 0 0-4.751-7.901zm-9.705 1.45c-1.072.107-2.589 1.295-2.007 2.261.581.966 2.238 3.792 3.358 4.443.514.299 1.726-.31 1.449-1.211-.09-.294-1.765-2.201-1.805-2.505-.082-.636 1.016-1.104.854-1.725-.19-.722-1.107-1.336-1.85-1.262zm-2.936 2.723c-.46-.107-1.131.8-1.376 1.32-.329.699-.498 1.798.076 2.314.998.9 2.227 2.039 3.293 2.84.476.358.829-.263 1.067-.586.268-.363.403-1.192.291-1.35-.89-1.262-2.103-3.255-3.17-4.424a.354.354 0 0 0-.181-.114zm-1.534 4.896c-.355-.061-.814.535-1.011.9-.237.44-.414 1.142-.062 1.496 1.085 1.093 2.35 2.173 3.569 2.59.247.084.543-.434.68-.656.323-.526.258-1.495-.22-1.885-.896-.729-1.688-1.428-2.811-2.376a.302.302 0 0 0-.145-.069zm7.48 2.418c.166.005.507.084.619.172.27.212-.223 2.137.08 2.382.369.298.78.482.931.931.166.493.065 1.006-.327 1.131-.486.157-1.47-.595-1.811-1.306-.55-1.15-.25-2.447-.103-2.802.174-.356.259-.445.612-.508z" fill="url(#linearGradient4147)" stroke-width=".418" stroke-dashoffset="87.464"/></clipPath><filter id="i" x="-.023" width="1.047" y="-.025" height="1.049" color-interpolation-filters="sRGB"><feGaussianBlur stdDeviation=".369"/></filter><filter id="j" x="-.012" width="1.023" y="-.012" height="1.025" color-interpolation-filters="sRGB"><feGaussianBlur stdDeviation=".484"/></filter></defs><g transform="matrix(.6979 0 0 .6979 -1.542 -98.783)" filter="url(#d)"><circle r="16.933" cy="160.515" cx="20.784"/><circle cx="20.784" cy="160.515" r="16.933" opacity=".5"/></g><g transform="matrix(.6979 0 0 .6979 -1.802 -99.35)"><circle r="16.933" cy="160.515" cx="20.784" fill="url(#e)"/><circle cx="20.78" cy="160.515" r="16.933" opacity=".5" fill="url(#f)"/></g><path d="M37.208 51.727v.025c.027.02.051.044.078.064-.027-.027-.05-.062-.078-.089zm.078.09c1.46 1.487 2.287 4.243 2.29 6.31a7.763 7.763 0 0 1-1.882 5.072c-.471-.242-1.368-.72-1.477-1.022-.126-.346.414-5.258 0-6.32-.331-.847-1.583-1.478-2.118-1.723-.523-.24-1.252-.232-1.723.098-.307.216-.357.708-.252 1.068.122.42.565.514.804.879.215.326.08.574.384.819.32.257.923.197 1.04.31.145.14.235.35.075.473-.123.095-1.406.01-1.916.272-.816.418-1.235 1.085-1.797 1.81-.167.216-.3.634-.37.898-.189.715-.36 1.59-.003 1.972.356.383 1.136-.34 1.136-.34l2.758 3.131a7.779 7.779 0 0 1-2.458.402c-2.725-.004-5.782-1.433-7.193-3.764l-.007.005a8.46 8.46 0 0 0 4.72 4.345l1.33 2.362.044-1.983c.509.096 1.03.15 1.559.15a8.41 8.41 0 0 0 4.49-1.298l2.033 1.95-1.113-2.61a8.439 8.439 0 0 0 3.04-6.294l2.209.04-2.313-1.542a8.45 8.45 0 0 0-3.29-5.47zm-6.72 1.004c-.742.074-1.792.896-1.39 1.565.403.67 1.55 2.626 2.326 3.076.356.207 1.195-.214 1.003-.838-.062-.203-1.222-1.524-1.25-1.735-.056-.44.704-.764.592-1.194-.131-.5-.766-.925-1.28-.874zm-2.032 1.885c-.32-.074-.783.554-.953.914-.227.484-.344 1.245.052 1.602.692.623 1.543 1.412 2.28 1.967.33.248.575-.183.74-.406.185-.252.278-.825.201-.934-.616-.875-1.456-2.254-2.194-3.064a.246.246 0 0 0-.126-.079zm-1.062 3.39c-.246-.043-.564.37-.7.623-.164.305-.287.79-.043 1.036.75.756 1.627 1.505 2.47 1.793.172.058.377-.3.472-.454.224-.364.179-1.035-.153-1.305-.62-.505-1.169-.989-1.946-1.645a.21.21 0 0 0-.1-.048zm5.18 1.674c.114.004.35.058.427.119.188.147-.154 1.48.056 1.65.255.206.54.333.644.644.115.341.045.696-.226.784-.336.108-1.018-.413-1.254-.905-.38-.796-.174-1.694-.07-1.94.12-.247.178-.309.422-.352z" fill="url(#g)" transform="translate(-20.344 -47.905)"/><path d="M91.3 198.879v36.108h37.791v-36.108zm24.612 5.775c.04.039.074.089.113.129-.04-.03-.073-.064-.113-.093zm.115.13a12.204 12.204 0 0 1 4.75 7.9l3.34 2.227-3.192-.057a12.187 12.187 0 0 1-4.389 9.089l1.607 3.77-2.936-2.817a12.145 12.145 0 0 1-6.485 1.876 12.214 12.214 0 0 1-2.251-.217l-.062 2.864-1.923-3.411a12.219 12.219 0 0 1-6.817-6.276l.01-.007c2.039 3.367 6.454 5.431 10.39 5.436 1.241 0 2.432-.21 3.549-.58l-3.983-4.522s-1.127 1.044-1.641.491c-.515-.553-.269-1.815.006-2.848.1-.381.292-.986.533-1.297.812-1.048 1.417-2.01 2.596-2.614.737-.378 2.59-.256 2.767-.393.23-.178.1-.48-.109-.683-.169-.163-1.04-.077-1.502-.449-.44-.353-.245-.71-.554-1.182-.346-.527-.985-.663-1.162-1.27-.152-.52-.08-1.23.364-1.541.68-.477 1.734-.49 2.49-.143.772.355 2.58 1.265 3.058 2.49.599 1.533-.181 8.627 0 9.127.158.436 1.453 1.127 2.133 1.476a11.21 11.21 0 0 0 2.718-7.325c-.004-2.985-1.198-6.964-3.305-9.113zm-9.566 1.444c.713.01 1.53.592 1.708 1.269.162.62-.936 1.088-.854 1.724.04.304 1.715 2.212 1.805 2.505.278.901-.935 1.51-1.45 1.211-1.118-.65-2.776-3.476-3.358-4.442-.58-.967.936-2.154 2.008-2.26a1.1 1.1 0 0 1 .14-.007zm-3.166 2.72c.03 0 .06.003.089.009a.353.353 0 0 1 .182.113c1.066 1.17 2.279 3.162 3.17 4.425.11.157-.024.986-.292 1.349-.238.323-.591.944-1.067.587-1.066-.802-2.295-1.941-3.293-2.84-.574-.517-.405-1.616-.076-2.314.23-.488.833-1.315 1.287-1.329zm-1.513 4.901a.303.303 0 0 1 .212.073c1.124.947 1.916 1.646 2.812 2.375.478.39.544 1.36.22 1.885-.137.222-.433.74-.68.656-1.22-.416-2.484-1.497-3.57-2.59-.351-.353-.174-1.056.063-1.495.185-.343.6-.888.943-.904zm7.549 2.422c-.353.062-.438.151-.612.508-.148.354-.447 1.652.103 2.801.34.711 1.325 1.463 1.811 1.307.391-.126.493-.639.327-1.131-.151-.45-.562-.633-.931-.932-.303-.244.19-2.17-.08-2.382-.112-.088-.453-.166-.618-.17z" clip-path="url(#h)" transform="matrix(.69238 0 0 .69238 -63.392 -137.418)" fill-opacity=".784" fill-rule="evenodd" filter="url(#i)"/><path d="M438.092 773.496v.135c.15.11.278.24.428.351-.15-.151-.277-.34-.428-.486zm.428.488c7.696 7.843 12.157 22.13 12.468 33.264.014-.438.03-.875.03-1.316-.012-8.533-2.599-19.21-7.303-27.422a45.927 45.927 0 0 0-5.195-4.526zm-29.997 9.448c-.901 1.59-3.153 3.03-2.921 4.826.02.164.19.475.43.851.99-1.643 3.26-3.09 2.794-4.869a4.73 4.73 0 0 0-.303-.808zm-14.505 1.572c-.36 1-.352 2.033.234 3.008 2.197 3.652 8.462 14.333 12.693 16.79 1.944 1.13 6.526-1.17 5.477-4.577-.014-.046-.093-.16-.127-.225-.92 2.053-3.883 3.155-5.35 2.303-4.23-2.458-10.496-13.139-12.693-16.791-.1-.167-.166-.338-.234-.508zm16.164 4.805a7.03 7.03 0 0 0 .156 3.191c.668 2.29 3.085 2.804 4.392 4.797 1.17 1.78.43 3.133 2.092 4.469 1.746 1.405 5.041 1.079 5.68 1.697.056.054.094.12.146.178a.794.794 0 0 0 .264-.1c.871-.672.382-1.812-.41-2.578-.639-.618-3.934-.292-5.68-1.697-1.661-1.336-.923-2.688-2.092-4.47-1.307-1.992-3.724-2.506-4.392-4.796a6.652 6.652 0 0 1-.156-.691zm-25.682 8.517c-.262 1.98.01 3.98 1.328 5.166 3.774 3.4 8.419 7.705 12.447 10.735 1.799 1.352 3.133-.996 4.034-2.217 1.012-1.372 1.52-4.504 1.1-5.1l-.052-.074c-.208.982-.57 2.025-1.048 2.674-.901 1.22-2.235 3.569-4.034 2.217-4.028-3.03-8.673-7.336-12.447-10.735-.75-.675-1.159-1.617-1.328-2.666zm49.041 5.676c-.102 9.269-1.167 21.071-.92 23.598.158-5.105 1.01-15.767.92-23.598zm23.5 5.543c-.337 13.804-6.696 26.11-16.59 34.353l.776 1.82c9.444-8.233 15.486-20.238 15.814-33.673l12.063.217-3.854-2.569zm-76.728 4.258c-.305 1.309-.261 2.673.576 3.515 4.1 4.129 8.882 8.213 13.49 9.786.933.318 2.053-1.64 2.57-2.479.686-1.113.891-2.748.637-4.234-.12.642-.332 1.24-.637 1.734-.517.84-1.637 2.797-2.57 2.479-4.608-1.573-9.39-5.657-13.49-9.786-.282-.283-.457-.635-.576-1.015zm32.906 1.1c-1.335.234-1.655.571-2.31 1.917-.371.886-.97 3.335-.749 6.143.137-1.682.495-3.036.748-3.643.656-1.346.976-1.683 2.31-1.918.626.02 1.913.314 2.337.647.115.09.19.272.24.508.121-1.467.148-2.704-.24-3.008-.424-.333-1.711-.628-2.336-.647zm2.326 8.937c-.119 1.528-.133 2.853.312 3.213 1.395 1.127 2.948 1.82 3.52 3.52.04.12.066.24.098.36.274-.811.245-1.843-.098-2.86-.572-1.7-2.125-2.393-3.52-3.52-.156-.127-.253-.38-.312-.713zm-16.002 4.605c-.183 2.113.02 4.01 1.062 5.13 1.944 2.089 6.206-1.856 6.206-1.856l13.32 15.123c.582-.167 1.16-.343 1.732-.533l-15.052-17.09s-4.262 3.945-6.206 1.855c-.606-.651-.93-1.564-1.062-2.629zm-30.363 2.01l-.036.027a46.18 46.18 0 0 0 25.764 23.721l7.266 12.893.234-10.827c2.776.525 5.62.819 8.51.823 9.016-.001 17.4-2.62 24.51-7.088l11.095 10.642-1.804-4.232-9.291-8.912c-7.11 4.468-15.494 7.089-24.51 7.09a46.174 46.174 0 0 1-8.51-.823l-.234 10.827-7.266-12.893a46.244 46.244 0 0 1-18.703-12.914c-2.765-2.463-5.16-5.253-7.025-8.334z" transform="matrix(.1832 0 0 .1832 -63.392 -137.418)" opacity=".25" fill="#fff" filter="url(#j)"/></svg>